<svg width="489" height="31" viewBox="0 0 489 31" fill="none" xmlns="http://www.w3.org/2000/svg">
<path d="M22.75 5.0625L19.6875 7.98438C17.6042 5.78646 15.2604 4.6875 12.6562 4.6875C10.4583 4.6875 8.60417 5.4375 7.09375 6.9375C5.59375 8.4375 4.84375 10.2865 4.84375 12.4844C4.84375 14.0156 5.17708 15.375 5.84375 16.5625C6.51042 17.75 7.45312 18.6823 8.67188 19.3594C9.89062 20.0365 11.2448 20.375 12.7344 20.375C14.0052 20.375 15.1667 20.1406 16.2188 19.6719C17.2708 19.1927 18.4271 18.3281 19.6875 17.0781L22.6562 20.1719C20.9583 21.8281 19.3542 22.9792 17.8438 23.625C16.3333 24.2604 14.6094 24.5781 12.6719 24.5781C9.09896 24.5781 6.17188 23.4479 3.89062 21.1875C1.61979 18.9167 0.484375 16.0104 0.484375 12.4688C0.484375 10.1771 1 8.14062 2.03125 6.35938C3.07292 4.57812 4.55729 3.14583 6.48438 2.0625C8.42188 0.979167 10.5052 0.4375 12.7344 0.4375C14.6302 0.4375 16.4531 0.838542 18.2031 1.64062C19.9635 2.44271 21.4792 3.58333 22.75 5.0625ZM26.1406 0.4375H30.375V8.71875C31.2083 8 32.0469 7.46354 32.8906 7.10938C33.7344 6.74479 34.5885 6.5625 35.4531 6.5625C37.1406 6.5625 38.5625 7.14583 39.7188 8.3125C40.7083 9.32292 41.2031 10.8073 41.2031 12.7656V24H37V16.5469C37 14.5781 36.9062 13.2448 36.7188 12.5469C36.5312 11.849 36.2083 11.3281 35.75 10.9844C35.3021 10.6406 34.7448 10.4688 34.0781 10.4688C33.2135 10.4688 32.4688 10.7552 31.8438 11.3281C31.2292 11.901 30.8021 12.6823 30.5625 13.6719C30.4375 14.1823 30.375 15.349 30.375 17.1719V24H26.1406V0.4375ZM62.375 16.7344H48.6719C48.8698 17.9427 49.3958 18.9062 50.25 19.625C51.1146 20.3333 52.2135 20.6875 53.5469 20.6875C55.1406 20.6875 56.5104 20.1302 57.6562 19.0156L61.25 20.7031C60.3542 21.974 59.2812 22.9167 58.0312 23.5312C56.7812 24.1354 55.2969 24.4375 53.5781 24.4375C50.9115 24.4375 48.7396 23.599 47.0625 21.9219C45.3854 20.2344 44.5469 18.125 44.5469 15.5938C44.5469 13 45.3802 10.849 47.0469 9.14062C48.724 7.42188 50.8229 6.5625 53.3438 6.5625C56.0208 6.5625 58.1979 7.42188 59.875 9.14062C61.5521 10.849 62.3906 13.1094 62.3906 15.9219L62.375 16.7344ZM58.0938 13.375C57.8125 12.4271 57.2552 11.6562 56.4219 11.0625C55.599 10.4688 54.6406 10.1719 53.5469 10.1719C52.3594 10.1719 51.3177 10.5052 50.4219 11.1719C49.8594 11.5885 49.3385 12.3229 48.8594 13.375H58.0938ZM82.4844 10.4375L78.9375 12.3906C78.2708 11.6927 77.6094 11.2083 76.9531 10.9375C76.3073 10.6667 75.5469 10.5312 74.6719 10.5312C73.0781 10.5312 71.7865 11.0104 70.7969 11.9688C69.8177 12.9167 69.3281 14.1354 69.3281 15.625C69.3281 17.0729 69.8021 18.2552 70.75 19.1719C71.6979 20.0885 72.9427 20.5469 74.4844 20.5469C76.3906 20.5469 77.875 19.8958 78.9375 18.5938L82.2969 20.8906C80.474 23.2552 77.901 24.4375 74.5781 24.4375C71.5885 24.4375 69.2448 23.5521 67.5469 21.7812C65.8594 20.0104 65.0156 17.9375 65.0156 15.5625C65.0156 13.9167 65.4271 12.401 66.25 11.0156C67.0729 9.63021 68.2188 8.54167 69.6875 7.75C71.1667 6.95833 72.8177 6.5625 74.6406 6.5625C76.3281 6.5625 77.8438 6.90104 79.1875 7.57812C80.5312 8.24479 81.6302 9.19792 82.4844 10.4375ZM86.375 0.4375H90.6406V14.0156L96.9219 7H102.266L94.9531 15.1562L103.156 24H97.8594L90.6406 16.1719V24H86.375V0.4375ZM121.859 6.5625C123.464 6.5625 124.969 6.96354 126.375 7.76562C127.792 8.56771 128.896 9.65625 129.688 11.0312C130.479 12.4062 130.875 13.8906 130.875 15.4844C130.875 17.0885 130.474 18.5885 129.672 19.9844C128.88 21.3802 127.797 22.474 126.422 23.2656C125.047 24.0469 123.531 24.4375 121.875 24.4375C119.438 24.4375 117.354 23.5729 115.625 21.8438C113.906 20.1042 113.047 17.9948 113.047 15.5156C113.047 12.8594 114.021 10.6458 115.969 8.875C117.677 7.33333 119.641 6.5625 121.859 6.5625ZM121.922 10.5781C120.599 10.5781 119.495 11.0417 118.609 11.9688C117.734 12.8854 117.297 14.0625 117.297 15.5C117.297 16.9792 117.729 18.1771 118.594 19.0938C119.469 20.0104 120.573 20.4688 121.906 20.4688C123.24 20.4688 124.349 20.0052 125.234 19.0781C126.12 18.151 126.562 16.9583 126.562 15.5C126.562 14.0417 126.125 12.8594 125.25 11.9531C124.385 11.0365 123.276 10.5781 121.922 10.5781ZM134.359 7H138.672V15.1875C138.672 16.7812 138.781 17.8906 139 18.5156C139.219 19.1302 139.568 19.6094 140.047 19.9531C140.536 20.2969 141.135 20.4688 141.844 20.4688C142.552 20.4688 143.151 20.3021 143.641 19.9688C144.141 19.625 144.51 19.125 144.75 18.4688C144.927 17.9792 145.016 16.9323 145.016 15.3281V7H149.297V14.2031C149.297 17.1719 149.062 19.2031 148.594 20.2969C148.021 21.6302 147.177 22.6562 146.062 23.375C144.948 24.0833 143.531 24.4375 141.812 24.4375C139.948 24.4375 138.438 24.0208 137.281 23.1875C136.135 22.3542 135.328 21.1927 134.859 19.7031C134.526 18.6719 134.359 16.7969 134.359 14.0781V7ZM154.109 0.734375H158.359V7H160.891V10.6719H158.359V24H154.109V10.6719H151.922V7H154.109V0.734375ZM180.141 6.5625C181.745 6.5625 183.25 6.96354 184.656 7.76562C186.073 8.56771 187.177 9.65625 187.969 11.0312C188.76 12.4062 189.156 13.8906 189.156 15.4844C189.156 17.0885 188.755 18.5885 187.953 19.9844C187.161 21.3802 186.078 22.474 184.703 23.2656C183.328 24.0469 181.812 24.4375 180.156 24.4375C177.719 24.4375 175.635 23.5729 173.906 21.8438C172.188 20.1042 171.328 17.9948 171.328 15.5156C171.328 12.8594 172.302 10.6458 174.25 8.875C175.958 7.33333 177.922 6.5625 180.141 6.5625ZM180.203 10.5781C178.88 10.5781 177.776 11.0417 176.891 11.9688C176.016 12.8854 175.578 14.0625 175.578 15.5C175.578 16.9792 176.01 18.1771 176.875 19.0938C177.75 20.0104 178.854 20.4688 180.188 20.4688C181.521 20.4688 182.63 20.0052 183.516 19.0781C184.401 18.151 184.844 16.9583 184.844 15.5C184.844 14.0417 184.406 12.8594 183.531 11.9531C182.667 11.0365 181.557 10.5781 180.203 10.5781ZM192.641 7H196.953V15.1875C196.953 16.7812 197.062 17.8906 197.281 18.5156C197.5 19.1302 197.849 19.6094 198.328 19.9531C198.818 20.2969 199.417 20.4688 200.125 20.4688C200.833 20.4688 201.432 20.3021 201.922 19.9688C202.422 19.625 202.792 19.125 203.031 18.4688C203.208 17.9792 203.297 16.9323 203.297 15.3281V7H207.578V14.2031C207.578 17.1719 207.344 19.2031 206.875 20.2969C206.302 21.6302 205.458 22.6562 204.344 23.375C203.229 24.0833 201.812 24.4375 200.094 24.4375C198.229 24.4375 196.719 24.0208 195.562 23.1875C194.417 22.3542 193.609 21.1927 193.141 19.7031C192.807 18.6719 192.641 16.7969 192.641 14.0781V7ZM210.875 7H214.531V9.14062C214.927 8.29688 215.453 7.65625 216.109 7.21875C216.766 6.78125 217.484 6.5625 218.266 6.5625C218.818 6.5625 219.396 6.70833 220 7L218.672 10.6719C218.172 10.4219 217.76 10.2969 217.438 10.2969C216.781 10.2969 216.224 10.7031 215.766 11.5156C215.318 12.3281 215.094 13.9219 215.094 16.2969L215.109 17.125V24H210.875V7ZM243.609 4.14062L240.375 7C239.24 5.41667 238.083 4.625 236.906 4.625C236.333 4.625 235.865 4.78125 235.5 5.09375C235.135 5.39583 234.953 5.73958 234.953 6.125C234.953 6.51042 235.083 6.875 235.344 7.21875C235.698 7.67708 236.766 8.66146 238.547 10.1719C240.214 11.5677 241.224 12.4479 241.578 12.8125C242.464 13.7083 243.089 14.5677 243.453 15.3906C243.828 16.2031 244.016 17.0938 244.016 18.0625C244.016 19.9479 243.365 21.5052 242.062 22.7344C240.76 23.9635 239.062 24.5781 236.969 24.5781C235.333 24.5781 233.906 24.1771 232.688 23.375C231.479 22.5729 230.443 21.3125 229.578 19.5938L233.25 17.375C234.354 19.4062 235.625 20.4219 237.062 20.4219C237.812 20.4219 238.443 20.2031 238.953 19.7656C239.464 19.3281 239.719 18.8229 239.719 18.25C239.719 17.7292 239.526 17.2083 239.141 16.6875C238.755 16.1667 237.906 15.3698 236.594 14.2969C234.094 12.2552 232.479 10.6823 231.75 9.57812C231.021 8.46354 230.656 7.35417 230.656 6.25C230.656 4.65625 231.26 3.29167 232.469 2.15625C233.688 1.01042 235.188 0.4375 236.969 0.4375C238.115 0.4375 239.203 0.703125 240.234 1.23438C241.276 1.76562 242.401 2.73438 243.609 4.14062ZM264.781 16.7344H251.078C251.276 17.9427 251.802 18.9062 252.656 19.625C253.521 20.3333 254.62 20.6875 255.953 20.6875C257.547 20.6875 258.917 20.1302 260.062 19.0156L263.656 20.7031C262.76 21.974 261.688 22.9167 260.438 23.5312C259.188 24.1354 257.703 24.4375 255.984 24.4375C253.318 24.4375 251.146 23.599 249.469 21.9219C247.792 20.2344 246.953 18.125 246.953 15.5938C246.953 13 247.786 10.849 249.453 9.14062C251.13 7.42188 253.229 6.5625 255.75 6.5625C258.427 6.5625 260.604 7.42188 262.281 9.14062C263.958 10.849 264.797 13.1094 264.797 15.9219L264.781 16.7344ZM260.5 13.375C260.219 12.4271 259.661 11.6562 258.828 11.0625C258.005 10.4688 257.047 10.1719 255.953 10.1719C254.766 10.1719 253.724 10.5052 252.828 11.1719C252.266 11.5885 251.745 12.3229 251.266 13.375H260.5ZM267.25 7H270.906V9.14062C271.302 8.29688 271.828 7.65625 272.484 7.21875C273.141 6.78125 273.859 6.5625 274.641 6.5625C275.193 6.5625 275.771 6.70833 276.375 7L275.047 10.6719C274.547 10.4219 274.135 10.2969 273.812 10.2969C273.156 10.2969 272.599 10.7031 272.141 11.5156C271.693 12.3281 271.469 13.9219 271.469 16.2969L271.484 17.125V24H267.25V7ZM276.672 7H281.016L285.312 17.0312L289.594 7H293.922L286.688 24H283.922L276.672 7ZM298.109 0C298.859 0 299.5 0.270833 300.031 0.8125C300.573 1.35417 300.844 2.01042 300.844 2.78125C300.844 3.54167 300.578 4.19271 300.047 4.73438C299.516 5.26562 298.88 5.53125 298.141 5.53125C297.38 5.53125 296.729 5.26042 296.188 4.71875C295.656 4.16667 295.391 3.5 295.391 2.71875C295.391 1.96875 295.656 1.32812 296.188 0.796875C296.719 0.265625 297.359 0 298.109 0ZM295.969 7H300.25V24H295.969V7ZM320.766 10.4375L317.219 12.3906C316.552 11.6927 315.891 11.2083 315.234 10.9375C314.589 10.6667 313.828 10.5312 312.953 10.5312C311.359 10.5312 310.068 11.0104 309.078 11.9688C308.099 12.9167 307.609 14.1354 307.609 15.625C307.609 17.0729 308.083 18.2552 309.031 19.1719C309.979 20.0885 311.224 20.5469 312.766 20.5469C314.672 20.5469 316.156 19.8958 317.219 18.5938L320.578 20.8906C318.755 23.2552 316.182 24.4375 312.859 24.4375C309.87 24.4375 307.526 23.5521 305.828 21.7812C304.141 20.0104 303.297 17.9375 303.297 15.5625C303.297 13.9167 303.708 12.401 304.531 11.0156C305.354 9.63021 306.5 8.54167 307.969 7.75C309.448 6.95833 311.099 6.5625 312.922 6.5625C314.609 6.5625 316.125 6.90104 317.469 7.57812C318.812 8.24479 319.911 9.19792 320.766 10.4375ZM341.656 16.7344H327.953C328.151 17.9427 328.677 18.9062 329.531 19.625C330.396 20.3333 331.495 20.6875 332.828 20.6875C334.422 20.6875 335.792 20.1302 336.938 19.0156L340.531 20.7031C339.635 21.974 338.562 22.9167 337.312 23.5312C336.062 24.1354 334.578 24.4375 332.859 24.4375C330.193 24.4375 328.021 23.599 326.344 21.9219C324.667 20.2344 323.828 18.125 323.828 15.5938C323.828 13 324.661 10.849 326.328 9.14062C328.005 7.42188 330.104 6.5625 332.625 6.5625C335.302 6.5625 337.479 7.42188 339.156 9.14062C340.833 10.849 341.672 13.1094 341.672 15.9219L341.656 16.7344ZM337.375 13.375C337.094 12.4271 336.536 11.6562 335.703 11.0625C334.88 10.4688 333.922 10.1719 332.828 10.1719C331.641 10.1719 330.599 10.5052 329.703 11.1719C329.141 11.5885 328.62 12.3229 328.141 13.375H337.375ZM365.422 0.4375C368.672 0.4375 371.464 1.61458 373.797 3.96875C376.141 6.32292 377.312 9.19271 377.312 12.5781C377.312 15.9323 376.156 18.7708 373.844 21.0938C371.542 23.4167 368.745 24.5781 365.453 24.5781C362.005 24.5781 359.141 23.3854 356.859 21C354.578 18.6146 353.438 15.7812 353.438 12.5C353.438 10.3021 353.969 8.28125 355.031 6.4375C356.094 4.59375 357.552 3.13542 359.406 2.0625C361.271 0.979167 363.276 0.4375 365.422 0.4375ZM365.375 4.71875C363.25 4.71875 361.464 5.45833 360.016 6.9375C358.568 8.41667 357.844 10.2969 357.844 12.5781C357.844 15.1198 358.755 17.1302 360.578 18.6094C361.995 19.7656 363.62 20.3438 365.453 20.3438C367.526 20.3438 369.292 19.5938 370.75 18.0938C372.208 16.5938 372.938 14.7448 372.938 12.5469C372.938 10.3594 372.203 8.51042 370.734 7C369.266 5.47917 367.479 4.71875 365.375 4.71875ZM378.938 7H380.453C380.464 4.77083 380.5 3.45312 380.562 3.04688C380.677 2.10938 381.068 1.36979 381.734 0.828125C382.411 0.276042 383.365 0 384.594 0C385.479 0 386.479 0.203125 387.594 0.609375V3.85938C386.979 3.68229 386.474 3.59375 386.078 3.59375C385.578 3.59375 385.214 3.69792 384.984 3.90625C384.818 4.0625 384.734 4.38542 384.734 4.875L384.719 7H387.422V10.625H384.719V24H380.453V10.625H378.938V7ZM387.906 7H389.422C389.432 4.77083 389.469 3.45312 389.531 3.04688C389.646 2.10938 390.036 1.36979 390.703 0.828125C391.38 0.276042 392.333 0 393.562 0C394.448 0 395.448 0.203125 396.562 0.609375V3.85938C395.948 3.68229 395.443 3.59375 395.047 3.59375C394.547 3.59375 394.182 3.69792 393.953 3.90625C393.786 4.0625 393.703 4.38542 393.703 4.875L393.688 7H396.391V10.625H393.688V24H389.422V10.625H387.906V7ZM415.938 16.7344H402.234C402.432 17.9427 402.958 18.9062 403.812 19.625C404.677 20.3333 405.776 20.6875 407.109 20.6875C408.703 20.6875 410.073 20.1302 411.219 19.0156L414.812 20.7031C413.917 21.974 412.844 22.9167 411.594 23.5312C410.344 24.1354 408.859 24.4375 407.141 24.4375C404.474 24.4375 402.302 23.599 400.625 21.9219C398.948 20.2344 398.109 18.125 398.109 15.5938C398.109 13 398.943 10.849 400.609 9.14062C402.286 7.42188 404.385 6.5625 406.906 6.5625C409.583 6.5625 411.76 7.42188 413.438 9.14062C415.115 10.849 415.953 13.1094 415.953 15.9219L415.938 16.7344ZM411.656 13.375C411.375 12.4271 410.818 11.6562 409.984 11.0625C409.161 10.4688 408.203 10.1719 407.109 10.1719C405.922 10.1719 404.88 10.5052 403.984 11.1719C403.422 11.5885 402.901 12.3229 402.422 13.375H411.656ZM418.406 7H422.062V9.14062C422.458 8.29688 422.984 7.65625 423.641 7.21875C424.297 6.78125 425.016 6.5625 425.797 6.5625C426.349 6.5625 426.927 6.70833 427.531 7L426.203 10.6719C425.703 10.4219 425.292 10.2969 424.969 10.2969C424.312 10.2969 423.755 10.7031 423.297 11.5156C422.849 12.3281 422.625 13.9219 422.625 16.2969L422.641 17.125V24H418.406V7ZM431.328 0C432.078 0 432.719 0.270833 433.25 0.8125C433.792 1.35417 434.062 2.01042 434.062 2.78125C434.062 3.54167 433.797 4.19271 433.266 4.73438C432.734 5.26562 432.099 5.53125 431.359 5.53125C430.599 5.53125 429.948 5.26042 429.406 4.71875C428.875 4.16667 428.609 3.5 428.609 2.71875C428.609 1.96875 428.875 1.32812 429.406 0.796875C429.938 0.265625 430.578 0 431.328 0ZM429.188 7H433.469V24H429.188V7ZM437.344 7H441.594V8.73438C442.562 7.92188 443.438 7.35938 444.219 7.04688C445.01 6.72396 445.818 6.5625 446.641 6.5625C448.328 6.5625 449.76 7.15104 450.938 8.32812C451.927 9.32812 452.422 10.8073 452.422 12.7656V24H448.203V16.5469C448.203 14.5156 448.109 13.1667 447.922 12.5C447.745 11.8333 447.427 11.3281 446.969 10.9844C446.521 10.6302 445.964 10.4531 445.297 10.4531C444.432 10.4531 443.688 10.7448 443.062 11.3281C442.448 11.901 442.021 12.6979 441.781 13.7188C441.656 14.25 441.594 15.401 441.594 17.1719V24H437.344V7ZM469.125 7H473.375V21.5625C473.375 24.4375 472.797 26.5521 471.641 27.9062C470.089 29.7396 467.75 30.6562 464.625 30.6562C462.958 30.6562 461.557 30.4479 460.422 30.0312C459.286 29.6146 458.328 29 457.547 28.1875C456.766 27.3854 456.188 26.4062 455.812 25.25H460.516C460.932 25.7292 461.469 26.0885 462.125 26.3281C462.781 26.5781 463.557 26.7031 464.453 26.7031C465.599 26.7031 466.521 26.526 467.219 26.1719C467.917 25.8177 468.406 25.3594 468.688 24.7969C468.979 24.2344 469.125 23.2656 469.125 21.8906C468.375 22.6406 467.589 23.1823 466.766 23.5156C465.943 23.8385 465.01 24 463.969 24C461.688 24 459.76 23.1771 458.188 21.5312C456.615 19.8854 455.828 17.8021 455.828 15.2812C455.828 12.5833 456.661 10.4167 458.328 8.78125C459.839 7.30208 461.641 6.5625 463.734 6.5625C464.714 6.5625 465.635 6.74479 466.5 7.10938C467.375 7.46354 468.25 8.05208 469.125 8.875V7ZM464.703 10.5469C463.359 10.5469 462.25 11 461.375 11.9062C460.5 12.8021 460.062 13.9323 460.062 15.2969C460.062 16.7135 460.51 17.875 461.406 18.7812C462.302 19.6875 463.427 20.1406 464.781 20.1406C466.104 20.1406 467.193 19.6979 468.047 18.8125C468.911 17.9271 469.344 16.7656 469.344 15.3281C469.344 13.9115 468.911 12.7604 468.047 11.875C467.182 10.9896 466.068 10.5469 464.703 10.5469ZM488.094 9.375L485.453 12.0156C484.38 10.9531 483.406 10.4219 482.531 10.4219C482.052 10.4219 481.677 10.526 481.406 10.7344C481.135 10.9323 481 11.1823 481 11.4844C481 11.7135 481.083 11.9271 481.25 12.125C481.427 12.3125 481.854 12.5729 482.531 12.9062L484.094 13.6875C485.74 14.5 486.87 15.3281 487.484 16.1719C488.099 17.0156 488.406 18.0052 488.406 19.1406C488.406 20.651 487.849 21.9115 486.734 22.9219C485.63 23.9323 484.146 24.4375 482.281 24.4375C479.802 24.4375 477.823 23.4688 476.344 21.5312L478.969 18.6719C479.469 19.2552 480.052 19.7292 480.719 20.0938C481.396 20.4479 481.995 20.625 482.516 20.625C483.078 20.625 483.531 20.4896 483.875 20.2188C484.219 19.9479 484.391 19.6354 484.391 19.2812C484.391 18.625 483.771 17.9844 482.531 17.3594L481.094 16.6406C478.344 15.2552 476.969 13.5208 476.969 11.4375C476.969 10.0938 477.484 8.94792 478.516 8C479.557 7.04167 480.885 6.5625 482.5 6.5625C483.604 6.5625 484.641 6.80729 485.609 7.29688C486.589 7.77604 487.417 8.46875 488.094 9.375Z" fill="#4F4F4F"/>
</svg>
