<svg width="515" height="56" viewBox="0 0 515 56" fill="none" xmlns="http://www.w3.org/2000/svg">
<path d="M28.8 27.65C28.8 28.4167 28.75 29.15 28.65 29.85H10.8C10.9667 32.2833 11.9833 33.5 13.85 33.5C15.05 33.5 15.9167 32.95 16.45 31.85H28.2C27.8 33.85 26.95 35.65 25.65 37.25C24.3833 38.8167 22.7667 40.0667 20.8 41C18.8667 41.9 16.7333 42.35 14.4 42.35C11.6 42.35 9.1 41.7667 6.9 40.6C4.73333 39.4333 3.03333 37.7667 1.8 35.6C0.6 33.4 7.07805e-08 30.8333 7.07805e-08 27.9C7.07805e-08 24.9667 0.6 22.4167 1.8 20.25C3.03333 18.05 4.73333 16.3667 6.9 15.2C9.1 14.0333 11.6 13.45 14.4 13.45C17.2 13.45 19.6833 14.0333 21.85 15.2C24.05 16.3333 25.75 17.9667 26.95 20.1C28.1833 22.2333 28.8 24.75 28.8 27.65ZM17.55 25C17.55 24.0667 17.25 23.3667 16.65 22.9C16.05 22.4 15.3 22.15 14.4 22.15C12.4333 22.15 11.2833 23.1 10.95 25H17.55ZM52.0605 13.6C55.2939 13.6 57.8105 14.6833 59.6105 16.85C61.4439 19.0167 62.3605 21.95 62.3605 25.65V42H51.3105V27.05C51.3105 25.7167 50.9439 24.6667 50.2105 23.9C49.5105 23.1 48.5605 22.7 47.3605 22.7C46.1272 22.7 45.1605 23.1 44.4605 23.9C43.7605 24.6667 43.4105 25.7167 43.4105 27.05V42H32.3105V13.8H43.4105V18.1C44.2772 16.7667 45.4272 15.6833 46.8605 14.85C48.3272 14.0167 50.0605 13.6 52.0605 13.6ZM86.9238 13.6C90.1572 13.6 92.6738 14.6833 94.4738 16.85C96.3072 19.0167 97.2238 21.95 97.2238 25.65V42H86.1738V27.05C86.1738 25.7167 85.8072 24.6667 85.0738 23.9C84.3738 23.1 83.4238 22.7 82.2238 22.7C80.9905 22.7 80.0238 23.1 79.3238 23.9C78.6238 24.6667 78.2738 25.7167 78.2738 27.05V42H67.1738V5H78.2738V18.1C79.1405 16.7667 80.2905 15.6833 81.7238 14.85C83.1905 14.0167 84.9238 13.6 86.9238 13.6ZM100.537 27.9C100.537 24.9333 101.037 22.3667 102.037 20.2C103.07 18 104.47 16.3333 106.237 15.2C108.004 14.0333 109.987 13.45 112.187 13.45C114.02 13.45 115.604 13.8333 116.937 14.6C118.27 15.3333 119.287 16.35 119.987 17.65V13.8H131.037V42H119.987V38.15C119.287 39.45 118.27 40.4833 116.937 41.25C115.604 41.9833 114.02 42.35 112.187 42.35C109.987 42.35 108.004 41.7833 106.237 40.65C104.47 39.4833 103.07 37.8167 102.037 35.65C101.037 33.45 100.537 30.8667 100.537 27.9ZM119.987 27.9C119.987 26.4 119.604 25.2333 118.837 24.4C118.07 23.5667 117.087 23.15 115.887 23.15C114.687 23.15 113.704 23.5667 112.937 24.4C112.17 25.2333 111.787 26.4 111.787 27.9C111.787 29.4 112.17 30.5667 112.937 31.4C113.704 32.2333 114.687 32.65 115.887 32.65C117.087 32.65 118.07 32.2333 118.837 31.4C119.604 30.5667 119.987 29.4 119.987 27.9ZM155.771 13.6C159.005 13.6 161.521 14.6833 163.321 16.85C165.155 19.0167 166.071 21.95 166.071 25.65V42H155.021V27.05C155.021 25.7167 154.655 24.6667 153.921 23.9C153.221 23.1 152.271 22.7 151.071 22.7C149.838 22.7 148.871 23.1 148.171 23.9C147.471 24.6667 147.121 25.7167 147.121 27.05V42H136.021V13.8H147.121V18.1C147.988 16.7667 149.138 15.6833 150.571 14.85C152.038 14.0167 153.771 13.6 155.771 13.6ZM169.385 27.9C169.385 24.9667 169.985 22.4167 171.185 20.25C172.418 18.05 174.118 16.3667 176.285 15.2C178.485 14.0333 180.985 13.45 183.785 13.45C187.451 13.45 190.535 14.4833 193.035 16.55C195.568 18.6167 197.168 21.4833 197.835 25.15H186.085C185.651 23.6833 184.801 22.95 183.535 22.95C182.635 22.95 181.918 23.3667 181.385 24.2C180.885 25.0333 180.635 26.2667 180.635 27.9C180.635 29.5333 180.885 30.7667 181.385 31.6C181.918 32.4333 182.635 32.85 183.535 32.85C184.801 32.85 185.651 32.1167 186.085 30.65H197.835C197.168 34.3167 195.568 37.1833 193.035 39.25C190.535 41.3167 187.451 42.35 183.785 42.35C180.985 42.35 178.485 41.7667 176.285 40.6C174.118 39.4333 172.418 37.7667 171.185 35.6C169.985 33.4 169.385 30.8333 169.385 27.9ZM228.654 27.65C228.654 28.4167 228.604 29.15 228.504 29.85H210.654C210.82 32.2833 211.837 33.5 213.704 33.5C214.904 33.5 215.77 32.95 216.304 31.85H228.054C227.654 33.85 226.804 35.65 225.504 37.25C224.237 38.8167 222.62 40.0667 220.654 41C218.72 41.9 216.587 42.35 214.254 42.35C211.454 42.35 208.954 41.7667 206.754 40.6C204.587 39.4333 202.887 37.7667 201.654 35.6C200.454 33.4 199.854 30.8333 199.854 27.9C199.854 24.9667 200.454 22.4167 201.654 20.25C202.887 18.05 204.587 16.3667 206.754 15.2C208.954 14.0333 211.454 13.45 214.254 13.45C217.054 13.45 219.537 14.0333 221.704 15.2C223.904 16.3333 225.604 17.9667 226.804 20.1C228.037 22.2333 228.654 24.75 228.654 27.65ZM217.404 25C217.404 24.0667 217.104 23.3667 216.504 22.9C215.904 22.4 215.154 22.15 214.254 22.15C212.287 22.15 211.137 23.1 210.804 25H217.404ZM267.96 27.65C267.96 28.4167 267.91 29.15 267.81 29.85H249.96C250.127 32.2833 251.143 33.5 253.01 33.5C254.21 33.5 255.077 32.95 255.61 31.85H267.36C266.96 33.85 266.11 35.65 264.81 37.25C263.543 38.8167 261.927 40.0667 259.96 41C258.027 41.9 255.893 42.35 253.56 42.35C250.76 42.35 248.26 41.7667 246.06 40.6C243.893 39.4333 242.193 37.7667 240.96 35.6C239.76 33.4 239.16 30.8333 239.16 27.9C239.16 24.9667 239.76 22.4167 240.96 20.25C242.193 18.05 243.893 16.3667 246.06 15.2C248.26 14.0333 250.76 13.45 253.56 13.45C256.36 13.45 258.843 14.0333 261.01 15.2C263.21 16.3333 264.91 17.9667 266.11 20.1C267.343 22.2333 267.96 24.75 267.96 27.65ZM256.71 25C256.71 24.0667 256.41 23.3667 255.81 22.9C255.21 22.4 254.46 22.15 253.56 22.15C251.593 22.15 250.443 23.1 250.11 25H256.71ZM287.721 11.8C287.121 11.7333 286.704 11.7 286.471 11.7C285.637 11.7 285.004 11.8667 284.571 12.2C284.137 12.5 283.837 13.0333 283.671 13.8H287.721V23.05H283.571V42H272.471V23.05H269.471V13.8H272.471C272.537 10.1333 273.687 7.3 275.921 5.3C278.187 3.26667 281.354 2.25 285.421 2.25C285.887 2.25 286.654 2.28333 287.721 2.35V11.8ZM306.959 11.8C306.359 11.7333 305.942 11.7 305.709 11.7C304.876 11.7 304.242 11.8667 303.809 12.2C303.376 12.5 303.076 13.0333 302.909 13.8H306.959V23.05H302.809V42H291.709V23.05H288.709V13.8H291.709C291.776 10.1333 292.926 7.3 295.159 5.3C297.426 3.26667 300.592 2.25 304.659 2.25C305.126 2.25 305.892 2.28333 306.959 2.35V11.8ZM315.547 11.55C313.614 11.55 312.064 11.0333 310.897 10C309.731 8.96667 309.147 7.66667 309.147 6.1C309.147 4.5 309.731 3.18333 310.897 2.15C312.064 1.08333 313.614 0.549997 315.547 0.549997C317.447 0.549997 318.981 1.08333 320.147 2.15C321.314 3.18333 321.897 4.5 321.897 6.1C321.897 7.66667 321.314 8.96667 320.147 10C318.981 11.0333 317.447 11.55 315.547 11.55ZM321.047 13.8V42H309.947V13.8H321.047ZM324.561 27.9C324.561 24.9667 325.161 22.4167 326.361 20.25C327.594 18.05 329.294 16.3667 331.461 15.2C333.661 14.0333 336.161 13.45 338.961 13.45C342.627 13.45 345.711 14.4833 348.211 16.55C350.744 18.6167 352.344 21.4833 353.011 25.15H341.261C340.827 23.6833 339.977 22.95 338.711 22.95C337.811 22.95 337.094 23.3667 336.561 24.2C336.061 25.0333 335.811 26.2667 335.811 27.9C335.811 29.5333 336.061 30.7667 336.561 31.6C337.094 32.4333 337.811 32.85 338.711 32.85C339.977 32.85 340.827 32.1167 341.261 30.65H353.011C352.344 34.3167 350.744 37.1833 348.211 39.25C345.711 41.3167 342.627 42.35 338.961 42.35C336.161 42.35 333.661 41.7667 331.461 40.6C329.294 39.4333 327.594 37.7667 326.361 35.6C325.161 33.4 324.561 30.8333 324.561 27.9ZM362.129 11.55C360.196 11.55 358.646 11.0333 357.479 10C356.313 8.96667 355.729 7.66667 355.729 6.1C355.729 4.5 356.313 3.18333 357.479 2.15C358.646 1.08333 360.196 0.549997 362.129 0.549997C364.029 0.549997 365.563 1.08333 366.729 2.15C367.896 3.18333 368.479 4.5 368.479 6.1C368.479 7.66667 367.896 8.96667 366.729 10C365.563 11.0333 364.029 11.55 362.129 11.55ZM367.629 13.8V42H356.529V13.8H367.629ZM399.943 27.65C399.943 28.4167 399.893 29.15 399.793 29.85H381.943C382.109 32.2833 383.126 33.5 384.993 33.5C386.193 33.5 387.059 32.95 387.593 31.85H399.343C398.943 33.85 398.093 35.65 396.793 37.25C395.526 38.8167 393.909 40.0667 391.943 41C390.009 41.9 387.876 42.35 385.543 42.35C382.743 42.35 380.243 41.7667 378.043 40.6C375.876 39.4333 374.176 37.7667 372.943 35.6C371.743 33.4 371.143 30.8333 371.143 27.9C371.143 24.9667 371.743 22.4167 372.943 20.25C374.176 18.05 375.876 16.3667 378.043 15.2C380.243 14.0333 382.743 13.45 385.543 13.45C388.343 13.45 390.826 14.0333 392.993 15.2C395.193 16.3333 396.893 17.9667 398.093 20.1C399.326 22.2333 399.943 24.75 399.943 27.65ZM388.693 25C388.693 24.0667 388.393 23.3667 387.793 22.9C387.193 22.4 386.443 22.15 385.543 22.15C383.576 22.15 382.426 23.1 382.093 25H388.693ZM423.203 13.6C426.436 13.6 428.953 14.6833 430.753 16.85C432.586 19.0167 433.503 21.95 433.503 25.65V42H422.453V27.05C422.453 25.7167 422.086 24.6667 421.353 23.9C420.653 23.1 419.703 22.7 418.503 22.7C417.27 22.7 416.303 23.1 415.603 23.9C414.903 24.6667 414.553 25.7167 414.553 27.05V42H403.453V13.8H414.553V18.1C415.42 16.7667 416.57 15.6833 418.003 14.85C419.47 14.0167 421.203 13.6 423.203 13.6ZM436.816 27.9C436.816 24.9667 437.416 22.4167 438.616 20.25C439.85 18.05 441.55 16.3667 443.716 15.2C445.916 14.0333 448.416 13.45 451.216 13.45C454.883 13.45 457.966 14.4833 460.466 16.55C463 18.6167 464.6 21.4833 465.266 25.15H453.516C453.083 23.6833 452.233 22.95 450.966 22.95C450.066 22.95 449.35 23.3667 448.816 24.2C448.316 25.0333 448.066 26.2667 448.066 27.9C448.066 29.5333 448.316 30.7667 448.816 31.6C449.35 32.4333 450.066 32.85 450.966 32.85C452.233 32.85 453.083 32.1167 453.516 30.65H465.266C464.6 34.3167 463 37.1833 460.466 39.25C457.966 41.3167 454.883 42.35 451.216 42.35C448.416 42.35 445.916 41.7667 443.716 40.6C441.55 39.4333 439.85 37.7667 438.616 35.6C437.416 33.4 436.816 30.8333 436.816 27.9ZM500.635 13.8L482.585 55.5H470.435L477.535 40.6L465.785 13.8H478.135L483.435 28.1L488.385 13.8H500.635ZM508.123 42.4C506.19 42.4 504.64 41.8833 503.473 40.85C502.306 39.8167 501.723 38.5167 501.723 36.95C501.723 35.35 502.306 34.0333 503.473 33C504.64 31.9333 506.19 31.4 508.123 31.4C510.023 31.4 511.556 31.9333 512.723 33C513.89 34.0333 514.473 35.35 514.473 36.95C514.473 38.5167 513.89 39.8167 512.723 40.85C511.556 41.8833 510.023 42.4 508.123 42.4Z" fill="white"/>
</svg>
