<svg width="514" height="56" viewBox="0 0 514 56" fill="none" xmlns="http://www.w3.org/2000/svg">
<path d="M7.1 11.55C5.16667 11.55 3.61667 11.0333 2.45 10C1.28333 8.96667 0.7 7.66667 0.7 6.1C0.7 4.5 1.28333 3.18333 2.45 2.15C3.61667 1.08333 5.16667 0.549997 7.1 0.549997C9 0.549997 10.5333 1.08333 11.7 2.15C12.8667 3.18333 13.45 4.5 13.45 6.1C13.45 7.66667 12.8667 8.96667 11.7 10C10.5333 11.0333 9 11.55 7.1 11.55ZM12.6 13.8V42H1.5V13.8H12.6ZM55.2633 13.6C58.8633 13.6 61.6466 14.6833 63.6133 16.85C65.6133 19.0167 66.6133 21.95 66.6133 25.65V42H55.5633V27.05C55.5633 25.85 55.1966 24.9167 54.4633 24.25C53.7633 23.55 52.8133 23.2 51.6133 23.2C50.3799 23.2 49.4133 23.55 48.7133 24.25C48.0133 24.9167 47.6633 25.85 47.6633 27.05V42H36.6133V27.05C36.6133 25.85 36.2466 24.9167 35.5133 24.25C34.8133 23.55 33.8633 23.2 32.6633 23.2C31.4299 23.2 30.4633 23.55 29.7633 24.25C29.0633 24.9167 28.7133 25.85 28.7133 27.05V42H17.6133V13.8H28.7133V17.6C29.5133 16.4 30.5966 15.4333 31.9633 14.7C33.3633 13.9667 34.9966 13.6 36.8633 13.6C38.8966 13.6 40.6966 14.05 42.2633 14.95C43.8299 15.8167 45.0799 17.05 46.0133 18.65C47.0466 17.1833 48.3633 15.9833 49.9633 15.05C51.5633 14.0833 53.33 13.6 55.2633 13.6ZM82.5219 17.65C83.2219 16.35 84.2219 15.3333 85.5219 14.6C86.8552 13.8333 88.4385 13.45 90.2719 13.45C92.4719 13.45 94.4552 14.0333 96.2219 15.2C97.9885 16.3333 99.3719 18 100.372 20.2C101.405 22.3667 101.922 24.9333 101.922 27.9C101.922 30.8667 101.405 33.45 100.372 35.65C99.3719 37.8167 97.9885 39.4833 96.2219 40.65C94.4552 41.7833 92.4719 42.35 90.2719 42.35C88.4385 42.35 86.8552 41.9833 85.5219 41.25C84.2219 40.4833 83.2219 39.45 82.5219 38.15V55.5H71.4219V13.8H82.5219V17.65ZM90.6719 27.9C90.6719 26.4 90.2885 25.2333 89.5219 24.4C88.7552 23.5667 87.7719 23.15 86.5719 23.15C85.3719 23.15 84.3885 23.5667 83.6219 24.4C82.8552 25.2333 82.4719 26.4 82.4719 27.9C82.4719 29.4 82.8552 30.5667 83.6219 31.4C84.3885 32.2333 85.3719 32.65 86.5719 32.65C87.7719 32.65 88.7552 32.2333 89.5219 31.4C90.2885 30.5667 90.6719 29.4 90.6719 27.9ZM116.506 19C117.64 17.3667 119.023 16.0667 120.656 15.1C122.29 14.1 123.99 13.6 125.756 13.6V25.45H122.606C120.506 25.45 118.956 25.8167 117.956 26.55C116.99 27.2833 116.506 28.5833 116.506 30.45V42H105.406V13.8H116.506V19ZM142.146 42.35C139.313 42.35 136.763 41.7667 134.496 40.6C132.229 39.4333 130.446 37.7667 129.146 35.6C127.879 33.4 127.246 30.8333 127.246 27.9C127.246 24.9667 127.879 22.4167 129.146 20.25C130.446 18.05 132.229 16.3667 134.496 15.2C136.763 14.0333 139.313 13.45 142.146 13.45C144.979 13.45 147.529 14.0333 149.796 15.2C152.063 16.3667 153.829 18.05 155.096 20.25C156.396 22.4167 157.046 24.9667 157.046 27.9C157.046 30.8333 156.396 33.4 155.096 35.6C153.829 37.7667 152.063 39.4333 149.796 40.6C147.529 41.7667 144.979 42.35 142.146 42.35ZM142.146 32.75C143.179 32.75 144.046 32.35 144.746 31.55C145.446 30.7167 145.796 29.5 145.796 27.9C145.796 26.3 145.446 25.1 144.746 24.3C144.046 23.4667 143.179 23.05 142.146 23.05C141.113 23.05 140.246 23.4667 139.546 24.3C138.846 25.1 138.496 26.3 138.496 27.9C138.496 29.5 138.829 30.7167 139.496 31.55C140.196 32.35 141.079 32.75 142.146 32.75ZM174.833 31.45L179.333 13.8H191.133L181.733 42H167.883L158.483 13.8H170.283L174.833 31.45ZM221.378 27.65C221.378 28.4167 221.328 29.15 221.228 29.85H203.378C203.545 32.2833 204.561 33.5 206.428 33.5C207.628 33.5 208.495 32.95 209.028 31.85H220.778C220.378 33.85 219.528 35.65 218.228 37.25C216.961 38.8167 215.345 40.0667 213.378 41C211.445 41.9 209.311 42.35 206.978 42.35C204.178 42.35 201.678 41.7667 199.478 40.6C197.311 39.4333 195.611 37.7667 194.378 35.6C193.178 33.4 192.578 30.8333 192.578 27.9C192.578 24.9667 193.178 22.4167 194.378 20.25C195.611 18.05 197.311 16.3667 199.478 15.2C201.678 14.0333 204.178 13.45 206.978 13.45C209.778 13.45 212.261 14.0333 214.428 15.2C216.628 16.3333 218.328 17.9667 219.528 20.1C220.761 22.2333 221.378 24.75 221.378 27.65ZM210.128 25C210.128 24.0667 209.828 23.3667 209.228 22.9C208.628 22.4 207.878 22.15 206.978 22.15C205.011 22.15 203.861 23.1 203.528 25H210.128ZM244.485 17.65C245.185 16.35 246.185 15.3333 247.485 14.6C248.818 13.8333 250.401 13.45 252.235 13.45C254.435 13.45 256.418 14.0333 258.185 15.2C259.951 16.3333 261.335 18 262.335 20.2C263.368 22.3667 263.885 24.9333 263.885 27.9C263.885 30.8667 263.368 33.45 262.335 35.65C261.335 37.8167 259.951 39.4833 258.185 40.65C256.418 41.7833 254.435 42.35 252.235 42.35C250.401 42.35 248.818 41.9833 247.485 41.25C246.185 40.4833 245.185 39.45 244.485 38.15V55.5H233.385V13.8H244.485V17.65ZM252.635 27.9C252.635 26.4 252.251 25.2333 251.485 24.4C250.718 23.5667 249.735 23.15 248.535 23.15C247.335 23.15 246.351 23.5667 245.585 24.4C244.818 25.2333 244.435 26.4 244.435 27.9C244.435 29.4 244.818 30.5667 245.585 31.4C246.351 32.2333 247.335 32.65 248.535 32.65C249.735 32.65 250.718 32.2333 251.485 31.4C252.251 30.5667 252.635 29.4 252.635 27.9ZM278.469 19C279.602 17.3667 280.986 16.0667 282.619 15.1C284.252 14.1 285.952 13.6 287.719 13.6V25.45H284.569C282.469 25.45 280.919 25.8167 279.919 26.55C278.952 27.2833 278.469 28.5833 278.469 30.45V42H267.369V13.8H278.469V19ZM304.109 42.35C301.276 42.35 298.726 41.7667 296.459 40.6C294.192 39.4333 292.409 37.7667 291.109 35.6C289.842 33.4 289.209 30.8333 289.209 27.9C289.209 24.9667 289.842 22.4167 291.109 20.25C292.409 18.05 294.192 16.3667 296.459 15.2C298.726 14.0333 301.276 13.45 304.109 13.45C306.942 13.45 309.492 14.0333 311.759 15.2C314.026 16.3667 315.792 18.05 317.059 20.25C318.359 22.4167 319.009 24.9667 319.009 27.9C319.009 30.8333 318.359 33.4 317.059 35.6C315.792 37.7667 314.026 39.4333 311.759 40.6C309.492 41.7667 306.942 42.35 304.109 42.35ZM304.109 32.75C305.142 32.75 306.009 32.35 306.709 31.55C307.409 30.7167 307.759 29.5 307.759 27.9C307.759 26.3 307.409 25.1 306.709 24.3C306.009 23.4667 305.142 23.05 304.109 23.05C303.076 23.05 302.209 23.4667 301.509 24.3C300.809 25.1 300.459 26.3 300.459 27.9C300.459 29.5 300.792 30.7167 301.459 31.55C302.159 32.35 303.042 32.75 304.109 32.75ZM320.996 27.9C320.996 24.9667 321.596 22.4167 322.796 20.25C324.029 18.05 325.729 16.3667 327.896 15.2C330.096 14.0333 332.596 13.45 335.396 13.45C339.063 13.45 342.146 14.4833 344.646 16.55C347.179 18.6167 348.779 21.4833 349.446 25.15H337.696C337.263 23.6833 336.413 22.95 335.146 22.95C334.246 22.95 333.529 23.3667 332.996 24.2C332.496 25.0333 332.246 26.2667 332.246 27.9C332.246 29.5333 332.496 30.7667 332.996 31.6C333.529 32.4333 334.246 32.85 335.146 32.85C336.413 32.85 337.263 32.1167 337.696 30.65H349.446C348.779 34.3167 347.179 37.1833 344.646 39.25C342.146 41.3167 339.063 42.35 335.396 42.35C332.596 42.35 330.096 41.7667 327.896 40.6C325.729 39.4333 324.029 37.7667 322.796 35.6C321.596 33.4 320.996 30.8333 320.996 27.9ZM380.265 27.65C380.265 28.4167 380.215 29.15 380.115 29.85H362.265C362.432 32.2833 363.448 33.5 365.315 33.5C366.515 33.5 367.382 32.95 367.915 31.85H379.665C379.265 33.85 378.415 35.65 377.115 37.25C375.848 38.8167 374.232 40.0667 372.265 41C370.332 41.9 368.198 42.35 365.865 42.35C363.065 42.35 360.565 41.7667 358.365 40.6C356.198 39.4333 354.498 37.7667 353.265 35.6C352.065 33.4 351.465 30.8333 351.465 27.9C351.465 24.9667 352.065 22.4167 353.265 20.25C354.498 18.05 356.198 16.3667 358.365 15.2C360.565 14.0333 363.065 13.45 365.865 13.45C368.665 13.45 371.148 14.0333 373.315 15.2C375.515 16.3333 377.215 17.9667 378.415 20.1C379.648 22.2333 380.265 24.75 380.265 27.65ZM369.015 25C369.015 24.0667 368.715 23.3667 368.115 22.9C367.515 22.4 366.765 22.15 365.865 22.15C363.898 22.15 362.748 23.1 362.415 25H369.015ZM396.325 42.35C393.659 42.35 391.292 41.9167 389.225 41.05C387.192 40.1833 385.575 38.9833 384.375 37.45C383.175 35.9167 382.492 34.1833 382.325 32.25H392.975C393.109 33.0833 393.459 33.7 394.025 34.1C394.625 34.5 395.375 34.7 396.275 34.7C396.842 34.7 397.292 34.5833 397.625 34.35C397.959 34.0833 398.125 33.7667 398.125 33.4C398.125 32.7667 397.775 32.3167 397.075 32.05C396.375 31.7833 395.192 31.4833 393.525 31.15C391.492 30.75 389.809 30.3167 388.475 29.85C387.175 29.3833 386.025 28.5833 385.025 27.45C384.059 26.3167 383.575 24.75 383.575 22.75C383.575 21.0167 384.025 19.45 384.925 18.05C385.859 16.6167 387.225 15.5 389.025 14.7C390.825 13.8667 393.009 13.45 395.575 13.45C399.375 13.45 402.342 14.3833 404.475 16.25C406.642 18.1167 407.942 20.55 408.375 23.55H398.525C398.359 22.7833 398.009 22.2 397.475 21.8C396.942 21.3667 396.225 21.15 395.325 21.15C394.759 21.15 394.325 21.2667 394.025 21.5C393.725 21.7 393.575 22.0167 393.575 22.45C393.575 23.0167 393.925 23.45 394.625 23.75C395.325 24.0167 396.442 24.3 397.975 24.6C400.009 25 401.725 25.45 403.125 25.95C404.525 26.45 405.742 27.3167 406.775 28.55C407.809 29.75 408.325 31.4167 408.325 33.55C408.325 35.2167 407.842 36.7167 406.875 38.05C405.909 39.3833 404.509 40.4333 402.675 41.2C400.875 41.9667 398.759 42.35 396.325 42.35ZM425.28 42.35C422.614 42.35 420.247 41.9167 418.18 41.05C416.147 40.1833 414.53 38.9833 413.33 37.45C412.13 35.9167 411.447 34.1833 411.28 32.25H421.93C422.064 33.0833 422.414 33.7 422.98 34.1C423.58 34.5 424.33 34.7 425.23 34.7C425.797 34.7 426.247 34.5833 426.58 34.35C426.914 34.0833 427.08 33.7667 427.08 33.4C427.08 32.7667 426.73 32.3167 426.03 32.05C425.33 31.7833 424.147 31.4833 422.48 31.15C420.447 30.75 418.764 30.3167 417.43 29.85C416.13 29.3833 414.98 28.5833 413.98 27.45C413.014 26.3167 412.53 24.75 412.53 22.75C412.53 21.0167 412.98 19.45 413.88 18.05C414.814 16.6167 416.18 15.5 417.98 14.7C419.78 13.8667 421.964 13.45 424.53 13.45C428.33 13.45 431.297 14.3833 433.43 16.25C435.597 18.1167 436.897 20.55 437.33 23.55H427.48C427.314 22.7833 426.964 22.2 426.43 21.8C425.897 21.3667 425.18 21.15 424.28 21.15C423.714 21.15 423.28 21.2667 422.98 21.5C422.68 21.7 422.53 22.0167 422.53 22.45C422.53 23.0167 422.88 23.45 423.58 23.75C424.28 24.0167 425.397 24.3 426.93 24.6C428.964 25 430.68 25.45 432.08 25.95C433.48 26.45 434.697 27.3167 435.73 28.55C436.764 29.75 437.28 31.4167 437.28 33.55C437.28 35.2167 436.797 36.7167 435.83 38.05C434.864 39.3833 433.464 40.4333 431.63 41.2C429.83 41.9667 427.714 42.35 425.28 42.35ZM468.986 27.65C468.986 28.4167 468.936 29.15 468.836 29.85H450.986C451.152 32.2833 452.169 33.5 454.036 33.5C455.236 33.5 456.102 32.95 456.636 31.85H468.386C467.986 33.85 467.136 35.65 465.836 37.25C464.569 38.8167 462.952 40.0667 460.986 41C459.052 41.9 456.919 42.35 454.586 42.35C451.786 42.35 449.286 41.7667 447.086 40.6C444.919 39.4333 443.219 37.7667 441.986 35.6C440.786 33.4 440.186 30.8333 440.186 27.9C440.186 24.9667 440.786 22.4167 441.986 20.25C443.219 18.05 444.919 16.3667 447.086 15.2C449.286 14.0333 451.786 13.45 454.586 13.45C457.386 13.45 459.869 14.0333 462.036 15.2C464.236 16.3333 465.936 17.9667 467.136 20.1C468.369 22.2333 468.986 24.75 468.986 27.65ZM457.736 25C457.736 24.0667 457.436 23.3667 456.836 22.9C456.236 22.4 455.486 22.15 454.586 22.15C452.619 22.15 451.469 23.1 451.136 25H457.736ZM485.046 42.35C482.379 42.35 480.013 41.9167 477.946 41.05C475.913 40.1833 474.296 38.9833 473.096 37.45C471.896 35.9167 471.213 34.1833 471.046 32.25H481.696C481.829 33.0833 482.179 33.7 482.746 34.1C483.346 34.5 484.096 34.7 484.996 34.7C485.563 34.7 486.013 34.5833 486.346 34.35C486.679 34.0833 486.846 33.7667 486.846 33.4C486.846 32.7667 486.496 32.3167 485.796 32.05C485.096 31.7833 483.913 31.4833 482.246 31.15C480.213 30.75 478.529 30.3167 477.196 29.85C475.896 29.3833 474.746 28.5833 473.746 27.45C472.779 26.3167 472.296 24.75 472.296 22.75C472.296 21.0167 472.746 19.45 473.646 18.05C474.579 16.6167 475.946 15.5 477.746 14.7C479.546 13.8667 481.729 13.45 484.296 13.45C488.096 13.45 491.063 14.3833 493.196 16.25C495.363 18.1167 496.663 20.55 497.096 23.55H487.246C487.079 22.7833 486.729 22.2 486.196 21.8C485.663 21.3667 484.946 21.15 484.046 21.15C483.479 21.15 483.046 21.2667 482.746 21.5C482.446 21.7 482.296 22.0167 482.296 22.45C482.296 23.0167 482.646 23.45 483.346 23.75C484.046 24.0167 485.163 24.3 486.696 24.6C488.729 25 490.446 25.45 491.846 25.95C493.246 26.45 494.463 27.3167 495.496 28.55C496.529 29.75 497.046 31.4167 497.046 33.55C497.046 35.2167 496.563 36.7167 495.596 38.05C494.629 39.3833 493.229 40.4333 491.396 41.2C489.596 41.9667 487.479 42.35 485.046 42.35ZM506.951 42.4C505.018 42.4 503.468 41.8833 502.301 40.85C501.135 39.8167 500.551 38.5167 500.551 36.95C500.551 35.35 501.135 34.0333 502.301 33C503.468 31.9333 505.018 31.4 506.951 31.4C508.851 31.4 510.385 31.9333 511.551 33C512.718 34.0333 513.301 35.35 513.301 36.95C513.301 38.5167 512.718 39.8167 511.551 40.85C510.385 41.8833 508.851 42.4 506.951 42.4Z" fill="white"/>
</svg>
