<svg width="940" height="52" viewBox="0 0 940 52" fill="none" xmlns="http://www.w3.org/2000/svg">
<path d="M19.06 2.06L15.02 16H12.98L9.74 4.78L6.38 16L4.36 16.02L0.46 2.06H2.4L5.44 13.88L8.8 2.06H10.84L14.04 13.84L17.1 2.06H19.06ZM32.5517 10.1C32.5517 10.4467 32.5317 10.8133 32.4917 11.2H23.7317C23.7984 12.28 24.1651 13.1267 24.8317 13.74C25.5117 14.34 26.3317 14.64 27.2917 14.64C28.0784 14.64 28.7317 14.46 29.2517 14.1C29.7851 13.7267 30.1584 13.2333 30.3717 12.62H32.3317C32.0384 13.6733 31.4517 14.5333 30.5717 15.2C29.6917 15.8533 28.5984 16.18 27.2917 16.18C26.2517 16.18 25.3184 15.9467 24.4917 15.48C23.6784 15.0133 23.0384 14.3533 22.5717 13.5C22.1051 12.6333 21.8717 11.6333 21.8717 10.5C21.8717 9.36667 22.0984 8.37333 22.5517 7.52C23.0051 6.66667 23.6384 6.01333 24.4517 5.56C25.2784 5.09333 26.2251 4.86 27.2917 4.86C28.3317 4.86 29.2517 5.08667 30.0517 5.54C30.8517 5.99333 31.4651 6.62 31.8917 7.42C32.3317 8.20667 32.5517 9.1 32.5517 10.1ZM30.6717 9.72C30.6717 9.02667 30.5184 8.43333 30.2117 7.94C29.9051 7.43333 29.4851 7.05333 28.9517 6.8C28.4317 6.53333 27.8517 6.4 27.2117 6.4C26.2917 6.4 25.5051 6.69333 24.8517 7.28C24.2117 7.86667 23.8451 8.68 23.7517 9.72H30.6717ZM45.1061 7.06C45.4661 6.43333 45.9994 5.91333 46.7061 5.5C47.4261 5.07333 48.2594 4.86 49.2061 4.86C50.1794 4.86 51.0594 5.09333 51.8461 5.56C52.6461 6.02667 53.2728 6.68667 53.7261 7.54C54.1794 8.38 54.4061 9.36 54.4061 10.48C54.4061 11.5867 54.1794 12.5733 53.7261 13.44C53.2728 14.3067 52.6461 14.98 51.8461 15.46C51.0594 15.94 50.1794 16.18 49.2061 16.18C48.2728 16.18 47.4461 15.9733 46.7261 15.56C46.0194 15.1333 45.4794 14.6067 45.1061 13.98V21.2H43.2861V5.04H45.1061V7.06ZM52.5461 10.48C52.5461 9.65333 52.3794 8.93333 52.0461 8.32C51.7128 7.70667 51.2594 7.24 50.6861 6.92C50.1261 6.6 49.5061 6.44 48.8261 6.44C48.1594 6.44 47.5394 6.60667 46.9661 6.94C46.4061 7.26 45.9528 7.73333 45.6061 8.36C45.2728 8.97333 45.1061 9.68667 45.1061 10.5C45.1061 11.3267 45.2728 12.0533 45.6061 12.68C45.9528 13.2933 46.4061 13.7667 46.9661 14.1C47.5394 14.42 48.1594 14.58 48.8261 14.58C49.5061 14.58 50.1261 14.42 50.6861 14.1C51.2594 13.7667 51.7128 13.2933 52.0461 12.68C52.3794 12.0533 52.5461 11.32 52.5461 10.48ZM60.1217 6.82C60.4417 6.19333 60.8951 5.70667 61.4817 5.36C62.0817 5.01333 62.8084 4.84 63.6617 4.84V6.72H63.1817C61.1417 6.72 60.1217 7.82667 60.1217 10.04V16H58.3017V5.04H60.1217V6.82ZM72.0427 16.18C71.016 16.18 70.0827 15.9467 69.2427 15.48C68.416 15.0133 67.7627 14.3533 67.2827 13.5C66.816 12.6333 66.5827 11.6333 66.5827 10.5C66.5827 9.38 66.8227 8.39333 67.3027 7.54C67.796 6.67333 68.4627 6.01333 69.3027 5.56C70.1427 5.09333 71.0827 4.86 72.1227 4.86C73.1627 4.86 74.1027 5.09333 74.9427 5.56C75.7827 6.01333 76.4427 6.66667 76.9227 7.52C77.416 8.37333 77.6627 9.36667 77.6627 10.5C77.6627 11.6333 77.4093 12.6333 76.9027 13.5C76.4093 14.3533 75.736 15.0133 74.8827 15.48C74.0293 15.9467 73.0827 16.18 72.0427 16.18ZM72.0427 14.58C72.696 14.58 73.3093 14.4267 73.8827 14.12C74.456 13.8133 74.916 13.3533 75.2627 12.74C75.6227 12.1267 75.8027 11.38 75.8027 10.5C75.8027 9.62 75.6293 8.87333 75.2827 8.26C74.936 7.64667 74.4827 7.19333 73.9227 6.9C73.3627 6.59333 72.756 6.44 72.1027 6.44C71.436 6.44 70.8227 6.59333 70.2627 6.9C69.716 7.19333 69.276 7.64667 68.9427 8.26C68.6093 8.87333 68.4427 9.62 68.4427 10.5C68.4427 11.3933 68.6027 12.1467 68.9227 12.76C69.256 13.3733 69.696 13.8333 70.2427 14.14C70.7893 14.4333 71.3893 14.58 72.0427 14.58ZM85.6356 14.32L89.0356 5.04H90.9756L86.6756 16H84.5556L80.2556 5.04H82.2156L85.6356 14.32ZM95.2066 3.26C94.8599 3.26 94.5666 3.14 94.3266 2.9C94.0866 2.66 93.9666 2.36667 93.9666 2.02C93.9666 1.67333 94.0866 1.38 94.3266 1.14C94.5666 0.899999 94.8599 0.779999 95.2066 0.779999C95.5399 0.779999 95.8199 0.899999 96.0466 1.14C96.2866 1.38 96.4066 1.67333 96.4066 2.02C96.4066 2.36667 96.2866 2.66 96.0466 2.9C95.8199 3.14 95.5399 3.26 95.2066 3.26ZM96.0866 5.04V16H94.2666V5.04H96.0866ZM100.008 10.48C100.008 9.36 100.235 8.38 100.688 7.54C101.142 6.68667 101.762 6.02667 102.548 5.56C103.348 5.09333 104.242 4.86 105.228 4.86C106.082 4.86 106.875 5.06 107.608 5.46C108.342 5.84667 108.902 6.36 109.288 7V1.2H111.128V16H109.288V13.94C108.928 14.5933 108.395 15.1333 107.688 15.56C106.982 15.9733 106.155 16.18 105.208 16.18C104.235 16.18 103.348 15.94 102.548 15.46C101.762 14.98 101.142 14.3067 100.688 13.44C100.235 12.5733 100.008 11.5867 100.008 10.48ZM109.288 10.5C109.288 9.67333 109.122 8.95333 108.788 8.34C108.455 7.72667 108.002 7.26 107.428 6.94C106.868 6.60667 106.248 6.44 105.568 6.44C104.888 6.44 104.268 6.6 103.708 6.92C103.148 7.24 102.702 7.70667 102.368 8.32C102.035 8.93333 101.868 9.65333 101.868 10.48C101.868 11.32 102.035 12.0533 102.368 12.68C102.702 13.2933 103.148 13.7667 103.708 14.1C104.268 14.42 104.888 14.58 105.568 14.58C106.248 14.58 106.868 14.42 107.428 14.1C108.002 13.7667 108.455 13.2933 108.788 12.68C109.122 12.0533 109.288 11.3267 109.288 10.5ZM125.704 10.1C125.704 10.4467 125.684 10.8133 125.644 11.2H116.884C116.951 12.28 117.317 13.1267 117.984 13.74C118.664 14.34 119.484 14.64 120.444 14.64C121.231 14.64 121.884 14.46 122.404 14.1C122.937 13.7267 123.311 13.2333 123.524 12.62H125.484C125.191 13.6733 124.604 14.5333 123.724 15.2C122.844 15.8533 121.751 16.18 120.444 16.18C119.404 16.18 118.471 15.9467 117.644 15.48C116.831 15.0133 116.191 14.3533 115.724 13.5C115.257 12.6333 115.024 11.6333 115.024 10.5C115.024 9.36667 115.251 8.37333 115.704 7.52C116.157 6.66667 116.791 6.01333 117.604 5.56C118.431 5.09333 119.377 4.86 120.444 4.86C121.484 4.86 122.404 5.08667 123.204 5.54C124.004 5.99333 124.617 6.62 125.044 7.42C125.484 8.20667 125.704 9.1 125.704 10.1ZM123.824 9.72C123.824 9.02667 123.671 8.43333 123.364 7.94C123.057 7.43333 122.637 7.05333 122.104 6.8C121.584 6.53333 121.004 6.4 120.364 6.4C119.444 6.4 118.657 6.69333 118.004 7.28C117.364 7.86667 116.997 8.68 116.904 9.72H123.824ZM135.758 10.48C135.758 9.36 135.985 8.38 136.438 7.54C136.892 6.68667 137.512 6.02667 138.298 5.56C139.098 5.09333 139.985 4.86 140.958 4.86C141.918 4.86 142.752 5.06667 143.458 5.48C144.165 5.89333 144.692 6.41333 145.038 7.04V5.04H146.878V16H145.038V13.96C144.678 14.6 144.138 15.1333 143.418 15.56C142.712 15.9733 141.885 16.18 140.938 16.18C139.965 16.18 139.085 15.94 138.298 15.46C137.512 14.98 136.892 14.3067 136.438 13.44C135.985 12.5733 135.758 11.5867 135.758 10.48ZM145.038 10.5C145.038 9.67333 144.872 8.95333 144.538 8.34C144.205 7.72667 143.752 7.26 143.178 6.94C142.618 6.60667 141.998 6.44 141.318 6.44C140.638 6.44 140.018 6.6 139.458 6.92C138.898 7.24 138.452 7.70667 138.118 8.32C137.785 8.93333 137.618 9.65333 137.618 10.48C137.618 11.32 137.785 12.0533 138.118 12.68C138.452 13.2933 138.898 13.7667 139.458 14.1C140.018 14.42 140.638 14.58 141.318 14.58C141.998 14.58 142.618 14.42 143.178 14.1C143.752 13.7667 144.205 13.2933 144.538 12.68C144.872 12.0533 145.038 11.3267 145.038 10.5ZM172.886 5.04L169.466 16H167.586L164.946 7.3L162.306 16H160.426L156.986 5.04H158.846L161.366 14.24L164.086 5.04H165.946L168.606 14.26L171.086 5.04H172.886ZM177.132 3.26C176.786 3.26 176.492 3.14 176.252 2.9C176.012 2.66 175.892 2.36667 175.892 2.02C175.892 1.67333 176.012 1.38 176.252 1.14C176.492 0.899999 176.786 0.779999 177.132 0.779999C177.466 0.779999 177.746 0.899999 177.972 1.14C178.212 1.38 178.332 1.67333 178.332 2.02C178.332 2.36667 178.212 2.66 177.972 2.9C177.746 3.14 177.466 3.26 177.132 3.26ZM178.012 5.04V16H176.192V5.04H178.012ZM181.934 10.48C181.934 9.36 182.161 8.38 182.614 7.54C183.068 6.68667 183.688 6.02667 184.474 5.56C185.274 5.09333 186.168 4.86 187.154 4.86C188.008 4.86 188.801 5.06 189.534 5.46C190.268 5.84667 190.828 6.36 191.214 7V1.2H193.054V16H191.214V13.94C190.854 14.5933 190.321 15.1333 189.614 15.56C188.908 15.9733 188.081 16.18 187.134 16.18C186.161 16.18 185.274 15.94 184.474 15.46C183.688 14.98 183.068 14.3067 182.614 13.44C182.161 12.5733 181.934 11.5867 181.934 10.48ZM191.214 10.5C191.214 9.67333 191.048 8.95333 190.714 8.34C190.381 7.72667 189.928 7.26 189.354 6.94C188.794 6.60667 188.174 6.44 187.494 6.44C186.814 6.44 186.194 6.6 185.634 6.92C185.074 7.24 184.628 7.70667 184.294 8.32C183.961 8.93333 183.794 9.65333 183.794 10.48C183.794 11.32 183.961 12.0533 184.294 12.68C184.628 13.2933 185.074 13.7667 185.634 14.1C186.194 14.42 186.814 14.58 187.494 14.58C188.174 14.58 188.794 14.42 189.354 14.1C189.928 13.7667 190.381 13.2933 190.714 12.68C191.048 12.0533 191.214 11.3267 191.214 10.5ZM207.63 10.1C207.63 10.4467 207.61 10.8133 207.57 11.2H198.81C198.877 12.28 199.243 13.1267 199.91 13.74C200.59 14.34 201.41 14.64 202.37 14.64C203.157 14.64 203.81 14.46 204.33 14.1C204.863 13.7267 205.237 13.2333 205.45 12.62H207.41C207.117 13.6733 206.53 14.5333 205.65 15.2C204.77 15.8533 203.677 16.18 202.37 16.18C201.33 16.18 200.397 15.9467 199.57 15.48C198.757 15.0133 198.117 14.3533 197.65 13.5C197.183 12.6333 196.95 11.6333 196.95 10.5C196.95 9.36667 197.177 8.37333 197.63 7.52C198.083 6.66667 198.717 6.01333 199.53 5.56C200.357 5.09333 201.303 4.86 202.37 4.86C203.41 4.86 204.33 5.08667 205.13 5.54C205.93 5.99333 206.543 6.62 206.97 7.42C207.41 8.20667 207.63 9.1 207.63 10.1ZM205.75 9.72C205.75 9.02667 205.597 8.43333 205.29 7.94C204.983 7.43333 204.563 7.05333 204.03 6.8C203.51 6.53333 202.93 6.4 202.29 6.4C201.37 6.4 200.583 6.69333 199.93 7.28C199.29 7.86667 198.923 8.68 198.83 9.72H205.75ZM222.244 16.18C221.404 16.18 220.651 16.04 219.984 15.76C219.318 15.4667 218.791 15.0667 218.404 14.56C218.018 14.04 217.804 13.4467 217.764 12.78H219.644C219.698 13.3267 219.951 13.7733 220.404 14.12C220.871 14.4667 221.478 14.64 222.224 14.64C222.918 14.64 223.464 14.4867 223.864 14.18C224.264 13.8733 224.464 13.4867 224.464 13.02C224.464 12.54 224.251 12.1867 223.824 11.96C223.398 11.72 222.738 11.4867 221.844 11.26C221.031 11.0467 220.364 10.8333 219.844 10.62C219.338 10.3933 218.898 10.0667 218.524 9.64C218.164 9.2 217.984 8.62667 217.984 7.92C217.984 7.36 218.151 6.84667 218.484 6.38C218.818 5.91333 219.291 5.54667 219.904 5.28C220.518 5 221.218 4.86 222.004 4.86C223.218 4.86 224.198 5.16667 224.944 5.78C225.691 6.39333 226.091 7.23333 226.144 8.3H224.324C224.284 7.72667 224.051 7.26667 223.624 6.92C223.211 6.57333 222.651 6.4 221.944 6.4C221.291 6.4 220.771 6.54 220.384 6.82C219.998 7.1 219.804 7.46667 219.804 7.92C219.804 8.28 219.918 8.58 220.144 8.82C220.384 9.04667 220.678 9.23333 221.024 9.38C221.384 9.51333 221.878 9.66667 222.504 9.84C223.291 10.0533 223.931 10.2667 224.424 10.48C224.918 10.68 225.338 10.9867 225.684 11.4C226.044 11.8133 226.231 12.3533 226.244 13.02C226.244 13.62 226.078 14.16 225.744 14.64C225.411 15.12 224.938 15.5 224.324 15.78C223.724 16.0467 223.031 16.18 222.244 16.18ZM232.133 7.06C232.493 6.43333 233.027 5.91333 233.733 5.5C234.453 5.07333 235.287 4.86 236.233 4.86C237.207 4.86 238.087 5.09333 238.873 5.56C239.673 6.02667 240.3 6.68667 240.753 7.54C241.207 8.38 241.433 9.36 241.433 10.48C241.433 11.5867 241.207 12.5733 240.753 13.44C240.3 14.3067 239.673 14.98 238.873 15.46C238.087 15.94 237.207 16.18 236.233 16.18C235.3 16.18 234.473 15.9733 233.753 15.56C233.047 15.1333 232.507 14.6067 232.133 13.98V21.2H230.313V5.04H232.133V7.06ZM239.573 10.48C239.573 9.65333 239.407 8.93333 239.073 8.32C238.74 7.70667 238.287 7.24 237.713 6.92C237.153 6.6 236.533 6.44 235.853 6.44C235.187 6.44 234.567 6.60667 233.993 6.94C233.433 7.26 232.98 7.73333 232.633 8.36C232.3 8.97333 232.133 9.68667 232.133 10.5C232.133 11.3267 232.3 12.0533 232.633 12.68C232.98 13.2933 233.433 13.7667 233.993 14.1C234.567 14.42 235.187 14.58 235.853 14.58C236.533 14.58 237.153 14.42 237.713 14.1C238.287 13.7667 238.74 13.2933 239.073 12.68C239.407 12.0533 239.573 11.32 239.573 10.48ZM255.329 10.1C255.329 10.4467 255.309 10.8133 255.269 11.2H246.509C246.576 12.28 246.942 13.1267 247.609 13.74C248.289 14.34 249.109 14.64 250.069 14.64C250.856 14.64 251.509 14.46 252.029 14.1C252.562 13.7267 252.936 13.2333 253.149 12.62H255.109C254.816 13.6733 254.229 14.5333 253.349 15.2C252.469 15.8533 251.376 16.18 250.069 16.18C249.029 16.18 248.096 15.9467 247.269 15.48C246.456 15.0133 245.816 14.3533 245.349 13.5C244.882 12.6333 244.649 11.6333 244.649 10.5C244.649 9.36667 244.876 8.37333 245.329 7.52C245.782 6.66667 246.416 6.01333 247.229 5.56C248.056 5.09333 249.002 4.86 250.069 4.86C251.109 4.86 252.029 5.08667 252.829 5.54C253.629 5.99333 254.242 6.62 254.669 7.42C255.109 8.20667 255.329 9.1 255.329 10.1ZM253.449 9.72C253.449 9.02667 253.296 8.43333 252.989 7.94C252.682 7.43333 252.262 7.05333 251.729 6.8C251.209 6.53333 250.629 6.4 249.989 6.4C249.069 6.4 248.282 6.69333 247.629 7.28C246.989 7.86667 246.622 8.68 246.529 9.72H253.449ZM258.551 10.5C258.551 9.36667 258.778 8.38 259.231 7.54C259.685 6.68667 260.311 6.02667 261.111 5.56C261.925 5.09333 262.851 4.86 263.891 4.86C265.238 4.86 266.345 5.18667 267.211 5.84C268.091 6.49333 268.671 7.4 268.951 8.56H266.991C266.805 7.89333 266.438 7.36667 265.891 6.98C265.358 6.59333 264.691 6.4 263.891 6.4C262.851 6.4 262.011 6.76 261.371 7.48C260.731 8.18667 260.411 9.19333 260.411 10.5C260.411 11.82 260.731 12.84 261.371 13.56C262.011 14.28 262.851 14.64 263.891 14.64C264.691 14.64 265.358 14.4533 265.891 14.08C266.425 13.7067 266.791 13.1733 266.991 12.48H268.951C268.658 13.6 268.071 14.5 267.191 15.18C266.311 15.8467 265.211 16.18 263.891 16.18C262.851 16.18 261.925 15.9467 261.111 15.48C260.311 15.0133 259.685 14.3533 259.231 13.5C258.778 12.6467 258.551 11.6467 258.551 10.5ZM275.1 6.54V13C275.1 13.5333 275.213 13.9133 275.44 14.14C275.667 14.3533 276.06 14.46 276.62 14.46H277.96V16H276.32C275.307 16 274.547 15.7667 274.04 15.3C273.533 14.8333 273.28 14.0667 273.28 13V6.54H271.86V5.04H273.28V2.28H275.1V5.04H277.96V6.54H275.1ZM283.485 6.82C283.805 6.19333 284.258 5.70667 284.845 5.36C285.445 5.01333 286.172 4.84 287.025 4.84V6.72H286.545C284.505 6.72 283.485 7.82667 283.485 10.04V16H281.665V5.04H283.485V6.82ZM300.346 5.04V16H298.526V14.38C298.179 14.94 297.693 15.38 297.066 15.7C296.453 16.0067 295.773 16.16 295.026 16.16C294.173 16.16 293.406 15.9867 292.726 15.64C292.046 15.28 291.506 14.7467 291.106 14.04C290.719 13.3333 290.526 12.4733 290.526 11.46V5.04H292.326V11.22C292.326 12.3 292.599 13.1333 293.146 13.72C293.693 14.2933 294.439 14.58 295.386 14.58C296.359 14.58 297.126 14.28 297.686 13.68C298.246 13.08 298.526 12.2067 298.526 11.06V5.04H300.346ZM318.099 4.84C318.952 4.84 319.712 5.02 320.379 5.38C321.046 5.72667 321.572 6.25333 321.959 6.96C322.346 7.66667 322.539 8.52667 322.539 9.54V16H320.739V9.8C320.739 8.70667 320.466 7.87333 319.919 7.3C319.386 6.71333 318.659 6.42 317.739 6.42C316.792 6.42 316.039 6.72667 315.479 7.34C314.919 7.94 314.639 8.81333 314.639 9.96V16H312.839V9.8C312.839 8.70667 312.566 7.87333 312.019 7.3C311.486 6.71333 310.759 6.42 309.839 6.42C308.892 6.42 308.139 6.72667 307.579 7.34C307.019 7.94 306.739 8.81333 306.739 9.96V16H304.919V5.04H306.739V6.62C307.099 6.04667 307.579 5.60667 308.179 5.3C308.792 4.99333 309.466 4.84 310.199 4.84C311.119 4.84 311.932 5.04667 312.639 5.46C313.346 5.87333 313.872 6.48 314.219 7.28C314.526 6.50667 315.032 5.90667 315.739 5.48C316.446 5.05333 317.232 4.84 318.099 4.84ZM338.636 16.18C337.61 16.18 336.676 15.9467 335.836 15.48C335.01 15.0133 334.356 14.3533 333.876 13.5C333.41 12.6333 333.176 11.6333 333.176 10.5C333.176 9.38 333.416 8.39333 333.896 7.54C334.39 6.67333 335.056 6.01333 335.896 5.56C336.736 5.09333 337.676 4.86 338.716 4.86C339.756 4.86 340.696 5.09333 341.536 5.56C342.376 6.01333 343.036 6.66667 343.516 7.52C344.01 8.37333 344.256 9.36667 344.256 10.5C344.256 11.6333 344.003 12.6333 343.496 13.5C343.003 14.3533 342.33 15.0133 341.476 15.48C340.623 15.9467 339.676 16.18 338.636 16.18ZM338.636 14.58C339.29 14.58 339.903 14.4267 340.476 14.12C341.05 13.8133 341.51 13.3533 341.856 12.74C342.216 12.1267 342.396 11.38 342.396 10.5C342.396 9.62 342.223 8.87333 341.876 8.26C341.53 7.64667 341.076 7.19333 340.516 6.9C339.956 6.59333 339.35 6.44 338.696 6.44C338.03 6.44 337.416 6.59333 336.856 6.9C336.31 7.19333 335.87 7.64667 335.536 8.26C335.203 8.87333 335.036 9.62 335.036 10.5C335.036 11.3933 335.196 12.1467 335.516 12.76C335.85 13.3733 336.29 13.8333 336.836 14.14C337.383 14.4333 337.983 14.58 338.636 14.58ZM352.609 6.54H350.309V16H348.489V6.54H347.069V5.04H348.489V4.26C348.489 3.03333 348.803 2.14 349.429 1.58C350.069 1.00667 351.089 0.719999 352.489 0.719999V2.24C351.689 2.24 351.123 2.4 350.789 2.72C350.469 3.02667 350.309 3.54 350.309 4.26V5.04H352.609V6.54ZM366.943 16.18C366.103 16.18 365.35 16.04 364.683 15.76C364.017 15.4667 363.49 15.0667 363.103 14.56C362.717 14.04 362.503 13.4467 362.463 12.78H364.343C364.397 13.3267 364.65 13.7733 365.103 14.12C365.57 14.4667 366.177 14.64 366.923 14.64C367.617 14.64 368.163 14.4867 368.563 14.18C368.963 13.8733 369.163 13.4867 369.163 13.02C369.163 12.54 368.95 12.1867 368.523 11.96C368.097 11.72 367.437 11.4867 366.543 11.26C365.73 11.0467 365.063 10.8333 364.543 10.62C364.037 10.3933 363.597 10.0667 363.223 9.64C362.863 9.2 362.683 8.62667 362.683 7.92C362.683 7.36 362.85 6.84667 363.183 6.38C363.517 5.91333 363.99 5.54667 364.603 5.28C365.217 5 365.917 4.86 366.703 4.86C367.917 4.86 368.897 5.16667 369.643 5.78C370.39 6.39333 370.79 7.23333 370.843 8.3H369.023C368.983 7.72667 368.75 7.26667 368.323 6.92C367.91 6.57333 367.35 6.4 366.643 6.4C365.99 6.4 365.47 6.54 365.083 6.82C364.697 7.1 364.503 7.46667 364.503 7.92C364.503 8.28 364.617 8.58 364.843 8.82C365.083 9.04667 365.377 9.23333 365.723 9.38C366.083 9.51333 366.577 9.66667 367.203 9.84C367.99 10.0533 368.63 10.2667 369.123 10.48C369.617 10.68 370.037 10.9867 370.383 11.4C370.743 11.8133 370.93 12.3533 370.943 13.02C370.943 13.62 370.777 14.16 370.443 14.64C370.11 15.12 369.637 15.5 369.023 15.78C368.423 16.0467 367.73 16.18 366.943 16.18ZM385.013 10.1C385.013 10.4467 384.993 10.8133 384.953 11.2H376.193C376.259 12.28 376.626 13.1267 377.293 13.74C377.973 14.34 378.793 14.64 379.753 14.64C380.539 14.64 381.193 14.46 381.713 14.1C382.246 13.7267 382.619 13.2333 382.833 12.62H384.793C384.499 13.6733 383.913 14.5333 383.033 15.2C382.153 15.8533 381.059 16.18 379.753 16.18C378.713 16.18 377.779 15.9467 376.953 15.48C376.139 15.0133 375.499 14.3533 375.033 13.5C374.566 12.6333 374.333 11.6333 374.333 10.5C374.333 9.36667 374.559 8.37333 375.013 7.52C375.466 6.66667 376.099 6.01333 376.913 5.56C377.739 5.09333 378.686 4.86 379.753 4.86C380.793 4.86 381.713 5.08667 382.513 5.54C383.313 5.99333 383.926 6.62 384.353 7.42C384.793 8.20667 385.013 9.1 385.013 10.1ZM383.133 9.72C383.133 9.02667 382.979 8.43333 382.673 7.94C382.366 7.43333 381.946 7.05333 381.413 6.8C380.893 6.53333 380.313 6.4 379.673 6.4C378.753 6.4 377.966 6.69333 377.313 7.28C376.673 7.86667 376.306 8.68 376.213 9.72H383.133ZM390.735 6.82C391.055 6.19333 391.508 5.70667 392.095 5.36C392.695 5.01333 393.422 4.84 394.275 4.84V6.72H393.795C391.755 6.72 390.735 7.82667 390.735 10.04V16H388.915V5.04H390.735V6.82ZM401.956 14.32L405.356 5.04H407.296L402.996 16H400.876L396.576 5.04H398.536L401.956 14.32ZM411.527 3.26C411.18 3.26 410.887 3.14 410.647 2.9C410.407 2.66 410.287 2.36667 410.287 2.02C410.287 1.67333 410.407 1.38 410.647 1.14C410.887 0.899999 411.18 0.779999 411.527 0.779999C411.86 0.779999 412.14 0.899999 412.367 1.14C412.607 1.38 412.727 1.67333 412.727 2.02C412.727 2.36667 412.607 2.66 412.367 2.9C412.14 3.14 411.86 3.26 411.527 3.26ZM412.407 5.04V16H410.587V5.04H412.407ZM416.329 10.5C416.329 9.36667 416.555 8.38 417.009 7.54C417.462 6.68667 418.089 6.02667 418.889 5.56C419.702 5.09333 420.629 4.86 421.669 4.86C423.015 4.86 424.122 5.18667 424.989 5.84C425.869 6.49333 426.449 7.4 426.729 8.56H424.769C424.582 7.89333 424.215 7.36667 423.669 6.98C423.135 6.59333 422.469 6.4 421.669 6.4C420.629 6.4 419.789 6.76 419.149 7.48C418.509 8.18667 418.189 9.19333 418.189 10.5C418.189 11.82 418.509 12.84 419.149 13.56C419.789 14.28 420.629 14.64 421.669 14.64C422.469 14.64 423.135 14.4533 423.669 14.08C424.202 13.7067 424.569 13.1733 424.769 12.48H426.729C426.435 13.6 425.849 14.5 424.969 15.18C424.089 15.8467 422.989 16.18 421.669 16.18C420.629 16.18 419.702 15.9467 418.889 15.48C418.089 15.0133 417.462 14.3533 417.009 13.5C416.555 12.6467 416.329 11.6467 416.329 10.5ZM440.657 10.1C440.657 10.4467 440.637 10.8133 440.597 11.2H431.837C431.904 12.28 432.271 13.1267 432.937 13.74C433.617 14.34 434.437 14.64 435.397 14.64C436.184 14.64 436.837 14.46 437.357 14.1C437.891 13.7267 438.264 13.2333 438.477 12.62H440.437C440.144 13.6733 439.557 14.5333 438.677 15.2C437.797 15.8533 436.704 16.18 435.397 16.18C434.357 16.18 433.424 15.9467 432.597 15.48C431.784 15.0133 431.144 14.3533 430.677 13.5C430.211 12.6333 429.977 11.6333 429.977 10.5C429.977 9.36667 430.204 8.37333 430.657 7.52C431.111 6.66667 431.744 6.01333 432.557 5.56C433.384 5.09333 434.331 4.86 435.397 4.86C436.437 4.86 437.357 5.08667 438.157 5.54C438.957 5.99333 439.571 6.62 439.997 7.42C440.437 8.20667 440.657 9.1 440.657 10.1ZM438.777 9.72C438.777 9.02667 438.624 8.43333 438.317 7.94C438.011 7.43333 437.591 7.05333 437.057 6.8C436.537 6.53333 435.957 6.4 435.317 6.4C434.397 6.4 433.611 6.69333 432.957 7.28C432.317 7.86667 431.951 8.68 431.857 9.72H438.777ZM448.44 16.18C447.6 16.18 446.846 16.04 446.18 15.76C445.513 15.4667 444.986 15.0667 444.6 14.56C444.213 14.04 444 13.4467 443.96 12.78H445.84C445.893 13.3267 446.146 13.7733 446.6 14.12C447.066 14.4667 447.673 14.64 448.42 14.64C449.113 14.64 449.66 14.4867 450.06 14.18C450.46 13.8733 450.66 13.4867 450.66 13.02C450.66 12.54 450.446 12.1867 450.02 11.96C449.593 11.72 448.933 11.4867 448.04 11.26C447.226 11.0467 446.56 10.8333 446.04 10.62C445.533 10.3933 445.093 10.0667 444.72 9.64C444.36 9.2 444.18 8.62667 444.18 7.92C444.18 7.36 444.346 6.84667 444.68 6.38C445.013 5.91333 445.486 5.54667 446.1 5.28C446.713 5 447.413 4.86 448.2 4.86C449.413 4.86 450.393 5.16667 451.14 5.78C451.886 6.39333 452.286 7.23333 452.34 8.3H450.52C450.48 7.72667 450.246 7.26667 449.82 6.92C449.406 6.57333 448.846 6.4 448.14 6.4C447.486 6.4 446.966 6.54 446.58 6.82C446.193 7.1 446 7.46667 446 7.92C446 8.28 446.113 8.58 446.34 8.82C446.58 9.04667 446.873 9.23333 447.22 9.38C447.58 9.51333 448.073 9.66667 448.7 9.84C449.486 10.0533 450.126 10.2667 450.62 10.48C451.113 10.68 451.533 10.9867 451.88 11.4C452.24 11.8133 452.426 12.3533 452.44 13.02C452.44 13.62 452.273 14.16 451.94 14.64C451.606 15.12 451.133 15.5 450.52 15.78C449.92 16.0467 449.226 16.18 448.44 16.18ZM465.161 6.82C465.481 6.19333 465.934 5.70667 466.521 5.36C467.121 5.01333 467.847 4.84 468.701 4.84V6.72H468.221C466.181 6.72 465.161 7.82667 465.161 10.04V16H463.341V5.04H465.161V6.82ZM473.242 3.26C472.895 3.26 472.602 3.14 472.362 2.9C472.122 2.66 472.002 2.36667 472.002 2.02C472.002 1.67333 472.122 1.38 472.362 1.14C472.602 0.899999 472.895 0.779999 473.242 0.779999C473.575 0.779999 473.855 0.899999 474.082 1.14C474.322 1.38 474.442 1.67333 474.442 2.02C474.442 2.36667 474.322 2.66 474.082 2.9C473.855 3.14 473.575 3.26 473.242 3.26ZM474.122 5.04V16H472.302V5.04H474.122ZM483.244 4.86C484.19 4.86 485.017 5.06667 485.724 5.48C486.444 5.89333 486.977 6.41333 487.324 7.04V5.04H489.164V16.24C489.164 17.24 488.95 18.1267 488.524 18.9C488.097 19.6867 487.484 20.3 486.684 20.74C485.897 21.18 484.977 21.4 483.924 21.4C482.484 21.4 481.284 21.06 480.324 20.38C479.364 19.7 478.797 18.7733 478.624 17.6H480.424C480.624 18.2667 481.037 18.8 481.664 19.2C482.29 19.6133 483.044 19.82 483.924 19.82C484.924 19.82 485.737 19.5067 486.364 18.88C487.004 18.2533 487.324 17.3733 487.324 16.24V13.94C486.964 14.58 486.43 15.1133 485.724 15.54C485.017 15.9667 484.19 16.18 483.244 16.18C482.27 16.18 481.384 15.94 480.584 15.46C479.797 14.98 479.177 14.3067 478.724 13.44C478.27 12.5733 478.044 11.5867 478.044 10.48C478.044 9.36 478.27 8.38 478.724 7.54C479.177 6.68667 479.797 6.02667 480.584 5.56C481.384 5.09333 482.27 4.86 483.244 4.86ZM487.324 10.5C487.324 9.67333 487.157 8.95333 486.824 8.34C486.49 7.72667 486.037 7.26 485.464 6.94C484.904 6.60667 484.284 6.44 483.604 6.44C482.924 6.44 482.304 6.6 481.744 6.92C481.184 7.24 480.737 7.70667 480.404 8.32C480.07 8.93333 479.904 9.65333 479.904 10.48C479.904 11.32 480.07 12.0533 480.404 12.68C480.737 13.2933 481.184 13.7667 481.744 14.1C482.304 14.42 482.924 14.58 483.604 14.58C484.284 14.58 484.904 14.42 485.464 14.1C486.037 13.7667 486.49 13.2933 486.824 12.68C487.157 12.0533 487.324 11.3267 487.324 10.5ZM499.179 4.84C500.006 4.84 500.753 5.02 501.419 5.38C502.086 5.72667 502.606 6.25333 502.979 6.96C503.366 7.66667 503.559 8.52667 503.559 9.54V16H501.759V9.8C501.759 8.70667 501.486 7.87333 500.939 7.3C500.393 6.71333 499.646 6.42 498.699 6.42C497.739 6.42 496.973 6.72 496.399 7.32C495.839 7.92 495.559 8.79333 495.559 9.94V16H493.739V1.2H495.559V6.6C495.919 6.04 496.413 5.60667 497.039 5.3C497.679 4.99333 498.393 4.84 499.179 4.84ZM510.252 6.54V13C510.252 13.5333 510.366 13.9133 510.592 14.14C510.819 14.3533 511.212 14.46 511.772 14.46H513.112V16H511.472C510.459 16 509.699 15.7667 509.192 15.3C508.686 14.8333 508.432 14.0667 508.432 13V6.54H507.012V5.04H508.432V2.28H510.252V5.04H513.112V6.54H510.252ZM528.109 6.54H525.809V16H523.989V6.54H522.569V5.04H523.989V4.26C523.989 3.03333 524.303 2.14 524.929 1.58C525.569 1.00667 526.589 0.719999 527.989 0.719999V2.24C527.189 2.24 526.623 2.4 526.289 2.72C525.969 3.02667 525.809 3.54 525.809 4.26V5.04H528.109V6.54ZM533.551 6.82C533.871 6.19333 534.325 5.70667 534.911 5.36C535.511 5.01333 536.238 4.84 537.091 4.84V6.72H536.611C534.571 6.72 533.551 7.82667 533.551 10.04V16H531.731V5.04H533.551V6.82ZM545.472 16.18C544.446 16.18 543.512 15.9467 542.672 15.48C541.846 15.0133 541.192 14.3533 540.712 13.5C540.246 12.6333 540.012 11.6333 540.012 10.5C540.012 9.38 540.252 8.39333 540.732 7.54C541.226 6.67333 541.892 6.01333 542.732 5.56C543.572 5.09333 544.512 4.86 545.552 4.86C546.592 4.86 547.532 5.09333 548.372 5.56C549.212 6.01333 549.872 6.66667 550.352 7.52C550.846 8.37333 551.092 9.36667 551.092 10.5C551.092 11.6333 550.839 12.6333 550.332 13.5C549.839 14.3533 549.166 15.0133 548.312 15.48C547.459 15.9467 546.512 16.18 545.472 16.18ZM545.472 14.58C546.126 14.58 546.739 14.4267 547.312 14.12C547.886 13.8133 548.346 13.3533 548.692 12.74C549.052 12.1267 549.232 11.38 549.232 10.5C549.232 9.62 549.059 8.87333 548.712 8.26C548.366 7.64667 547.912 7.19333 547.352 6.9C546.792 6.59333 546.186 6.44 545.532 6.44C544.866 6.44 544.252 6.59333 543.692 6.9C543.146 7.19333 542.706 7.64667 542.372 8.26C542.039 8.87333 541.872 9.62 541.872 10.5C541.872 11.3933 542.032 12.1467 542.352 12.76C542.686 13.3733 543.126 13.8333 543.672 14.14C544.219 14.4333 544.819 14.58 545.472 14.58ZM568.165 4.84C569.019 4.84 569.779 5.02 570.445 5.38C571.112 5.72667 571.639 6.25333 572.025 6.96C572.412 7.66667 572.605 8.52667 572.605 9.54V16H570.805V9.8C570.805 8.70667 570.532 7.87333 569.985 7.3C569.452 6.71333 568.725 6.42 567.805 6.42C566.859 6.42 566.105 6.72667 565.545 7.34C564.985 7.94 564.705 8.81333 564.705 9.96V16H562.905V9.8C562.905 8.70667 562.632 7.87333 562.085 7.3C561.552 6.71333 560.825 6.42 559.905 6.42C558.959 6.42 558.205 6.72667 557.645 7.34C557.085 7.94 556.805 8.81333 556.805 9.96V16H554.985V5.04H556.805V6.62C557.165 6.04667 557.645 5.60667 558.245 5.3C558.859 4.99333 559.532 4.84 560.265 4.84C561.185 4.84 561.999 5.04667 562.705 5.46C563.412 5.87333 563.939 6.48 564.285 7.28C564.592 6.50667 565.099 5.90667 565.805 5.48C566.512 5.05333 567.299 4.84 568.165 4.84ZM583.243 9.02C583.243 7.66 583.549 6.44 584.163 5.36C584.776 4.26667 585.609 3.41333 586.663 2.8C587.729 2.18667 588.909 1.88 590.203 1.88C591.723 1.88 593.049 2.24667 594.183 2.98C595.316 3.71333 596.143 4.75333 596.663 6.1H594.483C594.096 5.26 593.536 4.61333 592.803 4.16C592.083 3.70667 591.216 3.48 590.203 3.48C589.229 3.48 588.356 3.70667 587.583 4.16C586.809 4.61333 586.203 5.26 585.763 6.1C585.323 6.92667 585.103 7.9 585.103 9.02C585.103 10.1267 585.323 11.1 585.763 11.94C586.203 12.7667 586.809 13.4067 587.583 13.86C588.356 14.3133 589.229 14.54 590.203 14.54C591.216 14.54 592.083 14.32 592.803 13.88C593.536 13.4267 594.096 12.78 594.483 11.94H596.663C596.143 13.2733 595.316 14.3067 594.183 15.04C593.049 15.76 591.723 16.12 590.203 16.12C588.909 16.12 587.729 15.82 586.663 15.22C585.609 14.6067 584.776 13.76 584.163 12.68C583.549 11.6 583.243 10.38 583.243 9.02ZM605.652 16.18C604.625 16.18 603.692 15.9467 602.852 15.48C602.025 15.0133 601.372 14.3533 600.892 13.5C600.425 12.6333 600.192 11.6333 600.192 10.5C600.192 9.38 600.432 8.39333 600.912 7.54C601.405 6.67333 602.072 6.01333 602.912 5.56C603.752 5.09333 604.692 4.86 605.732 4.86C606.772 4.86 607.712 5.09333 608.552 5.56C609.392 6.01333 610.052 6.66667 610.532 7.52C611.025 8.37333 611.272 9.36667 611.272 10.5C611.272 11.6333 611.019 12.6333 610.512 13.5C610.019 14.3533 609.345 15.0133 608.492 15.48C607.639 15.9467 606.692 16.18 605.652 16.18ZM605.652 14.58C606.305 14.58 606.919 14.4267 607.492 14.12C608.065 13.8133 608.525 13.3533 608.872 12.74C609.232 12.1267 609.412 11.38 609.412 10.5C609.412 9.62 609.239 8.87333 608.892 8.26C608.545 7.64667 608.092 7.19333 607.532 6.9C606.972 6.59333 606.365 6.44 605.712 6.44C605.045 6.44 604.432 6.59333 603.872 6.9C603.325 7.19333 602.885 7.64667 602.552 8.26C602.219 8.87333 602.052 9.62 602.052 10.5C602.052 11.3933 602.212 12.1467 602.532 12.76C602.865 13.3733 603.305 13.8333 603.852 14.14C604.399 14.4333 604.999 14.58 605.652 14.58ZM616.985 6.82C617.305 6.19333 617.758 5.70667 618.345 5.36C618.945 5.01333 619.672 4.84 620.525 4.84V6.72H620.045C618.005 6.72 616.985 7.82667 616.985 10.04V16H615.165V5.04H616.985V6.82ZM634.126 10.1C634.126 10.4467 634.106 10.8133 634.066 11.2H625.306C625.373 12.28 625.739 13.1267 626.406 13.74C627.086 14.34 627.906 14.64 628.866 14.64C629.653 14.64 630.306 14.46 630.826 14.1C631.359 13.7267 631.733 13.2333 631.946 12.62H633.906C633.613 13.6733 633.026 14.5333 632.146 15.2C631.266 15.8533 630.173 16.18 628.866 16.18C627.826 16.18 626.893 15.9467 626.066 15.48C625.253 15.0133 624.613 14.3533 624.146 13.5C623.679 12.6333 623.446 11.6333 623.446 10.5C623.446 9.36667 623.673 8.37333 624.126 7.52C624.579 6.66667 625.213 6.01333 626.026 5.56C626.853 5.09333 627.799 4.86 628.866 4.86C629.906 4.86 630.826 5.08667 631.626 5.54C632.426 5.99333 633.039 6.62 633.466 7.42C633.906 8.20667 634.126 9.1 634.126 10.1ZM632.246 9.72C632.246 9.02667 632.093 8.43333 631.786 7.94C631.479 7.43333 631.059 7.05333 630.526 6.8C630.006 6.53333 629.426 6.4 628.786 6.4C627.866 6.4 627.079 6.69333 626.426 7.28C625.786 7.86667 625.419 8.68 625.326 9.72H632.246ZM644.18 10.48C644.18 9.36 644.407 8.38 644.86 7.54C645.314 6.68667 645.934 6.02667 646.72 5.56C647.52 5.09333 648.414 4.86 649.4 4.86C650.254 4.86 651.047 5.06 651.78 5.46C652.514 5.84667 653.074 6.36 653.46 7V1.2H655.3V16H653.46V13.94C653.1 14.5933 652.567 15.1333 651.86 15.56C651.154 15.9733 650.327 16.18 649.38 16.18C648.407 16.18 647.52 15.94 646.72 15.46C645.934 14.98 645.314 14.3067 644.86 13.44C644.407 12.5733 644.18 11.5867 644.18 10.48ZM653.46 10.5C653.46 9.67333 653.294 8.95333 652.96 8.34C652.627 7.72667 652.174 7.26 651.6 6.94C651.04 6.60667 650.42 6.44 649.74 6.44C649.06 6.44 648.44 6.6 647.88 6.92C647.32 7.24 646.874 7.70667 646.54 8.32C646.207 8.93333 646.04 9.65333 646.04 10.48C646.04 11.32 646.207 12.0533 646.54 12.68C646.874 13.2933 647.32 13.7667 647.88 14.1C648.44 14.42 649.06 14.58 649.74 14.58C650.42 14.58 651.04 14.42 651.6 14.1C652.174 13.7667 652.627 13.2933 652.96 12.68C653.294 12.0533 653.46 11.3267 653.46 10.5ZM669.876 10.1C669.876 10.4467 669.856 10.8133 669.816 11.2H661.056C661.123 12.28 661.489 13.1267 662.156 13.74C662.836 14.34 663.656 14.64 664.616 14.64C665.403 14.64 666.056 14.46 666.576 14.1C667.109 13.7267 667.483 13.2333 667.696 12.62H669.656C669.363 13.6733 668.776 14.5333 667.896 15.2C667.016 15.8533 665.923 16.18 664.616 16.18C663.576 16.18 662.643 15.9467 661.816 15.48C661.003 15.0133 660.363 14.3533 659.896 13.5C659.429 12.6333 659.196 11.6333 659.196 10.5C659.196 9.36667 659.423 8.37333 659.876 7.52C660.329 6.66667 660.963 6.01333 661.776 5.56C662.603 5.09333 663.549 4.86 664.616 4.86C665.656 4.86 666.576 5.08667 667.376 5.54C668.176 5.99333 668.789 6.62 669.216 7.42C669.656 8.20667 669.876 9.1 669.876 10.1ZM667.996 9.72C667.996 9.02667 667.843 8.43333 667.536 7.94C667.229 7.43333 666.809 7.05333 666.276 6.8C665.756 6.53333 665.176 6.4 664.536 6.4C663.616 6.4 662.829 6.69333 662.176 7.28C661.536 7.86667 661.169 8.68 661.076 9.72H667.996ZM677.658 16.18C676.818 16.18 676.065 16.04 675.398 15.76C674.732 15.4667 674.205 15.0667 673.818 14.56C673.432 14.04 673.218 13.4467 673.178 12.78H675.058C675.112 13.3267 675.365 13.7733 675.818 14.12C676.285 14.4667 676.892 14.64 677.638 14.64C678.332 14.64 678.878 14.4867 679.278 14.18C679.678 13.8733 679.878 13.4867 679.878 13.02C679.878 12.54 679.665 12.1867 679.238 11.96C678.812 11.72 678.152 11.4867 677.258 11.26C676.445 11.0467 675.778 10.8333 675.258 10.62C674.752 10.3933 674.312 10.0667 673.938 9.64C673.578 9.2 673.398 8.62667 673.398 7.92C673.398 7.36 673.565 6.84667 673.898 6.38C674.232 5.91333 674.705 5.54667 675.318 5.28C675.932 5 676.632 4.86 677.418 4.86C678.632 4.86 679.612 5.16667 680.358 5.78C681.105 6.39333 681.505 7.23333 681.558 8.3H679.738C679.698 7.72667 679.465 7.26667 679.038 6.92C678.625 6.57333 678.065 6.4 677.358 6.4C676.705 6.4 676.185 6.54 675.798 6.82C675.412 7.1 675.218 7.46667 675.218 7.92C675.218 8.28 675.332 8.58 675.558 8.82C675.798 9.04667 676.092 9.23333 676.438 9.38C676.798 9.51333 677.292 9.66667 677.918 9.84C678.705 10.0533 679.345 10.2667 679.838 10.48C680.332 10.68 680.752 10.9867 681.098 11.4C681.458 11.8133 681.645 12.3533 681.658 13.02C681.658 13.62 681.492 14.16 681.158 14.64C680.825 15.12 680.352 15.5 679.738 15.78C679.138 16.0467 678.445 16.18 677.658 16.18ZM686.668 3.26C686.321 3.26 686.028 3.14 685.788 2.9C685.548 2.66 685.428 2.36667 685.428 2.02C685.428 1.67333 685.548 1.38 685.788 1.14C686.028 0.899999 686.321 0.779999 686.668 0.779999C687.001 0.779999 687.281 0.899999 687.508 1.14C687.748 1.38 687.868 1.67333 687.868 2.02C687.868 2.36667 687.748 2.66 687.508 2.9C687.281 3.14 687.001 3.26 686.668 3.26ZM687.548 5.04V16H685.728V5.04H687.548ZM696.669 4.86C697.616 4.86 698.443 5.06667 699.149 5.48C699.869 5.89333 700.403 6.41333 700.749 7.04V5.04H702.589V16.24C702.589 17.24 702.376 18.1267 701.949 18.9C701.523 19.6867 700.909 20.3 700.109 20.74C699.323 21.18 698.403 21.4 697.349 21.4C695.909 21.4 694.709 21.06 693.749 20.38C692.789 19.7 692.223 18.7733 692.049 17.6H693.849C694.049 18.2667 694.463 18.8 695.089 19.2C695.716 19.6133 696.469 19.82 697.349 19.82C698.349 19.82 699.163 19.5067 699.789 18.88C700.429 18.2533 700.749 17.3733 700.749 16.24V13.94C700.389 14.58 699.856 15.1133 699.149 15.54C698.443 15.9667 697.616 16.18 696.669 16.18C695.696 16.18 694.809 15.94 694.009 15.46C693.223 14.98 692.603 14.3067 692.149 13.44C691.696 12.5733 691.469 11.5867 691.469 10.48C691.469 9.36 691.696 8.38 692.149 7.54C692.603 6.68667 693.223 6.02667 694.009 5.56C694.809 5.09333 695.696 4.86 696.669 4.86ZM700.749 10.5C700.749 9.67333 700.583 8.95333 700.249 8.34C699.916 7.72667 699.463 7.26 698.889 6.94C698.329 6.60667 697.709 6.44 697.029 6.44C696.349 6.44 695.729 6.6 695.169 6.92C694.609 7.24 694.163 7.70667 693.829 8.32C693.496 8.93333 693.329 9.65333 693.329 10.48C693.329 11.32 693.496 12.0533 693.829 12.68C694.163 13.2933 694.609 13.7667 695.169 14.1C695.729 14.42 696.349 14.58 697.029 14.58C697.709 14.58 698.329 14.42 698.889 14.1C699.463 13.7667 699.916 13.2933 700.249 12.68C700.583 12.0533 700.749 11.3267 700.749 10.5ZM712.505 4.84C713.838 4.84 714.918 5.24667 715.745 6.06C716.572 6.86 716.985 8.02 716.985 9.54V16H715.185V9.8C715.185 8.70667 714.912 7.87333 714.365 7.3C713.818 6.71333 713.072 6.42 712.125 6.42C711.165 6.42 710.398 6.72 709.825 7.32C709.265 7.92 708.985 8.79333 708.985 9.94V16H707.165V5.04H708.985V6.6C709.345 6.04 709.832 5.60667 710.445 5.3C711.072 4.99333 711.758 4.84 712.505 4.84ZM722.398 3.26C722.051 3.26 721.758 3.14 721.518 2.9C721.278 2.66 721.158 2.36667 721.158 2.02C721.158 1.67333 721.278 1.38 721.518 1.14C721.758 0.899999 722.051 0.779999 722.398 0.779999C722.731 0.779999 723.011 0.899999 723.238 1.14C723.478 1.38 723.598 1.67333 723.598 2.02C723.598 2.36667 723.478 2.66 723.238 2.9C723.011 3.14 722.731 3.26 722.398 3.26ZM723.278 5.04V16H721.458V5.04H723.278ZM733.22 4.84C734.553 4.84 735.633 5.24667 736.46 6.06C737.287 6.86 737.7 8.02 737.7 9.54V16H735.9V9.8C735.9 8.70667 735.627 7.87333 735.08 7.3C734.533 6.71333 733.787 6.42 732.84 6.42C731.88 6.42 731.113 6.72 730.54 7.32C729.98 7.92 729.7 8.79333 729.7 9.94V16H727.88V5.04H729.7V6.6C730.06 6.04 730.547 5.60667 731.16 5.3C731.787 4.99333 732.473 4.84 733.22 4.84ZM746.693 4.86C747.639 4.86 748.466 5.06667 749.173 5.48C749.893 5.89333 750.426 6.41333 750.773 7.04V5.04H752.613V16.24C752.613 17.24 752.399 18.1267 751.973 18.9C751.546 19.6867 750.933 20.3 750.133 20.74C749.346 21.18 748.426 21.4 747.373 21.4C745.933 21.4 744.733 21.06 743.773 20.38C742.813 19.7 742.246 18.7733 742.073 17.6H743.873C744.073 18.2667 744.486 18.8 745.113 19.2C745.739 19.6133 746.493 19.82 747.373 19.82C748.373 19.82 749.186 19.5067 749.813 18.88C750.453 18.2533 750.773 17.3733 750.773 16.24V13.94C750.413 14.58 749.879 15.1133 749.173 15.54C748.466 15.9667 747.639 16.18 746.693 16.18C745.719 16.18 744.833 15.94 744.033 15.46C743.246 14.98 742.626 14.3067 742.173 13.44C741.719 12.5733 741.493 11.5867 741.493 10.48C741.493 9.36 741.719 8.38 742.173 7.54C742.626 6.68667 743.246 6.02667 744.033 5.56C744.833 5.09333 745.719 4.86 746.693 4.86ZM750.773 10.5C750.773 9.67333 750.606 8.95333 750.273 8.34C749.939 7.72667 749.486 7.26 748.913 6.94C748.353 6.60667 747.733 6.44 747.053 6.44C746.373 6.44 745.753 6.6 745.193 6.92C744.633 7.24 744.186 7.70667 743.853 8.32C743.519 8.93333 743.353 9.65333 743.353 10.48C743.353 11.32 743.519 12.0533 743.853 12.68C744.186 13.2933 744.633 13.7667 745.193 14.1C745.753 14.42 746.373 14.58 747.053 14.58C747.733 14.58 748.353 14.42 748.913 14.1C749.486 13.7667 749.939 13.2933 750.273 12.68C750.606 12.0533 750.773 11.3267 750.773 10.5ZM759.068 13.48L756.828 18.86H755.608L757.068 13.48H759.068ZM768.805 9.02C768.805 7.66 769.112 6.44 769.725 5.36C770.339 4.26667 771.172 3.41333 772.225 2.8C773.292 2.18667 774.472 1.88 775.765 1.88C777.285 1.88 778.612 2.24667 779.745 2.98C780.879 3.71333 781.705 4.75333 782.225 6.1H780.045C779.659 5.26 779.099 4.61333 778.365 4.16C777.645 3.70667 776.779 3.48 775.765 3.48C774.792 3.48 773.919 3.70667 773.145 4.16C772.372 4.61333 771.765 5.26 771.325 6.1C770.885 6.92667 770.665 7.9 770.665 9.02C770.665 10.1267 770.885 11.1 771.325 11.94C771.765 12.7667 772.372 13.4067 773.145 13.86C773.919 14.3133 774.792 14.54 775.765 14.54C776.779 14.54 777.645 14.32 778.365 13.88C779.099 13.4267 779.659 12.78 780.045 11.94H782.225C781.705 13.2733 780.879 14.3067 779.745 15.04C778.612 15.76 777.285 16.12 775.765 16.12C774.472 16.12 773.292 15.82 772.225 15.22C771.172 14.6067 770.339 13.76 769.725 12.68C769.112 11.6 768.805 10.38 768.805 9.02ZM794.675 12.9H788.595L787.475 16H785.555L790.595 2.14H792.695L797.715 16H795.795L794.675 12.9ZM794.155 11.42L791.635 4.38L789.115 11.42H794.155ZM805.751 2.06C807.271 2.06 808.584 2.34667 809.691 2.92C810.811 3.48 811.664 4.28667 812.251 5.34C812.851 6.39333 813.151 7.63333 813.151 9.06C813.151 10.4867 812.851 11.7267 812.251 12.78C811.664 13.82 810.811 14.62 809.691 15.18C808.584 15.7267 807.271 16 805.751 16H801.411V2.06H805.751ZM805.751 14.5C807.551 14.5 808.924 14.0267 809.871 13.08C810.818 12.12 811.291 10.78 811.291 9.06C811.291 7.32667 810.811 5.97333 809.851 5C808.904 4.02667 807.538 3.54 805.751 3.54H803.231V14.5H805.751ZM837.064 4.84C837.917 4.84 838.677 5.02 839.344 5.38C840.01 5.72667 840.537 6.25333 840.924 6.96C841.31 7.66667 841.504 8.52667 841.504 9.54V16H839.704V9.8C839.704 8.70667 839.43 7.87333 838.884 7.3C838.35 6.71333 837.624 6.42 836.704 6.42C835.757 6.42 835.004 6.72667 834.444 7.34C833.884 7.94 833.604 8.81333 833.604 9.96V16H831.804V9.8C831.804 8.70667 831.53 7.87333 830.984 7.3C830.45 6.71333 829.724 6.42 828.804 6.42C827.857 6.42 827.104 6.72667 826.544 7.34C825.984 7.94 825.704 8.81333 825.704 9.96V16H823.884V5.04H825.704V6.62C826.064 6.04667 826.544 5.60667 827.144 5.3C827.757 4.99333 828.43 4.84 829.164 4.84C830.084 4.84 830.897 5.04667 831.604 5.46C832.31 5.87333 832.837 6.48 833.184 7.28C833.49 6.50667 833.997 5.90667 834.704 5.48C835.41 5.05333 836.197 4.84 837.064 4.84ZM850.769 16.18C849.743 16.18 848.809 15.9467 847.969 15.48C847.143 15.0133 846.489 14.3533 846.009 13.5C845.543 12.6333 845.309 11.6333 845.309 10.5C845.309 9.38 845.549 8.39333 846.029 7.54C846.523 6.67333 847.189 6.01333 848.029 5.56C848.869 5.09333 849.809 4.86 850.849 4.86C851.889 4.86 852.829 5.09333 853.669 5.56C854.509 6.01333 855.169 6.66667 855.649 7.52C856.143 8.37333 856.389 9.36667 856.389 10.5C856.389 11.6333 856.136 12.6333 855.629 13.5C855.136 14.3533 854.463 15.0133 853.609 15.48C852.756 15.9467 851.809 16.18 850.769 16.18ZM850.769 14.58C851.423 14.58 852.036 14.4267 852.609 14.12C853.183 13.8133 853.643 13.3533 853.989 12.74C854.349 12.1267 854.529 11.38 854.529 10.5C854.529 9.62 854.356 8.87333 854.009 8.26C853.663 7.64667 853.209 7.19333 852.649 6.9C852.089 6.59333 851.483 6.44 850.829 6.44C850.163 6.44 849.549 6.59333 848.989 6.9C848.443 7.19333 848.003 7.64667 847.669 8.26C847.336 8.87333 847.169 9.62 847.169 10.5C847.169 11.3933 847.329 12.1467 847.649 12.76C847.983 13.3733 848.423 13.8333 848.969 14.14C849.516 14.4333 850.116 14.58 850.769 14.58ZM859.602 10.48C859.602 9.36 859.829 8.38 860.282 7.54C860.736 6.68667 861.356 6.02667 862.142 5.56C862.942 5.09333 863.836 4.86 864.822 4.86C865.676 4.86 866.469 5.06 867.202 5.46C867.936 5.84667 868.496 6.36 868.882 7V1.2H870.722V16H868.882V13.94C868.522 14.5933 867.989 15.1333 867.282 15.56C866.576 15.9733 865.749 16.18 864.802 16.18C863.829 16.18 862.942 15.94 862.142 15.46C861.356 14.98 860.736 14.3067 860.282 13.44C859.829 12.5733 859.602 11.5867 859.602 10.48ZM868.882 10.5C868.882 9.67333 868.716 8.95333 868.382 8.34C868.049 7.72667 867.596 7.26 867.022 6.94C866.462 6.60667 865.842 6.44 865.162 6.44C864.482 6.44 863.862 6.6 863.302 6.92C862.742 7.24 862.296 7.70667 861.962 8.32C861.629 8.93333 861.462 9.65333 861.462 10.48C861.462 11.32 861.629 12.0533 861.962 12.68C862.296 13.2933 862.742 13.7667 863.302 14.1C863.862 14.42 864.482 14.58 865.162 14.58C865.842 14.58 866.462 14.42 867.022 14.1C867.596 13.7667 868.049 13.2933 868.382 12.68C868.716 12.0533 868.882 11.3267 868.882 10.5ZM885.298 10.1C885.298 10.4467 885.278 10.8133 885.238 11.2H876.478C876.544 12.28 876.911 13.1267 877.578 13.74C878.258 14.34 879.078 14.64 880.038 14.64C880.824 14.64 881.478 14.46 881.998 14.1C882.531 13.7267 882.904 13.2333 883.118 12.62H885.078C884.784 13.6733 884.198 14.5333 883.318 15.2C882.438 15.8533 881.344 16.18 880.038 16.18C878.998 16.18 878.064 15.9467 877.238 15.48C876.424 15.0133 875.784 14.3533 875.318 13.5C874.851 12.6333 874.618 11.6333 874.618 10.5C874.618 9.36667 874.844 8.37333 875.298 7.52C875.751 6.66667 876.384 6.01333 877.198 5.56C878.024 5.09333 878.971 4.86 880.038 4.86C881.078 4.86 881.998 5.08667 882.798 5.54C883.598 5.99333 884.211 6.62 884.638 7.42C885.078 8.20667 885.298 9.1 885.298 10.1ZM883.418 9.72C883.418 9.02667 883.264 8.43333 882.958 7.94C882.651 7.43333 882.231 7.05333 881.698 6.8C881.178 6.53333 880.598 6.4 879.958 6.4C879.038 6.4 878.251 6.69333 877.598 7.28C876.958 7.86667 876.591 8.68 876.498 9.72H883.418ZM891.02 1.2V16H889.2V1.2H891.02ZM897.442 1.2V16H895.622V1.2H897.442ZM902.984 3.26C902.637 3.26 902.344 3.14 902.104 2.9C901.864 2.66 901.744 2.36667 901.744 2.02C901.744 1.67333 901.864 1.38 902.104 1.14C902.344 0.899999 902.637 0.779999 902.984 0.779999C903.317 0.779999 903.597 0.899999 903.824 1.14C904.064 1.38 904.184 1.67333 904.184 2.02C904.184 2.36667 904.064 2.66 903.824 2.9C903.597 3.14 903.317 3.26 902.984 3.26ZM903.864 5.04V16H902.044V5.04H903.864ZM913.806 4.84C915.139 4.84 916.219 5.24667 917.046 6.06C917.872 6.86 918.286 8.02 918.286 9.54V16H916.486V9.8C916.486 8.70667 916.212 7.87333 915.666 7.3C915.119 6.71333 914.372 6.42 913.426 6.42C912.466 6.42 911.699 6.72 911.126 7.32C910.566 7.92 910.286 8.79333 910.286 9.94V16H908.466V5.04H910.286V6.6C910.646 6.04 911.132 5.60667 911.746 5.3C912.372 4.99333 913.059 4.84 913.806 4.84ZM927.279 4.86C928.225 4.86 929.052 5.06667 929.759 5.48C930.479 5.89333 931.012 6.41333 931.359 7.04V5.04H933.199V16.24C933.199 17.24 932.985 18.1267 932.559 18.9C932.132 19.6867 931.519 20.3 930.719 20.74C929.932 21.18 929.012 21.4 927.959 21.4C926.519 21.4 925.319 21.06 924.359 20.38C923.399 19.7 922.832 18.7733 922.659 17.6H924.459C924.659 18.2667 925.072 18.8 925.699 19.2C926.325 19.6133 927.079 19.82 927.959 19.82C928.959 19.82 929.772 19.5067 930.399 18.88C931.039 18.2533 931.359 17.3733 931.359 16.24V13.94C930.999 14.58 930.465 15.1133 929.759 15.54C929.052 15.9667 928.225 16.18 927.279 16.18C926.305 16.18 925.419 15.94 924.619 15.46C923.832 14.98 923.212 14.3067 922.759 13.44C922.305 12.5733 922.079 11.5867 922.079 10.48C922.079 9.36 922.305 8.38 922.759 7.54C923.212 6.68667 923.832 6.02667 924.619 5.56C925.419 5.09333 926.305 4.86 927.279 4.86ZM931.359 10.5C931.359 9.67333 931.192 8.95333 930.859 8.34C930.525 7.72667 930.072 7.26 929.499 6.94C928.939 6.60667 928.319 6.44 927.639 6.44C926.959 6.44 926.339 6.6 925.779 6.92C925.219 7.24 924.772 7.70667 924.439 8.32C924.105 8.93333 923.939 9.65333 923.939 10.48C923.939 11.32 924.105 12.0533 924.439 12.68C924.772 13.2933 925.219 13.7667 925.779 14.1C926.339 14.42 926.959 14.58 927.639 14.58C928.319 14.58 928.939 14.42 929.499 14.1C930.072 13.7667 930.525 13.2933 930.859 12.68C931.192 12.0533 931.359 11.3267 931.359 10.5ZM939.654 13.48L937.414 18.86H936.194L937.654 13.48H939.654ZM13.06 32.06L7.8 46H5.7L0.44 32.06H2.38L6.76 44.08L11.14 32.06H13.06ZM17.4956 33.26C17.149 33.26 16.8556 33.14 16.6156 32.9C16.3756 32.66 16.2556 32.3667 16.2556 32.02C16.2556 31.6733 16.3756 31.38 16.6156 31.14C16.8556 30.9 17.149 30.78 17.4956 30.78C17.829 30.78 18.109 30.9 18.3356 31.14C18.5756 31.38 18.6956 31.6733 18.6956 32.02C18.6956 32.3667 18.5756 32.66 18.3356 32.9C18.109 33.14 17.829 33.26 17.4956 33.26ZM18.3756 35.04V46H16.5556V35.04H18.3756ZM24.7975 36.82C25.1175 36.1933 25.5708 35.7067 26.1575 35.36C26.7575 35.0133 27.4842 34.84 28.3375 34.84V36.72H27.8575C25.8175 36.72 24.7975 37.8267 24.7975 40.04V46H22.9775V35.04H24.7975V36.82ZM34.1584 36.54V43C34.1584 43.5333 34.2718 43.9133 34.4984 44.14C34.7251 44.3533 35.1184 44.46 35.6784 44.46H37.0184V46H35.3784C34.3651 46 33.6051 45.7667 33.0984 45.3C32.5918 44.8333 32.3384 44.0667 32.3384 43V36.54H30.9184V35.04H32.3384V32.28H34.1584V35.04H37.0184V36.54H34.1584ZM50.4436 35.04V46H48.6236V44.38C48.2769 44.94 47.7903 45.38 47.1636 45.7C46.5503 46.0067 45.8703 46.16 45.1236 46.16C44.2703 46.16 43.5036 45.9867 42.8236 45.64C42.1436 45.28 41.6036 44.7467 41.2036 44.04C40.8169 43.3333 40.6236 42.4733 40.6236 41.46V35.04H42.4236V41.22C42.4236 42.3 42.6969 43.1333 43.2436 43.72C43.7903 44.2933 44.5369 44.58 45.4836 44.58C46.4569 44.58 47.2236 44.28 47.7836 43.68C48.3436 43.08 48.6236 42.2067 48.6236 41.06V35.04H50.4436ZM54.3366 40.48C54.3366 39.36 54.5632 38.38 55.0166 37.54C55.4699 36.6867 56.0899 36.0267 56.8766 35.56C57.6766 35.0933 58.5632 34.86 59.5366 34.86C60.4966 34.86 61.3299 35.0667 62.0366 35.48C62.7432 35.8933 63.2699 36.4133 63.6166 37.04V35.04H65.4566V46H63.6166V43.96C63.2566 44.6 62.7166 45.1333 61.9966 45.56C61.2899 45.9733 60.4632 46.18 59.5166 46.18C58.5432 46.18 57.6632 45.94 56.8766 45.46C56.0899 44.98 55.4699 44.3067 55.0166 43.44C54.5632 42.5733 54.3366 41.5867 54.3366 40.48ZM63.6166 40.5C63.6166 39.6733 63.4499 38.9533 63.1166 38.34C62.7832 37.7267 62.3299 37.26 61.7566 36.94C61.1966 36.6067 60.5766 36.44 59.8966 36.44C59.2166 36.44 58.5966 36.6 58.0366 36.92C57.4766 37.24 57.0299 37.7067 56.6966 38.32C56.3632 38.9333 56.1966 39.6533 56.1966 40.48C56.1966 41.32 56.3632 42.0533 56.6966 42.68C57.0299 43.2933 57.4766 43.7667 58.0366 44.1C58.5966 44.42 59.2166 44.58 59.8966 44.58C60.5766 44.58 61.1966 44.42 61.7566 44.1C62.3299 43.7667 62.7832 43.2933 63.1166 42.68C63.4499 42.0533 63.6166 41.3267 63.6166 40.5ZM71.8522 31.2V46H70.0322V31.2H71.8522ZM87.7061 46.14C86.7861 46.14 85.9594 45.98 85.2261 45.66C84.5061 45.3267 83.9394 44.8733 83.5261 44.3C83.1128 43.7133 82.8994 43.04 82.8861 42.28H84.8261C84.8928 42.9333 85.1594 43.4867 85.6261 43.94C86.1061 44.38 86.7994 44.6 87.7061 44.6C88.5728 44.6 89.2528 44.3867 89.7461 43.96C90.2528 43.52 90.5061 42.96 90.5061 42.28C90.5061 41.7467 90.3594 41.3133 90.0661 40.98C89.7728 40.6467 89.4061 40.3933 88.9661 40.22C88.5261 40.0467 87.9328 39.86 87.1861 39.66C86.2661 39.42 85.5261 39.18 84.9661 38.94C84.4194 38.7 83.9461 38.3267 83.5461 37.82C83.1594 37.3 82.9661 36.6067 82.9661 35.74C82.9661 34.98 83.1594 34.3067 83.5461 33.72C83.9328 33.1333 84.4728 32.68 85.1661 32.36C85.8728 32.04 86.6794 31.88 87.5861 31.88C88.8928 31.88 89.9594 32.2067 90.7861 32.86C91.6261 33.5133 92.0994 34.38 92.2061 35.46H90.2061C90.1394 34.9267 89.8594 34.46 89.3661 34.06C88.8728 33.6467 88.2194 33.44 87.4061 33.44C86.6461 33.44 86.0261 33.64 85.5461 34.04C85.0661 34.4267 84.8261 34.9733 84.8261 35.68C84.8261 36.1867 84.9661 36.6 85.2461 36.92C85.5394 37.24 85.8928 37.4867 86.3061 37.66C86.7328 37.82 87.3261 38.0067 88.0861 38.22C89.0061 38.4733 89.7461 38.7267 90.3061 38.98C90.8661 39.22 91.3461 39.6 91.7461 40.12C92.1461 40.6267 92.3461 41.32 92.3461 42.2C92.3461 42.88 92.1661 43.52 91.8061 44.12C91.4461 44.72 90.9128 45.2067 90.2061 45.58C89.4994 45.9533 88.6661 46.14 87.7061 46.14ZM97.4644 33.26C97.1177 33.26 96.8244 33.14 96.5844 32.9C96.3444 32.66 96.2244 32.3667 96.2244 32.02C96.2244 31.6733 96.3444 31.38 96.5844 31.14C96.8244 30.9 97.1177 30.78 97.4644 30.78C97.7977 30.78 98.0777 30.9 98.3044 31.14C98.5444 31.38 98.6644 31.6733 98.6644 32.02C98.6644 32.3667 98.5444 32.66 98.3044 32.9C98.0777 33.14 97.7977 33.26 97.4644 33.26ZM98.3444 35.04V46H96.5244V35.04H98.3444ZM116.126 34.84C116.98 34.84 117.74 35.02 118.406 35.38C119.073 35.7267 119.6 36.2533 119.986 36.96C120.373 37.6667 120.566 38.5267 120.566 39.54V46H118.766V39.8C118.766 38.7067 118.493 37.8733 117.946 37.3C117.413 36.7133 116.686 36.42 115.766 36.42C114.82 36.42 114.066 36.7267 113.506 37.34C112.946 37.94 112.666 38.8133 112.666 39.96V46H110.866V39.8C110.866 38.7067 110.593 37.8733 110.046 37.3C109.513 36.7133 108.786 36.42 107.866 36.42C106.92 36.42 106.166 36.7267 105.606 37.34C105.046 37.94 104.766 38.8133 104.766 39.96V46H102.946V35.04H104.766V36.62C105.126 36.0467 105.606 35.6067 106.206 35.3C106.82 34.9933 107.493 34.84 108.226 34.84C109.146 34.84 109.96 35.0467 110.666 35.46C111.373 35.8733 111.9 36.48 112.246 37.28C112.553 36.5067 113.06 35.9067 113.766 35.48C114.473 35.0533 115.26 34.84 116.126 34.84ZM134.772 35.04V46H132.952V44.38C132.605 44.94 132.118 45.38 131.492 45.7C130.878 46.0067 130.198 46.16 129.452 46.16C128.598 46.16 127.832 45.9867 127.152 45.64C126.472 45.28 125.932 44.7467 125.532 44.04C125.145 43.3333 124.952 42.4733 124.952 41.46V35.04H126.752V41.22C126.752 42.3 127.025 43.1333 127.572 43.72C128.118 44.2933 128.865 44.58 129.812 44.58C130.785 44.58 131.552 44.28 132.112 43.68C132.672 43.08 132.952 42.2067 132.952 41.06V35.04H134.772ZM141.165 31.2V46H139.345V31.2H141.165ZM145.087 40.48C145.087 39.36 145.313 38.38 145.767 37.54C146.22 36.6867 146.84 36.0267 147.627 35.56C148.427 35.0933 149.313 34.86 150.287 34.86C151.247 34.86 152.08 35.0667 152.787 35.48C153.493 35.8933 154.02 36.4133 154.367 37.04V35.04H156.207V46H154.367V43.96C154.007 44.6 153.467 45.1333 152.747 45.56C152.04 45.9733 151.213 46.18 150.267 46.18C149.293 46.18 148.413 45.94 147.627 45.46C146.84 44.98 146.22 44.3067 145.767 43.44C145.313 42.5733 145.087 41.5867 145.087 40.48ZM154.367 40.5C154.367 39.6733 154.2 38.9533 153.867 38.34C153.533 37.7267 153.08 37.26 152.507 36.94C151.947 36.6067 151.327 36.44 150.647 36.44C149.967 36.44 149.347 36.6 148.787 36.92C148.227 37.24 147.78 37.7067 147.447 38.32C147.113 38.9333 146.947 39.6533 146.947 40.48C146.947 41.32 147.113 42.0533 147.447 42.68C147.78 43.2933 148.227 43.7667 148.787 44.1C149.347 44.42 149.967 44.58 150.647 44.58C151.327 44.58 151.947 44.42 152.507 44.1C153.08 43.7667 153.533 43.2933 153.867 42.68C154.2 42.0533 154.367 41.3267 154.367 40.5ZM163.002 36.54V43C163.002 43.5333 163.116 43.9133 163.342 44.14C163.569 44.3533 163.962 44.46 164.522 44.46H165.862V46H164.222C163.209 46 162.449 45.7667 161.942 45.3C161.436 44.8333 161.182 44.0667 161.182 43V36.54H159.762V35.04H161.182V32.28H163.002V35.04H165.862V36.54H163.002ZM170.507 33.26C170.161 33.26 169.867 33.14 169.627 32.9C169.387 32.66 169.267 32.3667 169.267 32.02C169.267 31.6733 169.387 31.38 169.627 31.14C169.867 30.9 170.161 30.78 170.507 30.78C170.841 30.78 171.121 30.9 171.347 31.14C171.587 31.38 171.707 31.6733 171.707 32.02C171.707 32.3667 171.587 32.66 171.347 32.9C171.121 33.14 170.841 33.26 170.507 33.26ZM171.387 35.04V46H169.567V35.04H171.387ZM180.769 46.18C179.743 46.18 178.809 45.9467 177.969 45.48C177.143 45.0133 176.489 44.3533 176.009 43.5C175.543 42.6333 175.309 41.6333 175.309 40.5C175.309 39.38 175.549 38.3933 176.029 37.54C176.523 36.6733 177.189 36.0133 178.029 35.56C178.869 35.0933 179.809 34.86 180.849 34.86C181.889 34.86 182.829 35.0933 183.669 35.56C184.509 36.0133 185.169 36.6667 185.649 37.52C186.143 38.3733 186.389 39.3667 186.389 40.5C186.389 41.6333 186.136 42.6333 185.629 43.5C185.136 44.3533 184.463 45.0133 183.609 45.48C182.756 45.9467 181.809 46.18 180.769 46.18ZM180.769 44.58C181.423 44.58 182.036 44.4267 182.609 44.12C183.183 43.8133 183.643 43.3533 183.989 42.74C184.349 42.1267 184.529 41.38 184.529 40.5C184.529 39.62 184.356 38.8733 184.009 38.26C183.663 37.6467 183.209 37.1933 182.649 36.9C182.089 36.5933 181.483 36.44 180.829 36.44C180.163 36.44 179.549 36.5933 178.989 36.9C178.443 37.1933 178.003 37.6467 177.669 38.26C177.336 38.8733 177.169 39.62 177.169 40.5C177.169 41.3933 177.329 42.1467 177.649 42.76C177.983 43.3733 178.423 43.8333 178.969 44.14C179.516 44.4333 180.116 44.58 180.769 44.58ZM195.622 34.84C196.956 34.84 198.036 35.2467 198.862 36.06C199.689 36.86 200.102 38.02 200.102 39.54V46H198.302V39.8C198.302 38.7067 198.029 37.8733 197.482 37.3C196.936 36.7133 196.189 36.42 195.242 36.42C194.282 36.42 193.516 36.72 192.942 37.32C192.382 37.92 192.102 38.7933 192.102 39.94V46H190.282V35.04H192.102V36.6C192.462 36.04 192.949 35.6067 193.562 35.3C194.189 34.9933 194.876 34.84 195.622 34.84ZM206.455 43.48L204.215 48.86H202.995L204.455 43.48H206.455ZM218.692 33.54V38.2H223.772V39.7H218.692V44.5H224.372V46H216.872V32.04H224.372V33.54H218.692ZM230.446 31.2V46H228.626V31.2H230.446ZM245.048 40.1C245.048 40.4467 245.028 40.8133 244.988 41.2H236.228C236.294 42.28 236.661 43.1267 237.328 43.74C238.008 44.34 238.828 44.64 239.788 44.64C240.574 44.64 241.228 44.46 241.748 44.1C242.281 43.7267 242.654 43.2333 242.868 42.62H244.828C244.534 43.6733 243.948 44.5333 243.068 45.2C242.188 45.8533 241.094 46.18 239.788 46.18C238.748 46.18 237.814 45.9467 236.988 45.48C236.174 45.0133 235.534 44.3533 235.068 43.5C234.601 42.6333 234.368 41.6333 234.368 40.5C234.368 39.3667 234.594 38.3733 235.048 37.52C235.501 36.6667 236.134 36.0133 236.948 35.56C237.774 35.0933 238.721 34.86 239.788 34.86C240.828 34.86 241.748 35.0867 242.548 35.54C243.348 35.9933 243.961 36.62 244.388 37.42C244.828 38.2067 245.048 39.1 245.048 40.1ZM243.168 39.72C243.168 39.0267 243.014 38.4333 242.708 37.94C242.401 37.4333 241.981 37.0533 241.448 36.8C240.928 36.5333 240.348 36.4 239.708 36.4C238.788 36.4 238.001 36.6933 237.348 37.28C236.708 37.8667 236.341 38.68 236.248 39.72H243.168ZM248.27 40.5C248.27 39.3667 248.497 38.38 248.95 37.54C249.403 36.6867 250.03 36.0267 250.83 35.56C251.643 35.0933 252.57 34.86 253.61 34.86C254.957 34.86 256.063 35.1867 256.93 35.84C257.81 36.4933 258.39 37.4 258.67 38.56H256.71C256.523 37.8933 256.157 37.3667 255.61 36.98C255.077 36.5933 254.41 36.4 253.61 36.4C252.57 36.4 251.73 36.76 251.09 37.48C250.45 38.1867 250.13 39.1933 250.13 40.5C250.13 41.82 250.45 42.84 251.09 43.56C251.73 44.28 252.57 44.64 253.61 44.64C254.41 44.64 255.077 44.4533 255.61 44.08C256.143 43.7067 256.51 43.1733 256.71 42.48H258.67C258.377 43.6 257.79 44.5 256.91 45.18C256.03 45.8467 254.93 46.18 253.61 46.18C252.57 46.18 251.643 45.9467 250.83 45.48C250.03 45.0133 249.403 44.3533 248.95 43.5C248.497 42.6467 248.27 41.6467 248.27 40.5ZM264.819 36.54V43C264.819 43.5333 264.932 43.9133 265.159 44.14C265.385 44.3533 265.779 44.46 266.339 44.46H267.679V46H266.039C265.025 46 264.265 45.7667 263.759 45.3C263.252 44.8333 262.999 44.0667 262.999 43V36.54H261.579V35.04H262.999V32.28H264.819V35.04H267.679V36.54H264.819ZM273.204 36.82C273.524 36.1933 273.977 35.7067 274.564 35.36C275.164 35.0133 275.89 34.84 276.744 34.84V36.72H276.264C274.224 36.72 273.204 37.8267 273.204 40.04V46H271.384V35.04H273.204V36.82ZM285.125 46.18C284.098 46.18 283.165 45.9467 282.325 45.48C281.498 45.0133 280.845 44.3533 280.365 43.5C279.898 42.6333 279.665 41.6333 279.665 40.5C279.665 39.38 279.905 38.3933 280.385 37.54C280.878 36.6733 281.545 36.0133 282.385 35.56C283.225 35.0933 284.165 34.86 285.205 34.86C286.245 34.86 287.185 35.0933 288.025 35.56C288.865 36.0133 289.525 36.6667 290.005 37.52C290.498 38.3733 290.745 39.3667 290.745 40.5C290.745 41.6333 290.491 42.6333 289.985 43.5C289.491 44.3533 288.818 45.0133 287.965 45.48C287.111 45.9467 286.165 46.18 285.125 46.18ZM285.125 44.58C285.778 44.58 286.391 44.4267 286.965 44.12C287.538 43.8133 287.998 43.3533 288.345 42.74C288.705 42.1267 288.885 41.38 288.885 40.5C288.885 39.62 288.711 38.8733 288.365 38.26C288.018 37.6467 287.565 37.1933 287.005 36.9C286.445 36.5933 285.838 36.44 285.185 36.44C284.518 36.44 283.905 36.5933 283.345 36.9C282.798 37.1933 282.358 37.6467 282.025 38.26C281.691 38.8733 281.525 39.62 281.525 40.5C281.525 41.3933 281.685 42.1467 282.005 42.76C282.338 43.3733 282.778 43.8333 283.325 44.14C283.871 44.4333 284.471 44.58 285.125 44.58ZM299.978 34.84C301.311 34.84 302.391 35.2467 303.218 36.06C304.044 36.86 304.458 38.02 304.458 39.54V46H302.658V39.8C302.658 38.7067 302.384 37.8733 301.838 37.3C301.291 36.7133 300.544 36.42 299.598 36.42C298.638 36.42 297.871 36.72 297.298 37.32C296.738 37.92 296.458 38.7933 296.458 39.94V46H294.638V35.04H296.458V36.6C296.818 36.04 297.304 35.6067 297.918 35.3C298.544 34.9933 299.231 34.84 299.978 34.84ZM309.871 33.26C309.524 33.26 309.231 33.14 308.991 32.9C308.751 32.66 308.631 32.3667 308.631 32.02C308.631 31.6733 308.751 31.38 308.991 31.14C309.231 30.9 309.524 30.78 309.871 30.78C310.204 30.78 310.484 30.9 310.711 31.14C310.951 31.38 311.071 31.6733 311.071 32.02C311.071 32.3667 310.951 32.66 310.711 32.9C310.484 33.14 310.204 33.26 309.871 33.26ZM310.751 35.04V46H308.931V35.04H310.751ZM314.673 40.5C314.673 39.3667 314.899 38.38 315.353 37.54C315.806 36.6867 316.433 36.0267 317.233 35.56C318.046 35.0933 318.973 34.86 320.013 34.86C321.359 34.86 322.466 35.1867 323.333 35.84C324.213 36.4933 324.793 37.4 325.073 38.56H323.113C322.926 37.8933 322.559 37.3667 322.013 36.98C321.479 36.5933 320.813 36.4 320.013 36.4C318.973 36.4 318.133 36.76 317.493 37.48C316.853 38.1867 316.533 39.1933 316.533 40.5C316.533 41.82 316.853 42.84 317.493 43.56C318.133 44.28 318.973 44.64 320.013 44.64C320.813 44.64 321.479 44.4533 322.013 44.08C322.546 43.7067 322.913 43.1733 323.113 42.48H325.073C324.779 43.6 324.193 44.5 323.313 45.18C322.433 45.8467 321.333 46.18 320.013 46.18C318.973 46.18 318.046 45.9467 317.233 45.48C316.433 45.0133 315.806 44.3533 315.353 43.5C314.899 42.6467 314.673 41.6467 314.673 40.5ZM332.881 46.18C332.041 46.18 331.288 46.04 330.621 45.76C329.954 45.4667 329.428 45.0667 329.041 44.56C328.654 44.04 328.441 43.4467 328.401 42.78H330.281C330.334 43.3267 330.588 43.7733 331.041 44.12C331.508 44.4667 332.114 44.64 332.861 44.64C333.554 44.64 334.101 44.4867 334.501 44.18C334.901 43.8733 335.101 43.4867 335.101 43.02C335.101 42.54 334.888 42.1867 334.461 41.96C334.034 41.72 333.374 41.4867 332.481 41.26C331.668 41.0467 331.001 40.8333 330.481 40.62C329.974 40.3933 329.534 40.0667 329.161 39.64C328.801 39.2 328.621 38.6267 328.621 37.92C328.621 37.36 328.788 36.8467 329.121 36.38C329.454 35.9133 329.928 35.5467 330.541 35.28C331.154 35 331.854 34.86 332.641 34.86C333.854 34.86 334.834 35.1667 335.581 35.78C336.328 36.3933 336.728 37.2333 336.781 38.3H334.961C334.921 37.7267 334.688 37.2667 334.261 36.92C333.848 36.5733 333.288 36.4 332.581 36.4C331.928 36.4 331.408 36.54 331.021 36.82C330.634 37.1 330.441 37.4667 330.441 37.92C330.441 38.28 330.554 38.58 330.781 38.82C331.021 39.0467 331.314 39.2333 331.661 39.38C332.021 39.5133 332.514 39.6667 333.141 39.84C333.928 40.0533 334.568 40.2667 335.061 40.48C335.554 40.68 335.974 40.9867 336.321 41.4C336.681 41.8133 336.868 42.3533 336.881 43.02C336.881 43.62 336.714 44.16 336.381 44.64C336.048 45.12 335.574 45.5 334.961 45.78C334.361 46.0467 333.668 46.18 332.881 46.18ZM356.022 42.9H349.942L348.822 46H346.902L351.942 32.14H354.042L359.062 46H357.142L356.022 42.9ZM355.502 41.42L352.982 34.38L350.462 41.42H355.502ZM366.639 46.18C365.799 46.18 365.045 46.04 364.379 45.76C363.712 45.4667 363.185 45.0667 362.799 44.56C362.412 44.04 362.199 43.4467 362.159 42.78H364.039C364.092 43.3267 364.345 43.7733 364.799 44.12C365.265 44.4667 365.872 44.64 366.619 44.64C367.312 44.64 367.859 44.4867 368.259 44.18C368.659 43.8733 368.859 43.4867 368.859 43.02C368.859 42.54 368.645 42.1867 368.219 41.96C367.792 41.72 367.132 41.4867 366.239 41.26C365.425 41.0467 364.759 40.8333 364.239 40.62C363.732 40.3933 363.292 40.0667 362.919 39.64C362.559 39.2 362.379 38.6267 362.379 37.92C362.379 37.36 362.545 36.8467 362.879 36.38C363.212 35.9133 363.685 35.5467 364.299 35.28C364.912 35 365.612 34.86 366.399 34.86C367.612 34.86 368.592 35.1667 369.339 35.78C370.085 36.3933 370.485 37.2333 370.539 38.3H368.719C368.679 37.7267 368.445 37.2667 368.019 36.92C367.605 36.5733 367.045 36.4 366.339 36.4C365.685 36.4 365.165 36.54 364.779 36.82C364.392 37.1 364.199 37.4667 364.199 37.92C364.199 38.28 364.312 38.58 364.539 38.82C364.779 39.0467 365.072 39.2333 365.419 39.38C365.779 39.5133 366.272 39.6667 366.899 39.84C367.685 40.0533 368.325 40.2667 368.819 40.48C369.312 40.68 369.732 40.9867 370.079 41.4C370.439 41.8133 370.625 42.3533 370.639 43.02C370.639 43.62 370.472 44.16 370.139 44.64C369.805 45.12 369.332 45.5 368.719 45.78C368.119 46.0467 367.425 46.18 366.639 46.18ZM378.588 46.18C377.748 46.18 376.995 46.04 376.328 45.76C375.661 45.4667 375.135 45.0667 374.748 44.56C374.361 44.04 374.148 43.4467 374.108 42.78H375.988C376.041 43.3267 376.295 43.7733 376.748 44.12C377.215 44.4667 377.821 44.64 378.568 44.64C379.261 44.64 379.808 44.4867 380.208 44.18C380.608 43.8733 380.808 43.4867 380.808 43.02C380.808 42.54 380.595 42.1867 380.168 41.96C379.741 41.72 379.081 41.4867 378.188 41.26C377.375 41.0467 376.708 40.8333 376.188 40.62C375.681 40.3933 375.241 40.0667 374.868 39.64C374.508 39.2 374.328 38.6267 374.328 37.92C374.328 37.36 374.495 36.8467 374.828 36.38C375.161 35.9133 375.635 35.5467 376.248 35.28C376.861 35 377.561 34.86 378.348 34.86C379.561 34.86 380.541 35.1667 381.288 35.78C382.035 36.3933 382.435 37.2333 382.488 38.3H380.668C380.628 37.7267 380.395 37.2667 379.968 36.92C379.555 36.5733 378.995 36.4 378.288 36.4C377.635 36.4 377.115 36.54 376.728 36.82C376.341 37.1 376.148 37.4667 376.148 37.92C376.148 38.28 376.261 38.58 376.488 38.82C376.728 39.0467 377.021 39.2333 377.368 39.38C377.728 39.5133 378.221 39.6667 378.848 39.84C379.635 40.0533 380.275 40.2667 380.768 40.48C381.261 40.68 381.681 40.9867 382.028 41.4C382.388 41.8133 382.575 42.3533 382.588 43.02C382.588 43.62 382.421 44.16 382.088 44.64C381.755 45.12 381.281 45.5 380.668 45.78C380.068 46.0467 379.375 46.18 378.588 46.18ZM396.657 40.1C396.657 40.4467 396.637 40.8133 396.597 41.2H387.837C387.904 42.28 388.271 43.1267 388.937 43.74C389.617 44.34 390.437 44.64 391.397 44.64C392.184 44.64 392.837 44.46 393.357 44.1C393.891 43.7267 394.264 43.2333 394.477 42.62H396.437C396.144 43.6733 395.557 44.5333 394.677 45.2C393.797 45.8533 392.704 46.18 391.397 46.18C390.357 46.18 389.424 45.9467 388.597 45.48C387.784 45.0133 387.144 44.3533 386.677 43.5C386.211 42.6333 385.977 41.6333 385.977 40.5C385.977 39.3667 386.204 38.3733 386.657 37.52C387.111 36.6667 387.744 36.0133 388.557 35.56C389.384 35.0933 390.331 34.86 391.397 34.86C392.437 34.86 393.357 35.0867 394.157 35.54C394.957 35.9933 395.571 36.62 395.997 37.42C396.437 38.2067 396.657 39.1 396.657 40.1ZM394.777 39.72C394.777 39.0267 394.624 38.4333 394.317 37.94C394.011 37.4333 393.591 37.0533 393.057 36.8C392.537 36.5333 391.957 36.4 391.317 36.4C390.397 36.4 389.611 36.6933 388.957 37.28C388.317 37.8667 387.951 38.68 387.857 39.72H394.777ZM413.74 34.84C414.593 34.84 415.353 35.02 416.02 35.38C416.686 35.7267 417.213 36.2533 417.6 36.96C417.986 37.6667 418.18 38.5267 418.18 39.54V46H416.38V39.8C416.38 38.7067 416.106 37.8733 415.56 37.3C415.026 36.7133 414.3 36.42 413.38 36.42C412.433 36.42 411.68 36.7267 411.12 37.34C410.56 37.94 410.28 38.8133 410.28 39.96V46H408.48V39.8C408.48 38.7067 408.206 37.8733 407.66 37.3C407.126 36.7133 406.4 36.42 405.48 36.42C404.533 36.42 403.78 36.7267 403.22 37.34C402.66 37.94 402.38 38.8133 402.38 39.96V46H400.56V35.04H402.38V36.62C402.74 36.0467 403.22 35.6067 403.82 35.3C404.433 34.9933 405.106 34.84 405.84 34.84C406.76 34.84 407.573 35.0467 408.28 35.46C408.986 35.8733 409.513 36.48 409.86 37.28C410.166 36.5067 410.673 35.9067 411.38 35.48C412.086 35.0533 412.873 34.84 413.74 34.84ZM424.485 37.08C424.858 36.4267 425.405 35.8933 426.125 35.48C426.845 35.0667 427.665 34.86 428.585 34.86C429.572 34.86 430.458 35.0933 431.245 35.56C432.032 36.0267 432.652 36.6867 433.105 37.54C433.558 38.38 433.785 39.36 433.785 40.48C433.785 41.5867 433.558 42.5733 433.105 43.44C432.652 44.3067 432.025 44.98 431.225 45.46C430.438 45.94 429.558 46.18 428.585 46.18C427.638 46.18 426.805 45.9733 426.085 45.56C425.378 45.1467 424.845 44.62 424.485 43.98V46H422.665V31.2H424.485V37.08ZM431.925 40.48C431.925 39.6533 431.758 38.9333 431.425 38.32C431.092 37.7067 430.638 37.24 430.065 36.92C429.505 36.6 428.885 36.44 428.205 36.44C427.538 36.44 426.918 36.6067 426.345 36.94C425.785 37.26 425.332 37.7333 424.985 38.36C424.652 38.9733 424.485 39.6867 424.485 40.5C424.485 41.3267 424.652 42.0533 424.985 42.68C425.332 43.2933 425.785 43.7667 426.345 44.1C426.918 44.42 427.538 44.58 428.205 44.58C428.885 44.58 429.505 44.42 430.065 44.1C430.638 43.7667 431.092 43.2933 431.425 42.68C431.758 42.0533 431.925 41.32 431.925 40.48ZM439.501 31.2V46H437.681V31.2H439.501ZM453.543 35.04L446.943 51.16H445.062L447.223 45.88L442.803 35.04H444.823L448.263 43.92L451.663 35.04H453.543ZM465.924 36.54V43C465.924 43.5333 466.037 43.9133 466.264 44.14C466.491 44.3533 466.884 44.46 467.444 44.46H468.784V46H467.144C466.131 46 465.371 45.7667 464.864 45.3C464.357 44.8333 464.104 44.0667 464.104 43V36.54H462.684V35.04H464.104V32.28H465.924V35.04H468.784V36.54H465.924ZM477.269 46.18C476.243 46.18 475.309 45.9467 474.469 45.48C473.643 45.0133 472.989 44.3533 472.509 43.5C472.043 42.6333 471.809 41.6333 471.809 40.5C471.809 39.38 472.049 38.3933 472.529 37.54C473.023 36.6733 473.689 36.0133 474.529 35.56C475.369 35.0933 476.309 34.86 477.349 34.86C478.389 34.86 479.329 35.0933 480.169 35.56C481.009 36.0133 481.669 36.6667 482.149 37.52C482.643 38.3733 482.889 39.3667 482.889 40.5C482.889 41.6333 482.636 42.6333 482.129 43.5C481.636 44.3533 480.963 45.0133 480.109 45.48C479.256 45.9467 478.309 46.18 477.269 46.18ZM477.269 44.58C477.923 44.58 478.536 44.4267 479.109 44.12C479.683 43.8133 480.143 43.3533 480.489 42.74C480.849 42.1267 481.029 41.38 481.029 40.5C481.029 39.62 480.856 38.8733 480.509 38.26C480.163 37.6467 479.709 37.1933 479.149 36.9C478.589 36.5933 477.983 36.44 477.329 36.44C476.663 36.44 476.049 36.5933 475.489 36.9C474.943 37.1933 474.503 37.6467 474.169 38.26C473.836 38.8733 473.669 39.62 473.669 40.5C473.669 41.3933 473.829 42.1467 474.149 42.76C474.483 43.3733 474.923 43.8333 475.469 44.14C476.016 44.4333 476.616 44.58 477.269 44.58ZM498.034 46.14C497.114 46.14 496.288 45.98 495.554 45.66C494.834 45.3267 494.268 44.8733 493.854 44.3C493.441 43.7133 493.228 43.04 493.214 42.28H495.154C495.221 42.9333 495.488 43.4867 495.954 43.94C496.434 44.38 497.128 44.6 498.034 44.6C498.901 44.6 499.581 44.3867 500.074 43.96C500.581 43.52 500.834 42.96 500.834 42.28C500.834 41.7467 500.688 41.3133 500.394 40.98C500.101 40.6467 499.734 40.3933 499.294 40.22C498.854 40.0467 498.261 39.86 497.514 39.66C496.594 39.42 495.854 39.18 495.294 38.94C494.748 38.7 494.274 38.3267 493.874 37.82C493.488 37.3 493.294 36.6067 493.294 35.74C493.294 34.98 493.488 34.3067 493.874 33.72C494.261 33.1333 494.801 32.68 495.494 32.36C496.201 32.04 497.008 31.88 497.914 31.88C499.221 31.88 500.288 32.2067 501.114 32.86C501.954 33.5133 502.428 34.38 502.534 35.46H500.534C500.468 34.9267 500.188 34.46 499.694 34.06C499.201 33.6467 498.548 33.44 497.734 33.44C496.974 33.44 496.354 33.64 495.874 34.04C495.394 34.4267 495.154 34.9733 495.154 35.68C495.154 36.1867 495.294 36.6 495.574 36.92C495.868 37.24 496.221 37.4867 496.634 37.66C497.061 37.82 497.654 38.0067 498.414 38.22C499.334 38.4733 500.074 38.7267 500.634 38.98C501.194 39.22 501.674 39.6 502.074 40.12C502.474 40.6267 502.674 41.32 502.674 42.2C502.674 42.88 502.494 43.52 502.134 44.12C501.774 44.72 501.241 45.2067 500.534 45.58C499.828 45.9533 498.994 46.14 498.034 46.14ZM511.633 46.18C510.606 46.18 509.673 45.9467 508.833 45.48C508.006 45.0133 507.353 44.3533 506.873 43.5C506.406 42.6333 506.173 41.6333 506.173 40.5C506.173 39.38 506.413 38.3933 506.893 37.54C507.386 36.6733 508.053 36.0133 508.893 35.56C509.733 35.0933 510.673 34.86 511.713 34.86C512.753 34.86 513.693 35.0933 514.533 35.56C515.373 36.0133 516.033 36.6667 516.513 37.52C517.006 38.3733 517.253 39.3667 517.253 40.5C517.253 41.6333 516.999 42.6333 516.493 43.5C515.999 44.3533 515.326 45.0133 514.473 45.48C513.619 45.9467 512.673 46.18 511.633 46.18ZM511.633 44.58C512.286 44.58 512.899 44.4267 513.473 44.12C514.046 43.8133 514.506 43.3533 514.853 42.74C515.213 42.1267 515.393 41.38 515.393 40.5C515.393 39.62 515.219 38.8733 514.873 38.26C514.526 37.6467 514.073 37.1933 513.513 36.9C512.953 36.5933 512.346 36.44 511.693 36.44C511.026 36.44 510.413 36.5933 509.853 36.9C509.306 37.1933 508.866 37.6467 508.533 38.26C508.199 38.8733 508.033 39.62 508.033 40.5C508.033 41.3933 508.193 42.1467 508.513 42.76C508.846 43.3733 509.286 43.8333 509.833 44.14C510.379 44.4333 510.979 44.58 511.633 44.58ZM525.605 36.54H523.305V46H521.485V36.54H520.065V35.04H521.485V34.26C521.485 33.0333 521.799 32.14 522.425 31.58C523.065 31.0067 524.085 30.72 525.485 30.72V32.24C524.685 32.24 524.119 32.4 523.785 32.72C523.465 33.0267 523.305 33.54 523.305 34.26V35.04H525.605V36.54ZM531.448 36.54V43C531.448 43.5333 531.561 43.9133 531.788 44.14C532.014 44.3533 532.408 44.46 532.967 44.46H534.308V46H532.668C531.654 46 530.894 45.7667 530.388 45.3C529.881 44.8333 529.628 44.0667 529.628 43V36.54H528.208V35.04H529.628V32.28H531.448V35.04H534.308V36.54H531.448ZM552.613 35.04L549.193 46H547.313L544.673 37.3L542.033 46H540.153L536.713 35.04H538.573L541.093 44.24L543.813 35.04H545.673L548.333 44.26L550.813 35.04H552.613ZM555.239 40.48C555.239 39.36 555.466 38.38 555.919 37.54C556.372 36.6867 556.992 36.0267 557.779 35.56C558.579 35.0933 559.466 34.86 560.439 34.86C561.399 34.86 562.232 35.0667 562.939 35.48C563.646 35.8933 564.172 36.4133 564.519 37.04V35.04H566.359V46H564.519V43.96C564.159 44.6 563.619 45.1333 562.899 45.56C562.192 45.9733 561.366 46.18 560.419 46.18C559.446 46.18 558.566 45.94 557.779 45.46C556.992 44.98 556.372 44.3067 555.919 43.44C555.466 42.5733 555.239 41.5867 555.239 40.48ZM564.519 40.5C564.519 39.6733 564.352 38.9533 564.019 38.34C563.686 37.7267 563.232 37.26 562.659 36.94C562.099 36.6067 561.479 36.44 560.799 36.44C560.119 36.44 559.499 36.6 558.939 36.92C558.379 37.24 557.932 37.7067 557.599 38.32C557.266 38.9333 557.099 39.6533 557.099 40.48C557.099 41.32 557.266 42.0533 557.599 42.68C557.932 43.2933 558.379 43.7667 558.939 44.1C559.499 44.42 560.119 44.58 560.799 44.58C561.479 44.58 562.099 44.42 562.659 44.1C563.232 43.7667 563.686 43.2933 564.019 42.68C564.352 42.0533 564.519 41.3267 564.519 40.5ZM572.755 36.82C573.075 36.1933 573.528 35.7067 574.115 35.36C574.715 35.0133 575.441 34.84 576.295 34.84V36.72H575.815C573.775 36.72 572.755 37.8267 572.755 40.04V46H570.935V35.04H572.755V36.82ZM589.895 40.1C589.895 40.4467 589.875 40.8133 589.835 41.2H581.075C581.142 42.28 581.509 43.1267 582.175 43.74C582.855 44.34 583.675 44.64 584.635 44.64C585.422 44.64 586.075 44.46 586.595 44.1C587.129 43.7267 587.502 43.2333 587.715 42.62H589.675C589.382 43.6733 588.795 44.5333 587.915 45.2C587.035 45.8533 585.942 46.18 584.635 46.18C583.595 46.18 582.662 45.9467 581.835 45.48C581.022 45.0133 580.382 44.3533 579.915 43.5C579.449 42.6333 579.215 41.6333 579.215 40.5C579.215 39.3667 579.442 38.3733 579.895 37.52C580.349 36.6667 580.982 36.0133 581.795 35.56C582.622 35.0933 583.569 34.86 584.635 34.86C585.675 34.86 586.595 35.0867 587.395 35.54C588.195 35.9933 588.809 36.62 589.235 37.42C589.675 38.2067 589.895 39.1 589.895 40.1ZM588.015 39.72C588.015 39.0267 587.862 38.4333 587.555 37.94C587.249 37.4333 586.829 37.0533 586.295 36.8C585.775 36.5333 585.195 36.4 584.555 36.4C583.635 36.4 582.849 36.6933 582.195 37.28C581.555 37.8667 581.189 38.68 581.095 39.72H588.015ZM599.95 40.48C599.95 39.36 600.177 38.38 600.63 37.54C601.083 36.6867 601.703 36.0267 602.49 35.56C603.29 35.0933 604.183 34.86 605.17 34.86C606.023 34.86 606.817 35.06 607.55 35.46C608.283 35.8467 608.843 36.36 609.23 37V31.2H611.07V46H609.23V43.94C608.87 44.5933 608.337 45.1333 607.63 45.56C606.923 45.9733 606.097 46.18 605.15 46.18C604.177 46.18 603.29 45.94 602.49 45.46C601.703 44.98 601.083 44.3067 600.63 43.44C600.177 42.5733 599.95 41.5867 599.95 40.48ZM609.23 40.5C609.23 39.6733 609.063 38.9533 608.73 38.34C608.397 37.7267 607.943 37.26 607.37 36.94C606.81 36.6067 606.19 36.44 605.51 36.44C604.83 36.44 604.21 36.6 603.65 36.92C603.09 37.24 602.643 37.7067 602.31 38.32C601.977 38.9333 601.81 39.6533 601.81 40.48C601.81 41.32 601.977 42.0533 602.31 42.68C602.643 43.2933 603.09 43.7667 603.65 44.1C604.21 44.42 604.83 44.58 605.51 44.58C606.19 44.58 606.81 44.42 607.37 44.1C607.943 43.7667 608.397 43.2933 608.73 42.68C609.063 42.0533 609.23 41.3267 609.23 40.5ZM625.645 40.1C625.645 40.4467 625.625 40.8133 625.585 41.2H616.825C616.892 42.28 617.259 43.1267 617.925 43.74C618.605 44.34 619.425 44.64 620.385 44.64C621.172 44.64 621.825 44.46 622.345 44.1C622.879 43.7267 623.252 43.2333 623.465 42.62H625.425C625.132 43.6733 624.545 44.5333 623.665 45.2C622.785 45.8533 621.692 46.18 620.385 46.18C619.345 46.18 618.412 45.9467 617.585 45.48C616.772 45.0133 616.132 44.3533 615.665 43.5C615.199 42.6333 614.965 41.6333 614.965 40.5C614.965 39.3667 615.192 38.3733 615.645 37.52C616.099 36.6667 616.732 36.0133 617.545 35.56C618.372 35.0933 619.319 34.86 620.385 34.86C621.425 34.86 622.345 35.0867 623.145 35.54C623.945 35.9933 624.559 36.62 624.985 37.42C625.425 38.2067 625.645 39.1 625.645 40.1ZM623.765 39.72C623.765 39.0267 623.612 38.4333 623.305 37.94C622.999 37.4333 622.579 37.0533 622.045 36.8C621.525 36.5333 620.945 36.4 620.305 36.4C619.385 36.4 618.599 36.6933 617.945 37.28C617.305 37.8667 616.939 38.68 616.845 39.72H623.765ZM633.628 44.32L637.028 35.04H638.968L634.668 46H632.548L628.248 35.04H630.208L633.628 44.32ZM652.259 40.1C652.259 40.4467 652.239 40.8133 652.199 41.2H643.439C643.505 42.28 643.872 43.1267 644.539 43.74C645.219 44.34 646.039 44.64 646.999 44.64C647.785 44.64 648.439 44.46 648.959 44.1C649.492 43.7267 649.865 43.2333 650.079 42.62H652.039C651.745 43.6733 651.159 44.5333 650.279 45.2C649.399 45.8533 648.305 46.18 646.999 46.18C645.959 46.18 645.025 45.9467 644.199 45.48C643.385 45.0133 642.745 44.3533 642.279 43.5C641.812 42.6333 641.579 41.6333 641.579 40.5C641.579 39.3667 641.805 38.3733 642.259 37.52C642.712 36.6667 643.345 36.0133 644.159 35.56C644.985 35.0933 645.932 34.86 646.999 34.86C648.039 34.86 648.959 35.0867 649.759 35.54C650.559 35.9933 651.172 36.62 651.599 37.42C652.039 38.2067 652.259 39.1 652.259 40.1ZM650.379 39.72C650.379 39.0267 650.225 38.4333 649.919 37.94C649.612 37.4333 649.192 37.0533 648.659 36.8C648.139 36.5333 647.559 36.4 646.919 36.4C645.999 36.4 645.212 36.6933 644.559 37.28C643.919 37.8667 643.552 38.68 643.459 39.72H650.379ZM657.981 31.2V46H656.161V31.2H657.981ZM667.363 46.18C666.336 46.18 665.403 45.9467 664.563 45.48C663.736 45.0133 663.083 44.3533 662.603 43.5C662.136 42.6333 661.903 41.6333 661.903 40.5C661.903 39.38 662.143 38.3933 662.623 37.54C663.116 36.6733 663.783 36.0133 664.623 35.56C665.463 35.0933 666.403 34.86 667.443 34.86C668.483 34.86 669.423 35.0933 670.263 35.56C671.103 36.0133 671.763 36.6667 672.243 37.52C672.736 38.3733 672.983 39.3667 672.983 40.5C672.983 41.6333 672.73 42.6333 672.223 43.5C671.73 44.3533 671.056 45.0133 670.203 45.48C669.35 45.9467 668.403 46.18 667.363 46.18ZM667.363 44.58C668.016 44.58 668.63 44.4267 669.203 44.12C669.776 43.8133 670.236 43.3533 670.583 42.74C670.943 42.1267 671.123 41.38 671.123 40.5C671.123 39.62 670.95 38.8733 670.603 38.26C670.256 37.6467 669.803 37.1933 669.243 36.9C668.683 36.5933 668.076 36.44 667.423 36.44C666.756 36.44 666.143 36.5933 665.583 36.9C665.036 37.1933 664.596 37.6467 664.263 38.26C663.93 38.8733 663.763 39.62 663.763 40.5C663.763 41.3933 663.923 42.1467 664.243 42.76C664.576 43.3733 665.016 43.8333 665.563 44.14C666.11 44.4333 666.71 44.58 667.363 44.58ZM678.696 37.06C679.056 36.4333 679.589 35.9133 680.296 35.5C681.016 35.0733 681.849 34.86 682.796 34.86C683.769 34.86 684.649 35.0933 685.436 35.56C686.236 36.0267 686.863 36.6867 687.316 37.54C687.769 38.38 687.996 39.36 687.996 40.48C687.996 41.5867 687.769 42.5733 687.316 43.44C686.863 44.3067 686.236 44.98 685.436 45.46C684.649 45.94 683.769 46.18 682.796 46.18C681.863 46.18 681.036 45.9733 680.316 45.56C679.609 45.1333 679.069 44.6067 678.696 43.98V51.2H676.876V35.04H678.696V37.06ZM686.136 40.48C686.136 39.6533 685.969 38.9333 685.636 38.32C685.303 37.7067 684.849 37.24 684.276 36.92C683.716 36.6 683.096 36.44 682.416 36.44C681.749 36.44 681.129 36.6067 680.556 36.94C679.996 37.26 679.543 37.7333 679.196 38.36C678.863 38.9733 678.696 39.6867 678.696 40.5C678.696 41.3267 678.863 42.0533 679.196 42.68C679.543 43.2933 679.996 43.7667 680.556 44.1C681.129 44.42 681.749 44.58 682.416 44.58C683.096 44.58 683.716 44.42 684.276 44.1C684.849 43.7667 685.303 43.2933 685.636 42.68C685.969 42.0533 686.136 41.32 686.136 40.48ZM705.072 34.84C705.925 34.84 706.685 35.02 707.352 35.38C708.018 35.7267 708.545 36.2533 708.932 36.96C709.318 37.6667 709.512 38.5267 709.512 39.54V46H707.712V39.8C707.712 38.7067 707.438 37.8733 706.892 37.3C706.358 36.7133 705.632 36.42 704.712 36.42C703.765 36.42 703.012 36.7267 702.452 37.34C701.892 37.94 701.612 38.8133 701.612 39.96V46H699.812V39.8C699.812 38.7067 699.538 37.8733 698.992 37.3C698.458 36.7133 697.732 36.42 696.812 36.42C695.865 36.42 695.112 36.7267 694.552 37.34C693.992 37.94 693.712 38.8133 693.712 39.96V46H691.892V35.04H693.712V36.62C694.072 36.0467 694.552 35.6067 695.152 35.3C695.765 34.9933 696.438 34.84 697.172 34.84C698.092 34.84 698.905 35.0467 699.612 35.46C700.318 35.8733 700.845 36.48 701.192 37.28C701.498 36.5067 702.005 35.9067 702.712 35.48C703.418 35.0533 704.205 34.84 705.072 34.84ZM723.997 40.1C723.997 40.4467 723.977 40.8133 723.937 41.2H715.177C715.244 42.28 715.61 43.1267 716.277 43.74C716.957 44.34 717.777 44.64 718.737 44.64C719.524 44.64 720.177 44.46 720.697 44.1C721.23 43.7267 721.604 43.2333 721.817 42.62H723.777C723.484 43.6733 722.897 44.5333 722.017 45.2C721.137 45.8533 720.044 46.18 718.737 46.18C717.697 46.18 716.764 45.9467 715.937 45.48C715.124 45.0133 714.484 44.3533 714.017 43.5C713.55 42.6333 713.317 41.6333 713.317 40.5C713.317 39.3667 713.544 38.3733 713.997 37.52C714.45 36.6667 715.084 36.0133 715.897 35.56C716.724 35.0933 717.67 34.86 718.737 34.86C719.777 34.86 720.697 35.0867 721.497 35.54C722.297 35.9933 722.91 36.62 723.337 37.42C723.777 38.2067 723.997 39.1 723.997 40.1ZM722.117 39.72C722.117 39.0267 721.964 38.4333 721.657 37.94C721.35 37.4333 720.93 37.0533 720.397 36.8C719.877 36.5333 719.297 36.4 718.657 36.4C717.737 36.4 716.95 36.6933 716.297 37.28C715.657 37.8667 715.29 38.68 715.197 39.72H722.117ZM733.239 34.84C734.573 34.84 735.653 35.2467 736.479 36.06C737.306 36.86 737.719 38.02 737.719 39.54V46H735.919V39.8C735.919 38.7067 735.646 37.8733 735.099 37.3C734.553 36.7133 733.806 36.42 732.859 36.42C731.899 36.42 731.133 36.72 730.559 37.32C729.999 37.92 729.719 38.7933 729.719 39.94V46H727.899V35.04H729.719V36.6C730.079 36.04 730.566 35.6067 731.179 35.3C731.806 34.9933 732.493 34.84 733.239 34.84ZM744.412 36.54V43C744.412 43.5333 744.526 43.9133 744.752 44.14C744.979 44.3533 745.372 44.46 745.932 44.46H747.272V46H745.632C744.619 46 743.859 45.7667 743.352 45.3C742.846 44.8333 742.592 44.0667 742.592 43V36.54H741.172V35.04H742.592V32.28H744.412V35.04H747.272V36.54H744.412ZM751.558 46.12C751.211 46.12 750.918 46 750.678 45.76C750.438 45.52 750.318 45.2267 750.318 44.88C750.318 44.5333 750.438 44.24 750.678 44C750.918 43.76 751.211 43.64 751.558 43.64C751.891 43.64 752.171 43.76 752.398 44C752.638 44.24 752.758 44.5333 752.758 44.88C752.758 45.2267 752.638 45.52 752.398 45.76C752.171 46 751.891 46.12 751.558 46.12Z" fill="white"/>
</svg>
