<svg width="504" height="56" viewBox="0 0 504 56" fill="none" xmlns="http://www.w3.org/2000/svg">
<path d="M14.05 42.35C11.3833 42.35 9.01667 41.9167 6.95 41.05C4.91667 40.1833 3.3 38.9833 2.1 37.45C0.9 35.9167 0.216667 34.1833 0.0500001 32.25H10.7C10.8333 33.0833 11.1833 33.7 11.75 34.1C12.35 34.5 13.1 34.7 14 34.7C14.5667 34.7 15.0167 34.5833 15.35 34.35C15.6833 34.0833 15.85 33.7667 15.85 33.4C15.85 32.7667 15.5 32.3167 14.8 32.05C14.1 31.7833 12.9167 31.4833 11.25 31.15C9.21667 30.75 7.53333 30.3167 6.2 29.85C4.9 29.3833 3.75 28.5833 2.75 27.45C1.78333 26.3167 1.3 24.75 1.3 22.75C1.3 21.0167 1.75 19.45 2.65 18.05C3.58333 16.6167 4.95 15.5 6.75 14.7C8.55 13.8667 10.7333 13.45 13.3 13.45C17.1 13.45 20.0667 14.3833 22.2 16.25C24.3667 18.1167 25.6667 20.55 26.1 23.55H16.25C16.0833 22.7833 15.7333 22.2 15.2 21.8C14.6667 21.3667 13.95 21.15 13.05 21.15C12.4833 21.15 12.05 21.2667 11.75 21.5C11.45 21.7 11.3 22.0167 11.3 22.45C11.3 23.0167 11.65 23.45 12.35 23.75C13.05 24.0167 14.1667 24.3 15.7 24.6C17.7333 25 19.45 25.45 20.85 25.95C22.25 26.45 23.4667 27.3167 24.5 28.55C25.5333 29.75 26.05 31.4167 26.05 33.55C26.05 35.2167 25.5667 36.7167 24.6 38.05C23.6333 39.3833 22.2333 40.4333 20.4 41.2C18.6 41.9667 16.4833 42.35 14.05 42.35ZM36.0551 11.55C34.1217 11.55 32.5717 11.0333 31.4051 10C30.2384 8.96667 29.6551 7.66667 29.6551 6.1C29.6551 4.5 30.2384 3.18333 31.4051 2.15C32.5717 1.08333 34.1217 0.549997 36.0551 0.549997C37.9551 0.549997 39.4884 1.08333 40.6551 2.15C41.8217 3.18333 42.4051 4.5 42.4051 6.1C42.4051 7.66667 41.8217 8.96667 40.6551 10C39.4884 11.0333 37.9551 11.55 36.0551 11.55ZM41.5551 13.8V42H30.4551V13.8H41.5551ZM84.2184 13.6C87.8184 13.6 90.6017 14.6833 92.5684 16.85C94.5684 19.0167 95.5684 21.95 95.5684 25.65V42H84.5184V27.05C84.5184 25.85 84.1517 24.9167 83.4184 24.25C82.7184 23.55 81.7684 23.2 80.5684 23.2C79.335 23.2 78.3684 23.55 77.6684 24.25C76.9684 24.9167 76.6184 25.85 76.6184 27.05V42H65.5684V27.05C65.5684 25.85 65.2017 24.9167 64.4684 24.25C63.7684 23.55 62.8184 23.2 61.6184 23.2C60.385 23.2 59.4184 23.55 58.7184 24.25C58.0184 24.9167 57.6684 25.85 57.6684 27.05V42H46.5684V13.8H57.6684V17.6C58.4684 16.4 59.5517 15.4333 60.9184 14.7C62.3184 13.9667 63.9517 13.6 65.8184 13.6C67.8517 13.6 69.6517 14.05 71.2184 14.95C72.785 15.8167 74.035 17.05 74.9684 18.65C76.0017 17.1833 77.3184 15.9833 78.9184 15.05C80.5184 14.0833 82.285 13.6 84.2184 13.6ZM111.477 17.65C112.177 16.35 113.177 15.3333 114.477 14.6C115.81 13.8333 117.394 13.45 119.227 13.45C121.427 13.45 123.41 14.0333 125.177 15.2C126.944 16.3333 128.327 18 129.327 20.2C130.36 22.3667 130.877 24.9333 130.877 27.9C130.877 30.8667 130.36 33.45 129.327 35.65C128.327 37.8167 126.944 39.4833 125.177 40.65C123.41 41.7833 121.427 42.35 119.227 42.35C117.394 42.35 115.81 41.9833 114.477 41.25C113.177 40.4833 112.177 39.45 111.477 38.15V55.5H100.377V13.8H111.477V17.65ZM119.627 27.9C119.627 26.4 119.244 25.2333 118.477 24.4C117.71 23.5667 116.727 23.15 115.527 23.15C114.327 23.15 113.344 23.5667 112.577 24.4C111.81 25.2333 111.427 26.4 111.427 27.9C111.427 29.4 111.81 30.5667 112.577 31.4C113.344 32.2333 114.327 32.65 115.527 32.65C116.727 32.65 117.71 32.2333 118.477 31.4C119.244 30.5667 119.627 29.4 119.627 27.9ZM145.461 5V42H134.361V5H145.461ZM156.075 11.55C154.141 11.55 152.591 11.0333 151.425 10C150.258 8.96667 149.675 7.66667 149.675 6.1C149.675 4.5 150.258 3.18333 151.425 2.15C152.591 1.08333 154.141 0.549997 156.075 0.549997C157.975 0.549997 159.508 1.08333 160.675 2.15C161.841 3.18333 162.425 4.5 162.425 6.1C162.425 7.66667 161.841 8.96667 160.675 10C159.508 11.0333 157.975 11.55 156.075 11.55ZM161.575 13.8V42H150.475V13.8H161.575ZM182.838 11.8C182.238 11.7333 181.821 11.7 181.588 11.7C180.755 11.7 180.121 11.8667 179.688 12.2C179.255 12.5 178.955 13.0333 178.788 13.8H182.838V23.05H178.688V42H167.588V23.05H164.588V13.8H167.588C167.655 10.1333 168.805 7.3 171.038 5.3C173.305 3.26667 176.471 2.25 180.538 2.25C181.005 2.25 181.771 2.28333 182.838 2.35V11.8ZM217.676 13.8L199.626 55.5H187.476L194.576 40.6L182.826 13.8H195.176L200.476 28.1L205.426 13.8H217.676ZM226.66 27.9C226.66 24.9333 227.16 22.3667 228.16 20.2C229.193 18 230.593 16.3333 232.36 15.2C234.127 14.0333 236.11 13.45 238.31 13.45C240.143 13.45 241.71 13.8333 243.01 14.6C244.343 15.3333 245.36 16.35 246.06 17.65V5H257.16V42H246.06V38.15C245.36 39.45 244.343 40.4833 243.01 41.25C241.71 41.9833 240.143 42.35 238.31 42.35C236.11 42.35 234.127 41.7833 232.36 40.65C230.593 39.4833 229.193 37.8167 228.16 35.65C227.16 33.45 226.66 30.8667 226.66 27.9ZM246.11 27.9C246.11 26.4 245.727 25.2333 244.96 24.4C244.193 23.5667 243.21 23.15 242.01 23.15C240.81 23.15 239.827 23.5667 239.06 24.4C238.293 25.2333 237.91 26.4 237.91 27.9C237.91 29.4 238.293 30.5667 239.06 31.4C239.827 32.2333 240.81 32.65 242.01 32.65C243.21 32.65 244.193 32.2333 244.96 31.4C245.727 30.5667 246.11 29.4 246.11 27.9ZM289.445 27.65C289.445 28.4167 289.395 29.15 289.295 29.85H271.445C271.611 32.2833 272.628 33.5 274.495 33.5C275.695 33.5 276.561 32.95 277.095 31.85H288.845C288.445 33.85 287.595 35.65 286.295 37.25C285.028 38.8167 283.411 40.0667 281.445 41C279.511 41.9 277.378 42.35 275.045 42.35C272.245 42.35 269.745 41.7667 267.545 40.6C265.378 39.4333 263.678 37.7667 262.445 35.6C261.245 33.4 260.645 30.8333 260.645 27.9C260.645 24.9667 261.245 22.4167 262.445 20.25C263.678 18.05 265.378 16.3667 267.545 15.2C269.745 14.0333 272.245 13.45 275.045 13.45C277.845 13.45 280.328 14.0333 282.495 15.2C284.695 16.3333 286.395 17.9667 287.595 20.1C288.828 22.2333 289.445 24.75 289.445 27.65ZM278.195 25C278.195 24.0667 277.895 23.3667 277.295 22.9C276.695 22.4 275.945 22.15 275.045 22.15C273.078 22.15 271.928 23.1 271.595 25H278.195ZM305.505 42.35C302.838 42.35 300.472 41.9167 298.405 41.05C296.372 40.1833 294.755 38.9833 293.555 37.45C292.355 35.9167 291.672 34.1833 291.505 32.25H302.155C302.288 33.0833 302.638 33.7 303.205 34.1C303.805 34.5 304.555 34.7 305.455 34.7C306.022 34.7 306.472 34.5833 306.805 34.35C307.138 34.0833 307.305 33.7667 307.305 33.4C307.305 32.7667 306.955 32.3167 306.255 32.05C305.555 31.7833 304.372 31.4833 302.705 31.15C300.672 30.75 298.988 30.3167 297.655 29.85C296.355 29.3833 295.205 28.5833 294.205 27.45C293.238 26.3167 292.755 24.75 292.755 22.75C292.755 21.0167 293.205 19.45 294.105 18.05C295.038 16.6167 296.405 15.5 298.205 14.7C300.005 13.8667 302.188 13.45 304.755 13.45C308.555 13.45 311.522 14.3833 313.655 16.25C315.822 18.1167 317.122 20.55 317.555 23.55H307.705C307.538 22.7833 307.188 22.2 306.655 21.8C306.122 21.3667 305.405 21.15 304.505 21.15C303.938 21.15 303.505 21.2667 303.205 21.5C302.905 21.7 302.755 22.0167 302.755 22.45C302.755 23.0167 303.105 23.45 303.805 23.75C304.505 24.0167 305.622 24.3 307.155 24.6C309.188 25 310.905 25.45 312.305 25.95C313.705 26.45 314.922 27.3167 315.955 28.55C316.988 29.75 317.505 31.4167 317.505 33.55C317.505 35.2167 317.022 36.7167 316.055 38.05C315.088 39.3833 313.688 40.4333 311.855 41.2C310.055 41.9667 307.938 42.35 305.505 42.35ZM327.51 11.55C325.577 11.55 324.027 11.0333 322.86 10C321.693 8.96667 321.11 7.66667 321.11 6.1C321.11 4.5 321.693 3.18333 322.86 2.15C324.027 1.08333 325.577 0.549997 327.51 0.549997C329.41 0.549997 330.943 1.08333 332.11 2.15C333.277 3.18333 333.86 4.5 333.86 6.1C333.86 7.66667 333.277 8.96667 332.11 10C330.943 11.0333 329.41 11.55 327.51 11.55ZM333.01 13.8V42H321.91V13.8H333.01ZM348.173 13.45C350.007 13.45 351.59 13.8333 352.923 14.6C354.257 15.3333 355.273 16.35 355.973 17.65V13.8H367.023V41.5C367.023 44.1333 366.54 46.5333 365.573 48.7C364.607 50.8667 363.04 52.6 360.873 53.9C358.74 55.2 355.99 55.85 352.623 55.85C348.09 55.85 344.49 54.7833 341.823 52.65C339.19 50.55 337.69 47.6833 337.323 44.05H348.223C348.523 45.5167 349.723 46.25 351.823 46.25C353.123 46.25 354.14 45.9167 354.873 45.25C355.607 44.5833 355.973 43.3333 355.973 41.5V38.15C355.273 39.45 354.257 40.4833 352.923 41.25C351.59 41.9833 350.007 42.35 348.173 42.35C345.973 42.35 343.99 41.7833 342.223 40.65C340.457 39.4833 339.057 37.8167 338.023 35.65C337.023 33.45 336.523 30.8667 336.523 27.9C336.523 24.9333 337.023 22.3667 338.023 20.2C339.057 18 340.457 16.3333 342.223 15.2C343.99 14.0333 345.973 13.45 348.173 13.45ZM355.973 27.9C355.973 26.4 355.59 25.2333 354.823 24.4C354.057 23.5667 353.073 23.15 351.873 23.15C350.673 23.15 349.69 23.5667 348.923 24.4C348.157 25.2333 347.773 26.4 347.773 27.9C347.773 29.4 348.157 30.5667 348.923 31.4C349.69 32.2333 350.673 32.65 351.873 32.65C353.073 32.65 354.057 32.2333 354.823 31.4C355.59 30.5667 355.973 29.4 355.973 27.9ZM391.758 13.6C394.991 13.6 397.508 14.6833 399.308 16.85C401.141 19.0167 402.058 21.95 402.058 25.65V42H391.008V27.05C391.008 25.7167 390.641 24.6667 389.908 23.9C389.208 23.1 388.258 22.7 387.058 22.7C385.824 22.7 384.858 23.1 384.158 23.9C383.458 24.6667 383.108 25.7167 383.108 27.05V42H372.008V13.8H383.108V18.1C383.974 16.7667 385.124 15.6833 386.558 14.85C388.024 14.0167 389.758 13.6 391.758 13.6ZM412.471 11.55C410.538 11.55 408.988 11.0333 407.821 10C406.654 8.96667 406.071 7.66667 406.071 6.1C406.071 4.5 406.654 3.18333 407.821 2.15C408.988 1.08333 410.538 0.549997 412.471 0.549997C414.371 0.549997 415.904 1.08333 417.071 2.15C418.238 3.18333 418.821 4.5 418.821 6.1C418.821 7.66667 418.238 8.96667 417.071 10C415.904 11.0333 414.371 11.55 412.471 11.55ZM417.971 13.8V42H406.871V13.8H417.971ZM442.734 13.6C445.968 13.6 448.484 14.6833 450.284 16.85C452.118 19.0167 453.034 21.95 453.034 25.65V42H441.984V27.05C441.984 25.7167 441.618 24.6667 440.884 23.9C440.184 23.1 439.234 22.7 438.034 22.7C436.801 22.7 435.834 23.1 435.134 23.9C434.434 24.6667 434.084 25.7167 434.084 27.05V42H422.984V13.8H434.084V18.1C434.951 16.7667 436.101 15.6833 437.534 14.85C439.001 14.0167 440.734 13.6 442.734 13.6ZM467.998 13.45C469.831 13.45 471.414 13.8333 472.748 14.6C474.081 15.3333 475.098 16.35 475.798 17.65V13.8H486.848V41.5C486.848 44.1333 486.364 46.5333 485.398 48.7C484.431 50.8667 482.864 52.6 480.698 53.9C478.564 55.2 475.814 55.85 472.448 55.85C467.914 55.85 464.314 54.7833 461.648 52.65C459.014 50.55 457.514 47.6833 457.148 44.05H468.048C468.348 45.5167 469.548 46.25 471.648 46.25C472.948 46.25 473.964 45.9167 474.698 45.25C475.431 44.5833 475.798 43.3333 475.798 41.5V38.15C475.098 39.45 474.081 40.4833 472.748 41.25C471.414 41.9833 469.831 42.35 467.998 42.35C465.798 42.35 463.814 41.7833 462.048 40.65C460.281 39.4833 458.881 37.8167 457.848 35.65C456.848 33.45 456.348 30.8667 456.348 27.9C456.348 24.9333 456.848 22.3667 457.848 20.2C458.881 18 460.281 16.3333 462.048 15.2C463.814 14.0333 465.798 13.45 467.998 13.45ZM475.798 27.9C475.798 26.4 475.414 25.2333 474.648 24.4C473.881 23.5667 472.898 23.15 471.698 23.15C470.498 23.15 469.514 23.5667 468.748 24.4C467.981 25.2333 467.598 26.4 467.598 27.9C467.598 29.4 467.981 30.5667 468.748 31.4C469.514 32.2333 470.498 32.65 471.698 32.65C472.898 32.65 473.881 32.2333 474.648 31.4C475.414 30.5667 475.798 29.4 475.798 27.9ZM497.332 42.4C495.399 42.4 493.849 41.8833 492.682 40.85C491.515 39.8167 490.932 38.5167 490.932 36.95C490.932 35.35 491.515 34.0333 492.682 33C493.849 31.9333 495.399 31.4 497.332 31.4C499.232 31.4 500.765 31.9333 501.932 33C503.099 34.0333 503.682 35.35 503.682 36.95C503.682 38.5167 503.099 39.8167 501.932 40.85C500.765 41.8833 499.232 42.4 497.332 42.4Z" fill="white"/>
</svg>
