<svg width="983" height="111" viewBox="0 0 983 111" fill="none" xmlns="http://www.w3.org/2000/svg">
<path d="M30.936 38.064H14.168L11.48 46H0.024L16.28 1.072H28.952L45.208 46H33.624L30.936 38.064ZM28.12 29.616L22.552 13.168L17.048 29.616H28.12ZM65.7075 1.072V27.952C65.7075 30.64 66.3688 32.7093 67.6915 34.16C69.0142 35.6107 70.9555 36.336 73.5155 36.336C76.0755 36.336 78.0382 35.6107 79.4035 34.16C80.7688 32.7093 81.4515 30.64 81.4515 27.952V1.072H92.3955V27.888C92.3955 31.8987 91.5422 35.2907 89.8355 38.064C88.1288 40.8373 85.8248 42.928 82.9235 44.336C80.0648 45.744 76.8648 46.448 73.3235 46.448C69.7822 46.448 66.6035 45.7653 63.7875 44.4C61.0142 42.992 58.8168 40.9013 57.1955 38.128C55.5742 35.312 54.7635 31.8987 54.7635 27.888V1.072H65.7075ZM134.704 15.28C133.894 13.7867 132.72 12.656 131.184 11.888C129.691 11.0773 127.92 10.672 125.872 10.672C122.331 10.672 119.494 11.8453 117.36 14.192C115.227 16.496 114.16 19.5893 114.16 23.472C114.16 27.6107 115.27 30.8533 117.488 33.2C119.75 35.504 122.843 36.656 126.768 36.656C129.456 36.656 131.718 35.9733 133.553 34.608C135.43 33.2427 136.795 31.28 137.648 28.72H123.76V20.656H147.569V30.832C146.758 33.5627 145.371 36.1013 143.409 38.448C141.488 40.7947 139.035 42.6933 136.049 44.144C133.062 45.5947 129.691 46.32 125.937 46.32C121.499 46.32 117.531 45.36 114.032 43.44C110.576 41.4773 107.867 38.768 105.904 35.312C103.984 31.856 103.024 27.9093 103.024 23.472C103.024 19.0347 103.984 15.088 105.904 11.632C107.867 8.13333 110.576 5.424 114.032 3.504C117.488 1.54133 121.435 0.559998 125.872 0.559998C131.249 0.559998 135.771 1.86133 139.441 4.464C143.153 7.06667 145.606 10.672 146.8 15.28H134.704ZM209.31 1.072V46H198.366V19.056L188.318 46H179.486L169.374 18.992V46H158.43V1.072H171.358L183.966 32.176L196.446 1.072H209.31ZM232.924 9.84V18.928H247.58V27.376H232.924V37.232H249.5V46H221.98V1.072H249.5V9.84H232.924ZM301.598 46H290.654L272.35 18.288V46H261.406V1.072H272.35L290.654 28.912V1.072H301.598V46ZM346.65 1.072V9.84H334.746V46H323.802V9.84H311.898V1.072H346.65ZM367.887 1.072V46H356.943V1.072H367.887ZM420.81 46H409.866L391.562 18.288V46H380.618V1.072H391.562L409.866 28.912V1.072H420.81V46ZM463.367 15.28C462.556 13.7867 461.383 12.656 459.847 11.888C458.354 11.0773 456.583 10.672 454.535 10.672C450.994 10.672 448.156 11.8453 446.023 14.192C443.89 16.496 442.823 19.5893 442.823 23.472C442.823 27.6107 443.932 30.8533 446.151 33.2C448.412 35.504 451.506 36.656 455.431 36.656C458.119 36.656 460.38 35.9733 462.215 34.608C464.092 33.2427 465.458 31.28 466.311 28.72H452.423V20.656H476.231V30.832C475.42 33.5627 474.034 36.1013 472.071 38.448C470.151 40.7947 467.698 42.6933 464.711 44.144C461.724 45.5947 458.354 46.32 454.599 46.32C450.162 46.32 446.194 45.36 442.695 43.44C439.239 41.4773 436.53 38.768 434.567 35.312C432.647 31.856 431.687 27.9093 431.687 23.472C431.687 19.0347 432.647 15.088 434.567 11.632C436.53 8.13333 439.239 5.424 442.695 3.504C446.151 1.54133 450.098 0.559998 454.535 0.559998C459.911 0.559998 464.434 1.86133 468.103 4.464C471.815 7.06667 474.268 10.672 475.463 15.28H463.367ZM533.423 38.064H516.655L513.967 46H502.511L518.767 1.072H531.439L547.695 46H536.111L533.423 38.064ZM530.607 29.616L525.039 13.168L519.535 29.616H530.607ZM568.195 1.072V27.952C568.195 30.64 568.856 32.7093 570.179 34.16C571.502 35.6107 573.443 36.336 576.003 36.336C578.563 36.336 580.526 35.6107 581.891 34.16C583.256 32.7093 583.939 30.64 583.939 27.952V1.072H594.883V27.888C594.883 31.8987 594.03 35.2907 592.323 38.064C590.616 40.8373 588.312 42.928 585.411 44.336C582.552 45.744 579.352 46.448 575.811 46.448C572.27 46.448 569.091 45.7653 566.275 44.4C563.502 42.992 561.304 40.9013 559.683 38.128C558.062 35.312 557.251 31.8987 557.251 27.888V1.072H568.195ZM639.688 1.072V9.84H627.784V46H616.84V9.84H604.936V1.072H639.688ZM671.229 46.448C667.005 46.448 663.122 45.4667 659.581 43.504C656.082 41.5413 653.287 38.8107 651.197 35.312C649.149 31.7707 648.125 27.8027 648.125 23.408C648.125 19.0133 649.149 15.0667 651.197 11.568C653.287 8.06933 656.082 5.33867 659.581 3.376C663.122 1.41333 667.005 0.431999 671.229 0.431999C675.453 0.431999 679.314 1.41333 682.813 3.376C686.354 5.33867 689.127 8.06933 691.133 11.568C693.181 15.0667 694.205 19.0133 694.205 23.408C694.205 27.8027 693.181 31.7707 691.133 35.312C689.085 38.8107 686.311 41.5413 682.813 43.504C679.314 45.4667 675.453 46.448 671.229 46.448ZM671.229 36.464C674.813 36.464 677.671 35.2693 679.805 32.88C681.981 30.4907 683.069 27.3333 683.069 23.408C683.069 19.44 681.981 16.2827 679.805 13.936C677.671 11.5467 674.813 10.352 671.229 10.352C667.602 10.352 664.701 11.5253 662.525 13.872C660.391 16.2187 659.325 19.3973 659.325 23.408C659.325 27.376 660.391 30.5547 662.525 32.944C664.701 35.2907 667.602 36.464 671.229 36.464ZM755.973 1.072V46H745.029V19.056L734.981 46H726.149L716.037 18.992V46H705.093V1.072H718.021L730.629 32.176L743.109 1.072H755.973ZM796.611 38.064H779.843L777.155 46H765.699L781.955 1.072H794.627L810.883 46H799.299L796.611 38.064ZM793.795 29.616L788.227 13.168L782.723 29.616H793.795ZM852.95 1.072V9.84H841.046V46H830.102V9.84H818.198V1.072H852.95ZM874.187 1.072V46H863.243V1.072H874.187ZM908.166 46.448C903.942 46.448 900.059 45.4667 896.518 43.504C893.019 41.5413 890.225 38.8107 888.134 35.312C886.086 31.7707 885.062 27.8027 885.062 23.408C885.062 19.0133 886.086 15.0667 888.134 11.568C890.225 8.06933 893.019 5.33867 896.518 3.376C900.059 1.41333 903.942 0.431999 908.166 0.431999C912.39 0.431999 916.251 1.41333 919.75 3.376C923.291 5.33867 926.065 8.06933 928.07 11.568C930.118 15.0667 931.142 19.0133 931.142 23.408C931.142 27.8027 930.118 31.7707 928.07 35.312C926.022 38.8107 923.249 41.5413 919.75 43.504C916.251 45.4667 912.39 46.448 908.166 46.448ZM908.166 36.464C911.75 36.464 914.609 35.2693 916.742 32.88C918.918 30.4907 920.006 27.3333 920.006 23.408C920.006 19.44 918.918 16.2827 916.742 13.936C914.609 11.5467 911.75 10.352 908.166 10.352C904.539 10.352 901.638 11.5253 899.462 13.872C897.329 16.2187 896.262 19.3973 896.262 23.408C896.262 27.376 897.329 30.5547 899.462 32.944C901.638 35.2907 904.539 36.464 908.166 36.464ZM982.223 46H971.279L952.975 18.288V46H942.031V1.072H952.975L971.279 28.912V1.072H982.223V46ZM19.224 110.448C15.9387 110.448 12.9947 109.915 10.392 108.848C7.78933 107.781 5.69867 106.203 4.12 104.112C2.584 102.021 1.77333 99.504 1.688 96.56H13.336C13.5067 98.224 14.0827 99.504 15.064 100.4C16.0453 101.253 17.3253 101.68 18.904 101.68C20.5253 101.68 21.8053 101.317 22.744 100.592C23.6827 99.824 24.152 98.7787 24.152 97.456C24.152 96.3467 23.768 95.4293 23 94.704C22.2747 93.9787 21.3573 93.3813 20.248 92.912C19.1813 92.4427 17.6453 91.9093 15.64 91.312C12.7387 90.416 10.3707 89.52 8.536 88.624C6.70133 87.728 5.12267 86.4053 3.8 84.656C2.47733 82.9067 1.816 80.624 1.816 77.808C1.816 73.6267 3.33067 70.3627 6.36 68.016C9.38933 65.6267 13.336 64.432 18.2 64.432C23.1493 64.432 27.1387 65.6267 30.168 68.016C33.1973 70.3627 34.8187 73.648 35.032 77.872H23.192C23.1067 76.4213 22.5733 75.2907 21.592 74.48C20.6107 73.6267 19.352 73.2 17.816 73.2C16.4933 73.2 15.4267 73.5627 14.616 74.288C13.8053 74.9707 13.4 75.9733 13.4 77.296C13.4 78.7467 14.0827 79.8773 15.448 80.688C16.8133 81.4987 18.9467 82.3733 21.848 83.312C24.7493 84.2933 27.096 85.232 28.888 86.128C30.7227 87.024 32.3013 88.3253 33.624 90.032C34.9467 91.7387 35.608 93.936 35.608 96.624C35.608 99.184 34.9467 101.509 33.624 103.6C32.344 105.691 30.4667 107.355 27.992 108.592C25.5173 109.829 22.5947 110.448 19.224 110.448ZM58.087 65.072V110H47.143V65.072H58.087ZM121.698 65.072V110H110.754V83.056L100.706 110H91.874L81.762 82.992V110H70.818V65.072H83.746L96.354 96.176L108.834 65.072H121.698ZM168.608 79.536C168.608 82.1387 168.011 84.528 166.816 86.704C165.621 88.8373 163.787 90.5653 161.312 91.888C158.837 93.2107 155.765 93.872 152.096 93.872H145.312V110H134.368V65.072H152.096C155.68 65.072 158.709 65.6907 161.184 66.928C163.659 68.1653 165.515 69.872 166.752 72.048C167.989 74.224 168.608 76.72 168.608 79.536ZM151.264 85.168C153.355 85.168 154.912 84.6773 155.936 83.696C156.96 82.7147 157.472 81.328 157.472 79.536C157.472 77.744 156.96 76.3573 155.936 75.376C154.912 74.3947 153.355 73.904 151.264 73.904H145.312V85.168H151.264ZM190.049 101.552H204.385V110H179.105V65.072H190.049V101.552ZM225.35 65.072V110H214.406V65.072H225.35ZM267.329 65.072V73.84H249.025V83.312H262.721V91.824H249.025V110H238.081V65.072H267.329ZM316.409 65.072L300.857 95.152V110H289.913V95.152L274.361 65.072H286.777L295.481 83.888L304.121 65.072H316.409ZM336.562 65.072V110H325.618V65.072H336.562ZM389.485 110H378.541L360.237 82.288V110H349.293V65.072H360.237L378.541 92.912V65.072H389.485V110ZM432.042 79.28C431.231 77.7867 430.058 76.656 428.522 75.888C427.029 75.0773 425.258 74.672 423.21 74.672C419.669 74.672 416.831 75.8453 414.698 78.192C412.565 80.496 411.498 83.5893 411.498 87.472C411.498 91.6107 412.607 94.8533 414.826 97.2C417.087 99.504 420.181 100.656 424.106 100.656C426.794 100.656 429.055 99.9733 430.89 98.608C432.767 97.2427 434.133 95.28 434.986 92.72H421.098V84.656H444.906V94.832C444.095 97.5627 442.709 100.101 440.746 102.448C438.826 104.795 436.373 106.693 433.386 108.144C430.399 109.595 427.029 110.32 423.274 110.32C418.837 110.32 414.869 109.36 411.37 107.44C407.914 105.477 405.205 102.768 403.242 99.312C401.322 95.856 400.362 91.9093 400.362 87.472C400.362 83.0347 401.322 79.088 403.242 75.632C405.205 72.1333 407.914 69.424 411.37 67.504C414.826 65.5413 418.773 64.56 423.21 64.56C428.586 64.56 433.109 65.8613 436.778 68.464C440.49 71.0667 442.943 74.672 444.138 79.28H432.042ZM497.043 110L487.699 93.04H485.075V110H474.131V65.072H492.499C496.04 65.072 499.048 65.6907 501.523 66.928C504.04 68.1653 505.917 69.872 507.155 72.048C508.392 74.1813 509.011 76.5707 509.011 79.216C509.011 82.2027 508.157 84.8693 506.451 87.216C504.787 89.5627 502.312 91.2267 499.027 92.208L509.395 110H497.043ZM485.075 85.296H491.859C493.864 85.296 495.357 84.8053 496.339 83.824C497.363 82.8427 497.875 81.456 497.875 79.664C497.875 77.9573 497.363 76.6133 496.339 75.632C495.357 74.6507 493.864 74.16 491.859 74.16H485.075V85.296ZM541.929 110.448C537.705 110.448 533.822 109.467 530.281 107.504C526.782 105.541 523.987 102.811 521.897 99.312C519.849 95.7707 518.825 91.8027 518.825 87.408C518.825 83.0133 519.849 79.0667 521.897 75.568C523.987 72.0693 526.782 69.3387 530.281 67.376C533.822 65.4133 537.705 64.432 541.929 64.432C546.153 64.432 550.014 65.4133 553.513 67.376C557.054 69.3387 559.827 72.0693 561.833 75.568C563.881 79.0667 564.905 83.0133 564.905 87.408C564.905 91.8027 563.881 95.7707 561.833 99.312C559.785 102.811 557.011 105.541 553.513 107.504C550.014 109.467 546.153 110.448 541.929 110.448ZM541.929 100.464C545.513 100.464 548.371 99.2693 550.505 96.88C552.681 94.4907 553.769 91.3333 553.769 87.408C553.769 83.44 552.681 80.2827 550.505 77.936C548.371 75.5467 545.513 74.352 541.929 74.352C538.302 74.352 535.401 75.5253 533.225 77.872C531.091 80.2187 530.025 83.3973 530.025 87.408C530.025 91.376 531.091 94.5547 533.225 96.944C535.401 99.2907 538.302 100.464 541.929 100.464ZM602.993 86.96C605.596 87.5147 607.686 88.816 609.265 90.864C610.844 92.8693 611.633 95.1733 611.633 97.776C611.633 101.531 610.31 104.517 607.665 106.736C605.062 108.912 601.414 110 596.721 110H575.793V65.072H596.017C600.582 65.072 604.145 66.1173 606.705 68.208C609.308 70.2987 610.609 73.136 610.609 76.72C610.609 79.3653 609.905 81.5627 608.497 83.312C607.132 85.0613 605.297 86.2773 602.993 86.96ZM586.737 83.248H593.905C595.697 83.248 597.062 82.864 598.001 82.096C598.982 81.2853 599.473 80.112 599.473 78.576C599.473 77.04 598.982 75.8667 598.001 75.056C597.062 74.2453 595.697 73.84 593.905 73.84H586.737V83.248ZM594.801 101.168C596.636 101.168 598.044 100.763 599.025 99.952C600.049 99.0987 600.561 97.8827 600.561 96.304C600.561 94.7253 600.028 93.488 598.961 92.592C597.937 91.696 596.508 91.248 594.673 91.248H586.737V101.168H594.801ZM644.029 110.448C639.805 110.448 635.922 109.467 632.381 107.504C628.882 105.541 626.087 102.811 623.997 99.312C621.948 95.7707 620.924 91.8027 620.924 87.408C620.924 83.0133 621.948 79.0667 623.997 75.568C626.087 72.0693 628.882 69.3387 632.381 67.376C635.922 65.4133 639.805 64.432 644.029 64.432C648.253 64.432 652.114 65.4133 655.613 67.376C659.154 69.3387 661.927 72.0693 663.933 75.568C665.981 79.0667 667.005 83.0133 667.005 87.408C667.005 91.8027 665.981 95.7707 663.933 99.312C661.885 102.811 659.111 105.541 655.613 107.504C652.114 109.467 648.253 110.448 644.029 110.448ZM644.029 100.464C647.613 100.464 650.471 99.2693 652.604 96.88C654.781 94.4907 655.869 91.3333 655.869 87.408C655.869 83.44 654.781 80.2827 652.604 77.936C650.471 75.5467 647.613 74.352 644.029 74.352C640.402 74.352 637.501 75.5253 635.325 77.872C633.191 80.2187 632.125 83.3973 632.125 87.408C632.125 91.376 633.191 94.5547 635.325 96.944C637.501 99.2907 640.402 100.464 644.029 100.464ZM710.213 65.072V73.84H698.309V110H687.365V73.84H675.461V65.072H710.213ZM731.449 65.072V110H720.505V65.072H731.449ZM742.325 87.472C742.325 83.0347 743.285 79.088 745.205 75.632C747.125 72.1333 749.791 69.424 753.205 67.504C756.661 65.5413 760.565 64.56 764.917 64.56C770.25 64.56 774.815 65.968 778.613 68.784C782.41 71.6 784.949 75.44 786.229 80.304H774.197C773.301 78.4267 772.021 76.9973 770.357 76.016C768.735 75.0347 766.879 74.544 764.789 74.544C761.418 74.544 758.687 75.7173 756.597 78.064C754.506 80.4107 753.461 83.5467 753.461 87.472C753.461 91.3973 754.506 94.5333 756.597 96.88C758.687 99.2267 761.418 100.4 764.789 100.4C766.879 100.4 768.735 99.9093 770.357 98.928C772.021 97.9467 773.301 96.5173 774.197 94.64H786.229C784.949 99.504 782.41 103.344 778.613 106.16C774.815 108.933 770.25 110.32 764.917 110.32C760.565 110.32 756.661 109.36 753.205 107.44C749.791 105.477 747.125 102.768 745.205 99.312C743.285 95.856 742.325 91.9093 742.325 87.472ZM813.987 110.448C810.701 110.448 807.757 109.915 805.155 108.848C802.552 107.781 800.461 106.203 798.883 104.112C797.347 102.021 796.536 99.504 796.451 96.56H808.099C808.269 98.224 808.845 99.504 809.827 100.4C810.808 101.253 812.088 101.68 813.667 101.68C815.288 101.68 816.568 101.317 817.507 100.592C818.445 99.824 818.915 98.7787 818.915 97.456C818.915 96.3467 818.531 95.4293 817.763 94.704C817.037 93.9787 816.12 93.3813 815.011 92.912C813.944 92.4427 812.408 91.9093 810.403 91.312C807.501 90.416 805.133 89.52 803.299 88.624C801.464 87.728 799.885 86.4053 798.563 84.656C797.24 82.9067 796.579 80.624 796.579 77.808C796.579 73.6267 798.093 70.3627 801.123 68.016C804.152 65.6267 808.099 64.432 812.963 64.432C817.912 64.432 821.901 65.6267 824.931 68.016C827.96 70.3627 829.581 73.648 829.795 77.872H817.955C817.869 76.4213 817.336 75.2907 816.355 74.48C815.373 73.6267 814.115 73.2 812.579 73.2C811.256 73.2 810.189 73.5627 809.379 74.288C808.568 74.9707 808.163 75.9733 808.163 77.296C808.163 78.7467 808.845 79.8773 810.211 80.688C811.576 81.4987 813.709 82.3733 816.611 83.312C819.512 84.2933 821.859 85.232 823.651 86.128C825.485 87.024 827.064 88.3253 828.387 90.032C829.709 91.7387 830.371 93.936 830.371 96.624C830.371 99.184 829.709 101.509 828.387 103.6C827.107 105.691 825.229 107.355 822.755 108.592C820.28 109.829 817.357 110.448 813.987 110.448Z" fill="white"/>
</svg>
