<svg width="517" height="228" viewBox="0 0 517 228" fill="none" xmlns="http://www.w3.org/2000/svg">
<path d="M320.96 0.359993L262.4 225H196.16L160.32 77.16L123.2 225H56.96L1.19209e-07 0.359993H58.56L90.88 163.88L130.88 0.359993H191.04L229.44 163.88L262.08 0.359993H320.96ZM516.722 132.84C516.722 137.96 516.403 143.293 515.763 148.84H391.923C392.776 159.933 396.296 168.467 402.483 174.44C408.883 180.2 416.669 183.08 425.843 183.08C439.496 183.08 448.989 177.32 454.323 165.8H512.563C509.576 177.533 504.136 188.093 496.243 197.48C488.563 206.867 478.856 214.227 467.123 219.56C455.389 224.893 442.269 227.56 427.763 227.56C410.269 227.56 394.696 223.827 381.043 216.36C367.389 208.893 356.723 198.227 349.043 184.36C341.363 170.493 337.523 154.28 337.523 135.72C337.523 117.16 341.256 100.947 348.723 87.08C356.403 73.2133 367.069 62.5467 380.723 55.08C394.376 47.6133 410.056 43.88 427.763 43.88C445.043 43.88 460.403 47.5067 473.843 54.76C487.283 62.0133 497.736 72.36 505.203 85.8C512.883 99.24 516.722 114.92 516.722 132.84ZM460.723 118.44C460.723 109.053 457.523 101.587 451.123 96.04C444.723 90.4933 436.723 87.72 427.123 87.72C417.949 87.72 410.163 90.3867 403.763 95.72C397.576 101.053 393.736 108.627 392.243 118.44H460.723Z" fill="white"/>
</svg>
